Coval-BlackItalic.ufo
<glyph name="exclam" format="2">
  <advance width="367"/>
  <unicode hex="0021"/>
  <outline>
    <contour>
      <point x="267" y="695" type="line"/>
      <point x="413" y="695" type="line"/>
      <point x="290" y="211" type="line"/>
      <point x="168" y="211" type="line"/>
    </contour>
    <contour>
      <point x="107" y="0" type="line"/>
      <point x="141" y="147" type="line"/>
      <point x="287" y="147" type="line"/>
      <point x="253" y="0" type="line"/>
    </contour>
  </outline>
</glyph>
<glyph name="quotedbl" format="2">
  <advance width="550"/>
  <unicode hex="0022"/>
  <outline>
    <contour>
      <point x="442" y="695" type="line"/>
      <point x="596" y="695" type="line"/>
      <point x="492" y="386" type="line"/>
      <point x="404" y="386" type="line"/>
    </contour>
    <contour>
      <point x="264" y="695" type="line"/>
      <point x="418" y="695" type="line"/>
      <point x="314" y="386" type="line"/>
      <point x="226" y="386" type="line"/>
    </contour>
  </outline>
</glyph>
<glyph name="numbersign" format="2">
  <advance width="917"/>
  <unicode hex="0023"/>
  <outline>
    <contour>
      <point x="139" y="106" type="curve" smooth="yes"/>
      <point x="120" y="106"/>
      <point x="106" y="108"/>
      <point x="98" y="115" type="curve" smooth="yes"/>
      <point x="90" y="122"/>
      <point x="87" y="133"/>
      <point x="91" y="151" type="curve" smooth="yes"/>
      <point x="100" y="194"/>
      <point x="135" y="195"/>
      <point x="163" y="195" type="curve" smooth="yes"/>
      <point x="311" y="195" type="line"/>
      <point x="387" y="336" type="line"/>
      <point x="193" y="336" type="line" smooth="yes"/>
      <point x="168" y="336"/>
      <point x="148" y="341"/>
      <point x="143" y="359" type="curve"/>
      <point x="132" y="426"/>
      <point x="202" y="427"/>
      <point x="217" y="427" type="curve" smooth="yes"/>
      <point x="435" y="427" type="line"/>
      <point x="493" y="539" type="line" smooth="yes"/>
      <point x="525" y="601"/>
      <point x="545" y="639"/>
      <point x="560" y="661" type="curve" smooth="yes"/>
      <point x="577" y="686"/>
      <point x="590" y="694"/>
      <point x="611" y="694" type="curve" smooth="yes"/>
      <point x="635" y="694"/>
      <point x="651" y="671"/>
      <point x="645" y="650" type="curve"/>
      <point x="645" y="637"/>
      <point x="578" y="517"/>
      <point x="530" y="427" type="curve"/>
      <point x="666" y="427" type="line"/>
      <point x="729" y="546" type="line" smooth="yes"/>
      <point x="759" y="603"/>
      <point x="779" y="640"/>
      <point x="796" y="663" type="curve" smooth="yes"/>
      <point x="807" y="679"/>
      <point x="824" y="694"/>
      <point x="843" y="694" type="curve" smooth="yes"/>
      <point x="867" y="694"/>
      <point x="883" y="671"/>
      <point x="877" y="650" type="curve"/>
      <point x="877" y="639"/>
      <point x="837" y="570"/>
      <point x="800" y="500" type="curve" smooth="yes"/>
      <point x="761" y="427" type="line"/>
      <point x="888" y="427" type="line" smooth="yes"/>
      <point x="909" y="427"/>
      <point x="928" y="423"/>
      <point x="934" y="405" type="curve" smooth="yes"/>
      <point x="956" y="340"/>
      <point x="872" y="336"/>
      <point x="867" y="336" type="curve" smooth="yes"/>
      <point x="713" y="336" type="line"/>
      <point x="637" y="195" type="line"/>
      <point x="831" y="195" type="line" smooth="yes"/>
      <point x="854" y="195"/>
      <point x="877" y="192"/>
      <point x="882" y="173" type="curve"/>
      <point x="893" y="110"/>
      <point x="830" y="106"/>
      <point x="808" y="106" type="curve" smooth="yes"/>
      <point x="589" y="106" type="line"/>
      <point x="527" y="-13" type="line" smooth="yes"/>
      <point x="496" y="-72"/>
      <point x="476" y="-109"/>
      <point x="460" y="-131" type="curve" smooth="yes"/>
      <point x="450" y="-146"/>
      <point x="432" y="-161"/>
      <point x="414" y="-161" type="curve" smooth="yes"/>
      <point x="386" y="-161"/>
      <point x="373" y="-137"/>
      <point x="379" y="-117" type="curve"/>
      <point x="436" y="-5" type="line"/>
      <point x="443" y="7"/>
      <point x="449" y="20"/>
      <point x="455" y="32" type="curve" smooth="yes"/>
      <point x="494" y="106" type="line"/>
      <point x="358" y="106" type="line"/>
      <point x="299" y="-7" type="line" smooth="yes"/>
      <point x="267" y="-68"/>
      <point x="247" y="-105"/>
      <point x="232" y="-128" type="curve" smooth="yes"/>
      <point x="216" y="-152"/>
      <point x="205" y="-161"/>
      <point x="182" y="-161" type="curve" smooth="yes"/>
      <point x="154" y="-161"/>
      <point x="142" y="-139"/>
      <point x="148" y="-117" type="curve"/>
      <point x="153" y="-103" type="line"/>
      <point x="159" y="-89"/>
      <point x="174" y="-63"/>
      <point x="205" y="-5" type="curve" smooth="yes"/>
      <point x="263" y="106" type="line"/>
      <point x="164" y="106" type="line" smooth="yes"/>
      <point x="156" y="106"/>
      <point x="147" y="106"/>
    </contour>
    <contour>
      <point x="405" y="195" type="line"/>
      <point x="543" y="195" type="line"/>
      <point x="619" y="336" type="line"/>
      <point x="481" y="336" type="line"/>
    </contour>
  </outline>
</glyph>
<glyph name="dollar" format="2">
  <advance width="550"/>
  <unicode hex="0024"/>
  <outline>
    <contour>
      <point x="54" y="61" type="curve"/>
      <point x="106" y="190" type="line"/>
      <point x="152" y="148"/>
      <point x="177" y="122"/>
      <point x="250" y="110" type="curve"/>
      <point x="291" y="288" type="line"/>
      <point x="198" y="313"/>
      <point x="161" y="375" name=".hr01"/>
      <point x="161" y="443" type="curve" smooth="yes"/>
      <point x="161" y="462"/>
      <point x="163" y="480"/>
      <point x="167" y="498" type="curve" smooth="yes"/>
      <point x="205" y="658"/>
      <point x="312" y="694"/>
      <point x="387" y="703" type="curve"/>
      <point x="398" y="748" type="line"/>
      <point x="488" y="748" type="line"/>
      <point x="478" y="704" type="line" name=".hr02"/>
      <point x="535" y="699"/>
      <point x="575" y="678"/>
      <point x="619" y="645" type="curve"/>
      <point x="571" y="525" type="line"/>
      <point x="554" y="535" type="line"/>
      <point x="530" y="554"/>
      <point x="504" y="578"/>
      <point x="450" y="585" type="curve" name=".hr03"/>
      <point x="415" y="434" type="line"/>
      <point x="517" y="405"/>
      <point x="550" y="320"/>
      <point x="541" y="236" type="curve" smooth="yes"/>
      <point x="527" y="107"/>
      <point x="446" y="5"/>
      <point x="313" y="-8" type="curve"/>
      <point x="303" y="-54" type="line"/>
      <point x="213" y="-54" type="line"/>
      <point x="223" y="-9" type="line"/>
      <point x="198" y="-7"/>
      <point x="130" y="3"/>
    </contour>
    <contour>
      <point x="306" y="520" type="curve"/>
      <point x="305" y="514"/>
      <point x="304" y="509"/>
      <point x="304" y="504" type="curve" smooth="yes" name=".hr04"/>
      <point x="304" y="485"/>
      <point x="319" y="466"/>
      <point x="331" y="458" type="curve"/>
      <point x="341" y="500"/>
      <point x="347" y="535"/>
      <point x="358" y="581" type="curve"/>
      <point x="340" y="574"/>
      <point x="315" y="555"/>
    </contour>
    <contour>
      <point x="342" y="115" type="line"/>
      <point x="346" y="116"/>
      <point x="350" y="119"/>
      <point x="354" y="121" type="curve"/>
      <point x="371" y="132"/>
      <point x="390" y="152"/>
      <point x="398" y="188" type="curve" smooth="yes"/>
      <point x="406" y="227"/>
      <point x="393" y="248"/>
      <point x="375" y="262" type="curve"/>
    </contour>
  </outline>
</glyph>
<glyph name="percent" format="2">
  <advance width="1029"/>
  <unicode hex="0025"/>
  <outline>
    <contour>
      <point x="181" y="543" type="curve" smooth="yes"/>
      <point x="184" y="556"/>
      <point x="188" y="569"/>
      <point x="192" y="582" type="curve" smooth="yes"/>
      <point x="222" y="672"/>
      <point x="285" y="748"/>
      <point x="416" y="748" type="curve" smooth="yes"/>
      <point x="568" y="748"/>
      <point x="575" y="639"/>
      <point x="552" y="541" type="curve" smooth="yes"/>
      <point x="526" y="426"/>
      <point x="458" y="337"/>
      <point x="319" y="337" type="curve" smooth="yes"/>
      <point x="207" y="337"/>
      <point x="146" y="398"/>
    </contour>
    <contour>
      <point x="312" y="521" type="curve" smooth="yes"/>
      <point x="304" y="479"/>
      <point x="292" y="428"/>
      <point x="340" y="428" type="curve" smooth="yes"/>
      <point x="394" y="428"/>
      <point x="412" y="507"/>
      <point x="421" y="543" type="curve"/>
      <point x="427" y="571"/>
      <point x="432" y="600"/>
      <point x="429" y="622" type="curve" smooth="yes"/>
      <point x="426" y="644"/>
      <point x="416" y="658"/>
      <point x="393" y="658" type="curve" smooth="yes"/>
      <point x="335" y="658"/>
      <point x="323" y="574"/>
    </contour>
    <contour>
      <point x="192" y="-4" type="curve" smooth="yes"/>
      <point x="196" y="12"/>
      <point x="209" y="26"/>
      <point x="217" y="36" type="curve"/>
      <point x="217" y="36"/>
      <point x="217" y="36"/>
      <point x="217" y="36" type="curve"/>
      <point x="217" y="36"/>
      <point x="217" y="36"/>
      <point x="217" y="36" type="curve"/>
      <point x="891" y="720" type="line"/>
      <point x="891" y="720"/>
      <point x="890" y="719"/>
      <point x="890" y="719" type="curve"/>
      <point x="897" y="727"/>
      <point x="918" y="748"/>
      <point x="945" y="748" type="curve" smooth="yes"/>
      <point x="975" y="748"/>
      <point x="989" y="723"/>
      <point x="983" y="698" type="curve" smooth="yes"/>
      <point x="980" y="686"/>
      <point x="969" y="672"/>
      <point x="960" y="662" type="curve" smooth="yes"/>
      <point x="282" y="-27" type="line" smooth="yes"/>
      <point x="278" y="-32"/>
      <point x="258" y="-53"/>
      <point x="230" y="-53" type="curve" smooth="yes"/>
      <point x="202" y="-53"/>
      <point x="186" y="-32"/>
    </contour>
    <contour>
      <point x="620" y="153" type="curve" smooth="yes"/>
      <point x="624" y="171"/>
      <point x="629" y="188"/>
      <point x="635" y="204" type="curve" smooth="yes"/>
      <point x="676" y="312"/>
      <point x="754" y="357"/>
      <point x="855" y="357" type="curve" smooth="yes"/>
      <point x="999" y="357"/>
      <point x="1013" y="259"/>
      <point x="995" y="167" type="curve"/>
      <point x="971" y="69"/>
      <point x="926" y="-54"/>
      <point x="759" y="-54" type="curve" smooth="yes"/>
      <point x="647" y="-54"/>
      <point x="585" y="5"/>
    </contour>
    <contour>
      <point x="761" y="167" type="curve" smooth="yes"/>
      <point x="759" y="157"/>
      <point x="755" y="146"/>
      <point x="752" y="133" type="curve" smooth="yes"/>
      <point x="741" y="89"/>
      <point x="732" y="36"/>
      <point x="779" y="36" type="curve" smooth="yes"/>
      <point x="831" y="36"/>
      <point x="853" y="116"/>
      <point x="860" y="152" type="curve"/>
      <point x="868" y="187"/>
      <point x="874" y="223"/>
      <point x="865" y="245" type="curve" smooth="yes"/>
      <point x="860" y="258"/>
      <point x="850" y="266"/>
      <point x="832" y="266" type="curve" smooth="yes"/>
      <point x="784" y="266"/>
      <point x="768" y="208"/>
    </contour>
  </outline>
</glyph>
<glyph name="ampersand" format="2">
  <advance width="831"/>
  <unicode hex="0026"/>
  <outline>
    <contour>
      <point x="76" y="154" type="curve" smooth="yes"/>
      <point x="86" y="197"/>
      <point x="109" y="229"/>
      <point x="138" y="256" type="curve"/>
      <point x="138" y="256"/>
      <point x="138" y="256"/>
      <point x="138" y="256" type="curve"/>
      <point x="172" y="288"/>
      <point x="217" y="311"/>
      <point x="260" y="336" type="curve"/>
      <point x="254" y="377"/>
      <point x="251" y="428"/>
      <point x="264" y="485" type="curve" smooth="yes"/>
      <point x="292" y="606"/>
      <point x="389" y="716"/>
      <point x="499" y="716" type="curve" smooth="yes"/>
      <point x="593" y="716"/>
      <point x="659" y="639"/>
      <point x="638" y="547" type="curve" smooth="yes"/>
      <point x="620" y="467"/>
      <point x="514" y="396"/>
      <point x="411" y="333" type="curve"/>
      <point x="421" y="308"/>
      <point x="430" y="287"/>
      <point x="443" y="265" type="curve" smooth="yes"/>
      <point x="460" y="237" type="line"/>
      <point x="476" y="213"/>
      <point x="492" y="191"/>
      <point x="501" y="182" type="curve"/>
      <point x="537" y="208"/>
      <point x="632" y="285"/>
      <point x="718" y="454" type="curve"/>
      <point x="827" y="422" type="line"/>
      <point x="799" y="364"/>
      <point x="763" y="307"/>
      <point x="719" y="251" type="curve" smooth="yes"/>
      <point x="680" y="202"/>
      <point x="631" y="151"/>
      <point x="580" y="112" type="curve"/>
      <point x="600" y="102"/>
      <point x="622" y="95"/>
      <point x="653" y="95" type="curve" smooth="yes"/>
      <point x="700" y="95"/>
      <point x="746" y="107"/>
      <point x="790" y="121" type="curve"/>
      <point x="761" y="-3" type="line"/>
      <point x="714" y="-15"/>
      <point x="668" y="-22"/>
      <point x="627" y="-22" type="curve" smooth="yes"/>
      <point x="534" y="-22"/>
      <point x="479" y="14"/>
      <point x="457" y="27" type="curve"/>
      <point x="457" y="27"/>
      <point x="458" y="27"/>
      <point x="458" y="27" type="curve"/>
      <point x="456" y="28"/>
      <point x="454" y="29"/>
      <point x="452" y="30" type="curve"/>
      <point x="376" y="-7"/>
      <point x="289" y="-21"/>
      <point x="241" y="-21" type="curve" smooth="yes"/>
      <point x="122" y="-21"/>
      <point x="54" y="58"/>
    </contour>
    <contour>
      <point x="233" y="179" type="curve" smooth="yes"/>
      <point x="232" y="175"/>
      <point x="231" y="170"/>
      <point x="230" y="165" type="curve" smooth="yes"/>
      <point x="224" y="127"/>
      <point x="230" y="95"/>
      <point x="283" y="95" type="curve"/>
      <point x="313" y="97"/>
      <point x="343" y="104"/>
      <point x="367" y="111" type="curve"/>
      <point x="333" y="152"/>
      <point x="307" y="190"/>
      <point x="281" y="255" type="curve"/>
      <point x="276" y="251"/>
      <point x="272" y="247"/>
      <point x="267" y="243" type="curve"/>
      <point x="260" y="236" type="line"/>
      <point x="249" y="222"/>
      <point x="238" y="201"/>
    </contour>
    <contour>
      <point x="398" y="540" type="curve" smooth="yes"/>
      <point x="396" y="532"/>
      <point x="394" y="525"/>
      <point x="393" y="517" type="curve" smooth="yes"/>
      <point x="387" y="478"/>
      <point x="387" y="442"/>
      <point x="390" y="416" type="curve"/>
      <point x="439" y="446"/>
      <point x="516" y="497"/>
      <point x="510" y="586" type="curve"/>
      <point x="507" y="607"/>
      <point x="502" y="626"/>
      <point x="477" y="626" type="curve" smooth="yes"/>
      <point x="452" y="626"/>
      <point x="411" y="601"/>
    </contour>
  </outline>
</glyph>
<glyph name="quotesingle" format="2">
  <advance width="306"/>
  <unicode hex="0027"/>
  <outline>
    <contour>
      <point x="232" y="695" type="line"/>
      <point x="387" y="695" type="line"/>
      <point x="283" y="386" type="line"/>
      <point x="194" y="386" type="line"/>
    </contour>
  </outline>
</glyph>
<glyph name="parenleft" format="2">
  <advance width="428"/>
  <unicode hex="0028"/>
  <outline>
    <contour>
      <point x="137" y="265" type="curve" smooth="yes"/>
      <point x="142" y="287"/>
      <point x="148" y="308"/>
      <point x="154" y="329" type="curve" smooth="yes"/>
      <point x="205" y="497"/>
      <point x="303" y="645"/>
      <point x="457" y="748" type="curve"/>
      <point x="551" y="748" type="line"/>
      <point x="533" y="730"/>
      <point x="512" y="709"/>
      <point x="489" y="684" type="curve"/>
      <point x="418" y="600"/>
      <point x="339" y="485"/>
      <point x="290" y="266" type="curve" smooth="yes"/>
      <point x="202" y="-114"/>
      <point x="316" y="-194"/>
      <point x="323" y="-217" type="curve"/>
      <point x="234" y="-217" type="line"/>
      <point x="115" y="-99"/>
      <point x="94" y="77"/>
    </contour>
  </outline>
</glyph>
<glyph name="parenright" format="2">
  <advance width="428"/>
  <unicode hex="0029"/>
  <outline>
    <contour>
      <point x="11" y="-217" type="line"/>
      <point x="7" y="-201" type="line"/>
      <point x="21" y="-188"/>
      <point x="36" y="-174"/>
      <point x="52" y="-156" type="curve" smooth="yes"/>
      <point x="115" y="-85"/>
      <point x="196" y="26"/>
      <point x="252" y="266" type="curve" smooth="yes"/>
      <point x="321" y="564"/>
      <point x="255" y="677"/>
      <point x="230" y="718" type="curve"/>
      <point x="230" y="718"/>
      <point x="230" y="717"/>
      <point x="230" y="717" type="curve"/>
      <point x="225" y="727"/>
      <point x="221" y="738"/>
      <point x="216" y="748" type="curve"/>
      <point x="309" y="748" type="line"/>
      <point x="427" y="632"/>
      <point x="448" y="456"/>
      <point x="404" y="265" type="curve" smooth="yes"/>
      <point x="360" y="75"/>
      <point x="258" y="-100"/>
      <point x="86" y="-217" type="curve"/>
    </contour>
  </outline>
</glyph>
<glyph name="asterisk" format="2">
  <advance width="550"/>
  <unicode hex="002A"/>
  <outline>
    <contour>
      <point x="204" y="359" type="curve"/>
      <point x="168" y="359"/>
      <point x="150" y="392"/>
      <point x="157" y="424" type="curve"/>
      <point x="157" y="424"/>
      <point x="157" y="424"/>
      <point x="157" y="424" type="curve"/>
      <point x="157" y="424"/>
      <point x="157" y="424"/>
      <point x="157" y="424" type="curve"/>
      <point x="163" y="442" type="line"/>
      <point x="172" y="464"/>
      <point x="208" y="476"/>
      <point x="286" y="498" type="curve"/>
      <point x="318" y="508" type="line"/>
      <point x="262" y="528" type="line" smooth="yes"/>
      <point x="215" y="545"/>
      <point x="197" y="554"/>
      <point x="194" y="573" type="curve" smooth="yes"/>
      <point x="193" y="579"/>
      <point x="194" y="586"/>
      <point x="196" y="595" type="curve" smooth="yes"/>
      <point x="201" y="620"/>
      <point x="222" y="642"/>
      <point x="244" y="654" type="curve" smooth="yes"/>
      <point x="253" y="659"/>
      <point x="263" y="661"/>
      <point x="273" y="661" type="curve" smooth="yes"/>
      <point x="305" y="661"/>
      <point x="313" y="633"/>
      <point x="366" y="571" type="curve"/>
      <point x="366" y="690"/>
      <point x="373" y="748"/>
      <point x="443" y="748" type="curve" smooth="yes"/>
      <point x="472" y="748"/>
      <point x="498" y="728"/>
      <point x="491" y="696" type="curve" smooth="yes"/>
      <point x="487" y="677"/>
      <point x="456" y="614"/>
      <point x="437" y="571" type="curve"/>
      <point x="542" y="657"/>
      <point x="552" y="661"/>
      <point x="573" y="661" type="curve" smooth="yes"/>
      <point x="579" y="661"/>
      <point x="584" y="660"/>
      <point x="589" y="658" type="curve"/>
      <point x="610" y="652"/>
      <point x="620" y="631"/>
      <point x="620" y="611" type="curve" smooth="yes"/>
      <point x="620" y="555"/>
      <point x="589" y="550"/>
      <point x="487" y="517" type="curve" smooth="yes"/>
      <point x="457" y="508" type="line"/>
      <point x="518" y="489" type="line"/>
      <point x="576" y="467"/>
      <point x="588" y="462"/>
      <point x="579" y="424" type="curve"/>
      <point x="574" y="400"/>
      <point x="554" y="378"/>
      <point x="532" y="366" type="curve" smooth="yes"/>
      <point x="523" y="361"/>
      <point x="513" y="359"/>
      <point x="503" y="359" type="curve" smooth="yes"/>
      <point x="474" y="359"/>
      <point x="469" y="379"/>
      <point x="409" y="447" type="curve"/>
      <point x="405" y="273"/>
      <point x="396" y="270"/>
      <point x="332" y="270" type="curve" smooth="yes"/>
      <point x="303" y="270"/>
      <point x="278" y="291"/>
      <point x="285" y="323" type="curve" smooth="yes"/>
      <point x="287" y="333"/>
      <point x="294" y="349"/>
      <point x="307" y="375" type="curve"/>
      <point x="338" y="447" type="line"/>
      <point x="230" y="360"/>
      <point x="222" y="359"/>
      <point x="204" y="359" type="curve"/>
      <point x="204" y="359"/>
      <point x="204" y="359"/>
      <point x="204" y="359" type="curve"/>
      <point x="204" y="359"/>
      <point x="204" y="359"/>
    </contour>
  </outline>
</glyph>
<glyph name="plus" format="2">
  <advance width="672"/>
  <unicode hex="002B"/>
  <outline>
    <contour>
      <point x="114" y="266" type="curve" smooth="yes"/>
      <point x="119" y="289"/>
      <point x="147" y="311"/>
      <point x="170" y="311" type="curve"/>
      <point x="170" y="311"/>
      <point x="170" y="311"/>
      <point x="170" y="311" type="curve"/>
      <point x="358" y="311" type="line"/>
      <point x="403" y="505" type="line"/>
      <point x="414" y="527"/>
      <point x="436" y="543"/>
      <point x="455" y="543" type="curve" smooth="yes"/>
      <point x="478" y="543"/>
      <point x="496" y="525"/>
      <point x="490" y="500" type="curve" smooth="yes"/>
      <point x="447" y="311" type="line"/>
      <point x="623" y="311" type="line" smooth="yes"/>
      <point x="630" y="311"/>
      <point x="637" y="311"/>
      <point x="645" y="308" type="curve" name=".hr01"/>
      <point x="645" y="308"/>
      <point x="645" y="309"/>
      <point x="645" y="309" type="curve"/>
      <point x="664" y="303"/>
      <point x="672" y="287"/>
      <point x="667" y="266" type="curve" smooth="yes"/>
      <point x="661" y="241"/>
      <point x="637" y="221"/>
      <point x="611" y="221" type="curve" smooth="yes"/>
      <point x="426" y="221" type="line"/>
      <point x="387" y="50" type="line"/>
      <point x="378" y="15"/>
      <point x="362" y="-11"/>
      <point x="327" y="-11" type="curve" smooth="yes"/>
      <point x="303" y="-11"/>
      <point x="288" y="11"/>
      <point x="293" y="34" type="curve"/>
      <point x="296" y="43" type="line"/>
      <point x="298" y="50"/>
      <point x="299" y="58"/>
      <point x="301" y="65" type="curve"/>
      <point x="337" y="221" type="line"/>
      <point x="166" y="221" type="line" smooth="yes"/>
      <point x="132" y="221"/>
      <point x="106" y="232"/>
    </contour>
  </outline>
</glyph>
<glyph name="comma" format="2">
  <advance width="306"/>
  <unicode hex="002C"/>
  <outline>
    <contour>
      <point x="76" y="0" type="line"/>
      <point x="110" y="147" type="line"/>
      <point x="257" y="147" type="line"/>
      <point x="240" y="71" type="line"/>
      <point x="240" y="71"/>
      <point x="240" y="71"/>
      <point x="240" y="71" type="curve"/>
      <point x="228" y="21" type="line"/>
      <point x="221" y="-3"/>
      <point x="210" y="-9"/>
      <point x="131" y="-108" type="curve"/>
      <point x="47" y="-108" type="line"/>
      <point x="111" y="0" type="line"/>
    </contour>
  </outline>
</glyph>
<glyph name="slash" format="2">
  <advance width="550"/>
  <unicode hex="002F"/>
  <outline>
    <contour>
      <point x="14" y="-171" type="curve"/>
      <point x="17" y="-159"/>
      <point x="26" y="-149"/>
      <point x="28" y="-141" type="curve"/>
      <point x="28" y="-141"/>
      <point x="28" y="-141"/>
      <point x="28" y="-141" type="curve"/>
      <point x="558" y="705" type="line"/>
      <point x="558" y="705"/>
      <point x="558" y="705"/>
      <point x="558" y="705" type="curve"/>
      <point x="568" y="721"/>
      <point x="584" y="748"/>
      <point x="615" y="748" type="curve" smooth="yes"/>
      <point x="638" y="748"/>
      <point x="656" y="731"/>
      <point x="650" y="704" type="curve" smooth="yes"/>
      <point x="648" y="695"/>
      <point x="641" y="683"/>
      <point x="636" y="676" type="curve"/>
      <point x="113" y="-162" type="line"/>
      <point x="103" y="-182"/>
      <point x="78" y="-216"/>
      <point x="48" y="-216" type="curve" smooth="yes"/>
      <point x="27" y="-216"/>
      <point x="8" y="-198"/>
    </contour>
  </outline>
</glyph>
<glyph name="zero" format="2">
  <advance width="550"/>
  <unicode hex="0030"/>
  <outline>
    <contour>
      <point x="114" y="344" type="curve" smooth="yes"/>
      <point x="123" y="381" type="line" smooth="yes"/>
      <point x="126" y="394"/>
      <point x="129" y="406"/>
      <point x="133" y="419" type="curve"/>
      <point x="179" y="590"/>
      <point x="262" y="716"/>
      <point x="435" y="716" type="curve" smooth="yes"/>
      <point x="605" y="716"/>
      <point x="622" y="578"/>
      <point x="608" y="465" type="curve" smooth="yes"/>
      <point x="604" y="427"/>
      <point x="596" y="393"/>
      <point x="589" y="362" type="curve" smooth="yes"/>
      <point x="581" y="327" type="line" smooth="yes"/>
      <point x="544" y="171"/>
      <point x="487" y="-21"/>
      <point x="264" y="-21" type="curve" smooth="yes"/>
      <point x="41" y="-21"/>
      <point x="76" y="181"/>
    </contour>
    <contour>
      <point x="278" y="390" type="line" smooth="yes"/>
      <point x="255" y="289"/>
      <point x="236" y="215"/>
      <point x="233" y="166" type="curve"/>
      <point x="228" y="116"/>
      <point x="236" y="92"/>
      <point x="258" y="77" type="curve"/>
      <point x="258" y="77"/>
      <point x="257" y="77"/>
      <point x="257" y="77" type="curve"/>
      <point x="265" y="72"/>
      <point x="274" y="68"/>
      <point x="286" y="68" type="curve" smooth="yes"/>
      <point x="292" y="68"/>
      <point x="297" y="69"/>
      <point x="302" y="70" type="curve" smooth="yes"/>
      <point x="369" y="83"/>
      <point x="396" y="191"/>
      <point x="433" y="345" type="curve" smooth="yes"/>
      <point x="444" y="392" type="line" smooth="yes"/>
      <point x="475" y="528"/>
      <point x="492" y="626"/>
      <point x="415" y="626" type="curve" smooth="yes"/>
      <point x="407" y="626"/>
      <point x="401" y="625"/>
      <point x="394" y="623" type="curve" smooth="yes"/>
      <point x="334" y="605"/>
      <point x="307" y="514"/>
      <point x="285" y="421" type="curve" smooth="yes"/>
    </contour>
  </outline>
</glyph>
<glyph name="one" format="2">
  <advance width="550"/>
  <unicode hex="0031"/>
  <outline>
    <contour>
      <point x="197" y="559" type="curve"/>
      <point x="218" y="649" type="line"/>
      <point x="335" y="649"/>
      <point x="412" y="671"/>
      <point x="476" y="716" type="curve"/>
      <point x="524" y="716" type="line"/>
      <point x="380" y="90" type="line"/>
      <point x="494" y="90" type="line"/>
      <point x="473" y="0" type="line"/>
      <point x="83" y="0" type="line"/>
      <point x="104" y="90" type="line"/>
      <point x="226" y="90" type="line"/>
      <point x="337" y="570" type="line"/>
      <point x="294" y="562"/>
      <point x="246" y="559"/>
    </contour>
  </outline>
</glyph>
<glyph name="two" format="2">
  <advance width="550"/>
  <unicode hex="0032"/>
  <outline>
    <contour>
      <point x="171" y="571" type="curve"/>
      <point x="177" y="581"/>
      <point x="184" y="591"/>
      <point x="192" y="601" type="curve" smooth="yes"/>
      <point x="238" y="661"/>
      <point x="308" y="716"/>
      <point x="420" y="716" type="curve" smooth="yes"/>
      <point x="573" y="716"/>
      <point x="632" y="603"/>
      <point x="606" y="483" type="curve" smooth="yes"/>
      <point x="582" y="375"/>
      <point x="495" y="332"/>
      <point x="342" y="224" type="curve"/>
      <point x="342" y="224"/>
      <point x="342" y="225"/>
      <point x="342" y="225" type="curve"/>
      <point x="296" y="191"/>
      <point x="249" y="156"/>
      <point x="203" y="122" type="curve"/>
      <point x="311" y="122"/>
      <point x="416" y="124"/>
      <point x="523" y="124" type="curve"/>
      <point x="494" y="0" type="line"/>
      <point x="47" y="0" type="line"/>
      <point x="73" y="111" type="line"/>
      <point x="141" y="166"/>
      <point x="207" y="229"/>
      <point x="279" y="279" type="curve"/>
      <point x="279" y="279"/>
      <point x="278" y="278"/>
      <point x="278" y="278" type="curve"/>
      <point x="334" y="322"/>
      <point x="427" y="393"/>
      <point x="448" y="481" type="curve" smooth="yes"/>
      <point x="462" y="540"/>
      <point x="442" y="600"/>
      <point x="378" y="600" type="curve" smooth="yes"/>
      <point x="364" y="600"/>
      <point x="351" y="597"/>
      <point x="339" y="592" type="curve" smooth="yes"/>
      <point x="291" y="572"/>
      <point x="253" y="516"/>
      <point x="225" y="461" type="curve"/>
      <point x="211" y="487"/>
      <point x="165" y="547"/>
    </contour>
  </outline>
</glyph>
<glyph name="three" format="2">
  <advance width="550"/>
  <unicode hex="0033"/>
  <outline>
    <contour>
      <point x="51" y="62" type="curve"/>
      <point x="97" y="175" type="line"/>
      <point x="145" y="124"/>
      <point x="201" y="90"/>
      <point x="275" y="90" type="curve" smooth="yes"/>
      <point x="365" y="90"/>
      <point x="378" y="166"/>
      <point x="390" y="220" type="curve" smooth="yes"/>
      <point x="415" y="328"/>
      <point x="358" y="329"/>
      <point x="328" y="329" type="curve" smooth="yes"/>
      <point x="248" y="329" type="line"/>
      <point x="269" y="419" type="line"/>
      <point x="305" y="421" type="line"/>
      <point x="357" y="421"/>
      <point x="421" y="450"/>
      <point x="442" y="541" type="curve" smooth="yes"/>
      <point x="450" y="577"/>
      <point x="450" y="610"/>
      <point x="398" y="610" type="curve" smooth="yes"/>
      <point x="312" y="610"/>
      <point x="247" y="535"/>
      <point x="234" y="520" type="curve"/>
      <point x="191" y="612" type="line"/>
      <point x="254" y="672"/>
      <point x="331" y="716"/>
      <point x="425" y="716" type="curve" smooth="yes"/>
      <point x="590" y="716"/>
      <point x="609" y="630"/>
      <point x="600" y="560" type="curve" smooth="yes" name=".hr01"/>
      <point x="587" y="458"/>
      <point x="516" y="407"/>
      <point x="468" y="380" type="curve"/>
      <point x="512" y="364"/>
      <point x="578" y="326"/>
      <point x="550" y="207" type="curve" smooth="yes"/>
      <point x="524" y="91"/>
      <point x="445" y="-21"/>
      <point x="254" y="-21" type="curve" smooth="yes"/>
      <point x="175" y="-21"/>
      <point x="101" y="5"/>
    </contour>
  </outline>
</glyph>
<glyph name="four" format="2">
  <advance width="550"/>
  <unicode hex="0034"/>
  <outline>
    <contour>
      <point x="57" y="148" type="line"/>
      <point x="81" y="253" type="line"/>
      <point x="423" y="695" type="line"/>
      <point x="590" y="695" type="line"/>
      <point x="490" y="259" type="line"/>
      <point x="577" y="259" type="line"/>
      <point x="551" y="148" type="line"/>
      <point x="464" y="148" type="line"/>
      <point x="430" y="0" type="line"/>
      <point x="290" y="0" type="line"/>
      <point x="324" y="148" type="line"/>
    </contour>
    <contour>
      <point x="211" y="259" type="line"/>
      <point x="354" y="259" type="line"/>
      <point x="417" y="534" type="line"/>
      <point x="369" y="463"/>
      <point x="281" y="350"/>
      <point x="232" y="287" type="curve" smooth="yes"/>
    </contour>
  </outline>
</glyph>
<glyph name="five" format="2">
  <advance width="550"/>
  <unicode hex="0035"/>
  <outline>
    <contour>
      <point x="48" y="89" type="curve"/>
      <point x="135" y="194" type="line"/>
      <point x="137" y="186"/>
      <point x="140" y="179"/>
      <point x="142" y="171" type="curve"/>
      <point x="142" y="171"/>
      <point x="143" y="172"/>
      <point x="143" y="172" type="curve"/>
      <point x="145" y="165"/>
      <point x="149" y="158"/>
      <point x="151" y="151" type="curve"/>
      <point x="151" y="151"/>
      <point x="150" y="152"/>
      <point x="150" y="152" type="curve"/>
      <point x="173" y="109"/>
      <point x="216" y="89"/>
      <point x="260" y="89" type="curve" smooth="yes"/>
      <point x="345" y="89"/>
      <point x="365" y="149"/>
      <point x="382" y="224" type="curve" smooth="yes"/>
      <point x="387" y="246"/>
      <point x="392" y="269"/>
      <point x="396" y="290" type="curve" smooth="yes"/>
      <point x="403" y="333"/>
      <point x="401" y="368"/>
      <point x="363" y="368" type="curve" smooth="yes"/>
      <point x="290" y="368"/>
      <point x="256" y="281"/>
      <point x="258" y="288" type="curve"/>
      <point x="140" y="288" type="line"/>
      <point x="234" y="695" type="line"/>
      <point x="618" y="695" type="line"/>
      <point x="591" y="577" type="line"/>
      <point x="353" y="577" type="line"/>
      <point x="323" y="447" type="line"/>
      <point x="340" y="453"/>
      <point x="361" y="459"/>
      <point x="389" y="459" type="curve" smooth="yes"/>
      <point x="518" y="459"/>
      <point x="583" y="391"/>
      <point x="545" y="223" type="curve" smooth="yes"/>
      <point x="499" y="26"/>
      <point x="361" y="-21"/>
      <point x="238" y="-21" type="curve" smooth="yes"/>
      <point x="111" y="-21"/>
      <point x="63" y="58"/>
    </contour>
  </outline>
</glyph>
<glyph name="seven" format="2">
  <advance width="550"/>
  <unicode hex="0037"/>
  <outline>
    <contour>
      <point x="170" y="570" type="curve"/>
      <point x="198" y="695" type="line"/>
      <point x="662" y="695" type="line"/>
      <point x="637" y="583" type="line"/>
      <point x="456" y="414"/>
      <point x="335" y="198"/>
      <point x="287" y="-11" type="curve"/>
      <point x="129" y="-11" type="line"/>
      <point x="179" y="206"/>
      <point x="319" y="422"/>
      <point x="522" y="571" type="curve"/>
      <point x="406" y="571"/>
      <point x="285" y="570"/>
    </contour>
  </outline>
</glyph>
<glyph name="eight" format="2">
  <advance width="550"/>
  <unicode hex="0038"/>
  <outline>
    <contour>
      <point x="85" y="205" type="curve" smooth="yes"/>
      <point x="88" y="218"/>
      <point x="91" y="231"/>
      <point x="96" y="243" type="curve"/>
      <point x="119" y="305"/>
      <point x="161" y="350"/>
      <point x="226" y="375" type="curve"/>
      <point x="194" y="391"/>
      <point x="150" y="429"/>
      <point x="172" y="518" type="curve" smooth="yes"/>
      <point x="200" y="620"/>
      <point x="260" y="716"/>
      <point x="436" y="716" type="curve" smooth="yes"/>
      <point x="609" y="716"/>
      <point x="629" y="618"/>
      <point x="607" y="517" type="curve" smooth="yes"/>
      <point x="587" y="432"/>
      <point x="526" y="392"/>
      <point x="486" y="375" type="curve"/>
      <point x="553" y="344"/>
      <point x="567" y="282"/>
      <point x="549" y="205" type="curve"/>
      <point x="517" y="89"/>
      <point x="453" y="-21"/>
      <point x="265" y="-21" type="curve" smooth="yes"/>
      <point x="83" y="-21"/>
      <point x="59" y="89"/>
    </contour>
    <contour>
      <point x="238" y="194" type="curve" smooth="yes"/>
      <point x="236" y="185"/>
      <point x="234" y="177"/>
      <point x="233" y="168" type="curve"/>
      <point x="226" y="124"/>
      <point x="231" y="90"/>
      <point x="290" y="90" type="curve" smooth="yes"/>
      <point x="380" y="90"/>
      <point x="387" y="169"/>
      <point x="398" y="217" type="curve" smooth="yes"/>
      <point x="406" y="253"/>
      <point x="411" y="285"/>
      <point x="400" y="305" type="curve" smooth="yes"/>
      <point x="392" y="320"/>
      <point x="376" y="329"/>
      <point x="346" y="329" type="curve" smooth="yes"/>
      <point x="247" y="329"/>
      <point x="241" y="208"/>
    </contour>
    <contour>
      <point x="313" y="506" type="curve" smooth="yes"/>
      <point x="311" y="499"/>
      <point x="310" y="492"/>
      <point x="309" y="486" type="curve" smooth="yes"/>
      <point x="302" y="442"/>
      <point x="316" y="419" name=".hr01"/>
      <point x="366" y="419" type="curve" smooth="yes"/>
      <point x="437" y="419"/>
      <point x="450" y="464"/>
      <point x="461" y="507" type="curve"/>
      <point x="470" y="548"/>
      <point x="475" y="575"/>
      <point x="465" y="591" type="curve" smooth="yes"/>
      <point x="457" y="604"/>
      <point x="441" y="610"/>
      <point x="412" y="610" type="curve" smooth="yes"/>
      <point x="324" y="610"/>
      <point x="323" y="543"/>
    </contour>
  </outline>
</glyph>
<glyph name="nine" format="2">
  <advance width="550"/>
  <unicode hex="0039"/>
  <outline>
    <contour>
      <point x="140" y="440" type="curve" smooth="yes"/>
      <point x="144" y="456"/>
      <point x="148" y="472"/>
      <point x="153" y="489" type="curve" smooth="yes"/>
      <point x="187" y="599"/>
      <point x="257" y="716"/>
      <point x="437" y="716" type="curve" smooth="yes"/>
      <point x="591" y="716"/>
      <point x="616" y="603"/>
      <point x="608" y="495" type="curve" smooth="yes"/>
      <point x="596" y="345"/>
      <point x="525" y="-21"/>
      <point x="218" y="-21" type="curve" smooth="yes"/>
      <point x="156" y="-21"/>
      <point x="118" y="-2"/>
      <point x="75" y="32" type="curve"/>
      <point x="154" y="131" type="line"/>
      <point x="186" y="104"/>
      <point x="205" y="90"/>
      <point x="244" y="90" type="curve" smooth="yes"/>
      <point x="331" y="90"/>
      <point x="375" y="147"/>
      <point x="406" y="265" type="curve"/>
      <point x="377" y="230"/>
      <point x="331" y="196"/>
      <point x="269" y="196" type="curve" smooth="yes"/>
      <point x="184" y="196"/>
      <point x="155" y="237"/>
      <point x="142" y="270" type="curve"/>
      <point x="142" y="270"/>
      <point x="142" y="269"/>
      <point x="142" y="269" type="curve"/>
      <point x="117" y="326"/>
      <point x="126" y="378"/>
    </contour>
    <contour>
      <point x="296" y="447" type="curve" smooth="yes"/>
      <point x="290" y="420"/>
      <point x="287" y="398"/>
      <point x="284" y="379" type="curve" smooth="yes"/>
      <point x="268" y="266"/>
      <point x="302" y="287"/>
      <point x="328" y="287" type="curve" smooth="yes"/>
      <point x="333" y="287"/>
      <point x="338" y="288"/>
      <point x="344" y="289" type="curve" smooth="yes"/>
      <point x="385" y="298"/>
      <point x="439" y="351"/>
      <point x="462" y="509" type="curve" smooth="yes"/>
      <point x="464" y="520"/>
      <point x="464" y="530"/>
      <point x="464" y="540" type="curve" smooth="yes"/>
      <point x="464" y="578"/>
      <point x="456" y="610"/>
      <point x="411" y="610" type="curve" smooth="yes"/>
      <point x="319" y="610"/>
      <point x="308" y="499"/>
    </contour>
  </outline>
</glyph>
<glyph name="colon" format="2">
  <advance width="306"/>
  <unicode hex="003A"/>
  <outline>
    <contour>
      <point x="76" y="0" type="line"/>
      <point x="110" y="147" type="line"/>
      <point x="257" y="147" type="line"/>
      <point x="223" y="0" type="line"/>
    </contour>
    <contour>
      <point x="152" y="331" type="line"/>
      <point x="186" y="478" type="line"/>
      <point x="333" y="478" type="line"/>
      <point x="299" y="331" type="line"/>
    </contour>
  </outline>
</glyph>
<glyph name="semicolon" format="2">
  <advance width="306"/>
  <unicode hex="003B"/>
  <outline>
    <contour>
      <point x="152" y="331" type="line"/>
      <point x="186" y="478" type="line"/>
      <point x="333" y="478" type="line"/>
      <point x="299" y="331" type="line"/>
    </contour>
    <contour>
      <point x="76" y="0" type="line"/>
      <point x="110" y="147" type="line"/>
      <point x="257" y="147" type="line"/>
      <point x="240" y="71" type="line"/>
      <point x="240" y="71"/>
      <point x="240" y="71"/>
      <point x="240" y="71" type="curve"/>
      <point x="228" y="21" type="line"/>
      <point x="221" y="-3"/>
      <point x="210" y="-9"/>
      <point x="131" y="-108" type="curve"/>
      <point x="47" y="-108" type="line"/>
      <point x="111" y="0" type="line"/>
    </contour>
  </outline>
</glyph>
<glyph name="less" format="2">
  <advance width="672"/>
  <unicode hex="003C"/>
  <outline>
    <contour>
      <point x="144" y="263" type="curve"/>
      <point x="144" y="265"/>
      <point x="145" y="268"/>
      <point x="145" y="270" type="curve"/>
      <point x="149" y="285"/>
      <point x="155" y="290"/>
      <point x="187" y="313" type="curve"/>
      <point x="637" y="611" type="line"/>
      <point x="641" y="614"/>
      <point x="647" y="618"/>
      <point x="654" y="621" type="curve" smooth="yes"/>
      <point x="661" y="624"/>
      <point x="669" y="626"/>
      <point x="677" y="626" type="curve" smooth="yes"/>
      <point x="700" y="626"/>
      <point x="717" y="608"/>
      <point x="711" y="582" type="curve" smooth="yes"/>
      <point x="706" y="559"/>
      <point x="690" y="549"/>
      <point x="675" y="539" type="curve" smooth="yes"/>
      <point x="304" y="292" type="line" smooth="yes"/>
      <point x="290" y="283"/>
      <point x="277" y="274"/>
      <point x="263" y="265" type="curve"/>
      <point x="284" y="251"/>
      <point x="287" y="239"/>
      <point x="303" y="229" type="curve"/>
      <point x="549" y="-7" type="line" smooth="yes"/>
      <point x="556" y="-14"/>
      <point x="571" y="-26"/>
      <point x="565" y="-50" type="curve"/>
      <point x="560" y="-74"/>
      <point x="534" y="-94"/>
      <point x="510" y="-94" type="curve" smooth="yes"/>
      <point x="496" y="-94"/>
      <point x="489" y="-88"/>
      <point x="479" y="-80" type="curve"/>
      <point x="167" y="219" type="line"/>
      <point x="136" y="245"/>
      <point x="145" y="258"/>
    </contour>
  </outline>
</glyph>
<glyph name="equal" format="2">
  <advance width="672"/>
  <unicode hex="003D"/>
  <outline>
    <contour>
      <point x="89" y="151" type="curve" smooth="yes"/>
      <point x="98" y="192"/>
      <point x="137" y="195"/>
      <point x="151" y="195" type="curve" smooth="yes"/>
      <point x="600" y="195" type="line"/>
      <point x="623" y="193"/>
      <point x="650" y="189"/>
      <point x="641" y="151" type="curve" smooth="yes"/>
      <point x="631" y="109"/>
      <point x="589" y="106"/>
      <point x="577" y="106" type="curve" smooth="yes"/>
      <point x="130" y="106" type="line"/>
      <point x="108" y="109"/>
      <point x="80" y="112"/>
    </contour>
    <contour>
      <point x="142" y="381" type="curve" smooth="yes"/>
      <point x="152" y="423"/>
      <point x="203" y="430"/>
      <point x="205" y="427" type="curve"/>
      <point x="222" y="427"/>
      <point x="238" y="427"/>
      <point x="255" y="427" type="curve" smooth="yes"/>
      <point x="653" y="427" type="line"/>
      <point x="675" y="423"/>
      <point x="703" y="420"/>
      <point x="694" y="381" type="curve" smooth="yes"/>
      <point x="684" y="339"/>
      <point x="644" y="336"/>
      <point x="632" y="336" type="curve" smooth="yes"/>
      <point x="183" y="336" type="line"/>
      <point x="160" y="338"/>
      <point x="133" y="341"/>
    </contour>
  </outline>
</glyph>
<glyph name="greater" format="2">
  <advance width="672"/>
  <unicode hex="003E"/>
  <outline>
    <contour>
      <point x="71" y="-50" type="curve" smooth="yes"/>
      <point x="76" y="-27"/>
      <point x="93" y="-17"/>
      <point x="108" y="-7" type="curve" smooth="yes"/>
      <point x="153" y="23"/>
      <point x="198" y="54"/>
      <point x="244" y="84" type="curve" smooth="yes"/>
      <point x="409" y="193" type="line" smooth="yes"/>
      <point x="446" y="217"/>
      <point x="483" y="241"/>
      <point x="520" y="265" type="curve"/>
      <point x="507" y="277"/>
      <point x="493" y="292"/>
      <point x="482" y="303" type="curve"/>
      <point x="233" y="538" type="line"/>
      <point x="219" y="553"/>
      <point x="213" y="564"/>
      <point x="217" y="582" type="curve" smooth="yes"/>
      <point x="223" y="608"/>
      <point x="251" y="626"/>
      <point x="274" y="626" type="curve" smooth="yes"/>
      <point x="289" y="626"/>
      <point x="294" y="620"/>
      <point x="304" y="611" type="curve"/>
      <point x="618" y="313" type="line"/>
      <point x="648" y="286"/>
      <point x="638" y="273"/>
      <point x="638" y="265" type="curve"/>
      <point x="634" y="249"/>
      <point x="628" y="238"/>
      <point x="597" y="220" type="curve"/>
      <point x="146" y="-80" type="line"/>
      <point x="133" y="-87"/>
      <point x="123" y="-94"/>
      <point x="107" y="-94" type="curve" smooth="yes"/>
      <point x="84" y="-94"/>
      <point x="65" y="-77"/>
    </contour>
  </outline>
</glyph>
<glyph name="question" format="2">
  <advance width="519"/>
  <unicode hex="003F"/>
  <outline>
    <contour>
      <point x="202" y="645" type="line"/>
      <point x="209" y="657" type="line"/>
      <point x="265" y="684"/>
      <point x="325" y="704"/>
      <point x="399" y="706" type="curve"/>
      <point x="526" y="706"/>
      <point x="581" y="674"/>
      <point x="589" y="607" type="curve" smooth="yes"/>
      <point x="597" y="524"/>
      <point x="545" y="460"/>
      <point x="512" y="438" type="curve" smooth="yes"/>
      <point x="489" y="423" type="line"/>
      <point x="379" y="333"/>
      <point x="365" y="282"/>
      <point x="356" y="239" type="curve" smooth="yes"/>
      <point x="350" y="211" type="line"/>
      <point x="229" y="211" type="line"/>
      <point x="251" y="363"/>
      <point x="342" y="446"/>
      <point x="392" y="489" type="curve"/>
      <point x="421" y="518"/>
      <point x="427" y="531"/>
      <point x="434" y="556" type="curve"/>
      <point x="434" y="556"/>
      <point x="434" y="556"/>
      <point x="434" y="556" type="curve"/>
      <point x="434" y="556"/>
      <point x="434" y="556"/>
      <point x="434" y="556" type="curve"/>
      <point x="434" y="556"/>
      <point x="434" y="556"/>
      <point x="434" y="556" type="curve"/>
      <point x="445" y="604"/>
      <point x="432" y="615"/>
      <point x="386" y="615" type="curve" smooth="yes"/>
      <point x="322" y="615"/>
      <point x="264" y="581"/>
      <point x="217" y="537" type="curve"/>
    </contour>
    <contour>
      <point x="167" y="0" type="line"/>
      <point x="201" y="147" type="line"/>
      <point x="348" y="147" type="line"/>
      <point x="314" y="0" type="line"/>
    </contour>
  </outline>
</glyph>
<glyph name="at" format="2">
  <advance width="733"/>
  <unicode hex="0040"/>
  <outline>
    <contour>
      <point x="134" y="346" type="curve" smooth="yes"/>
      <point x="138" y="361"/>
      <point x="141" y="377"/>
      <point x="146" y="392" type="curve" smooth="yes"/>
      <point x="198" y="560"/>
      <point x="315" y="706"/>
      <point x="580" y="706" type="curve" smooth="yes"/>
      <point x="805" y="706"/>
      <point x="796" y="559"/>
      <point x="750" y="360" type="curve" smooth="yes"/>
      <point x="717" y="213"/>
      <point x="625" y="115"/>
      <point x="478" y="115" type="curve" smooth="yes"/>
      <point x="296" y="115"/>
      <point x="288" y="235"/>
      <point x="314" y="349" type="curve" smooth="yes"/>
      <point x="344" y="478"/>
      <point x="418" y="580"/>
      <point x="582" y="580" type="curve"/>
      <point x="597" y="579"/>
      <point x="612" y="577"/>
      <point x="627" y="577" type="curve"/>
      <point x="610" y="606"/>
      <point x="578" y="615"/>
      <point x="556" y="615" type="curve" smooth="yes"/>
      <point x="467" y="615"/>
      <point x="323" y="578"/>
      <point x="270" y="347" type="curve" smooth="yes"/>
      <point x="256" y="288"/>
      <point x="251" y="231"/>
      <point x="265" y="184" type="curve" smooth="yes"/>
      <point x="283" y="122"/>
      <point x="334" y="79"/>
      <point x="439" y="79" type="curve" smooth="yes"/>
      <point x="493" y="79"/>
      <point x="545" y="93"/>
      <point x="571" y="101" type="curve"/>
      <point x="571" y="101"/>
      <point x="571" y="100"/>
      <point x="571" y="100" type="curve"/>
      <point x="604" y="113"/>
      <point x="628" y="107"/>
      <point x="657" y="107" type="curve" smooth="yes"/>
      <point x="706" y="107" type="line"/>
      <point x="627" y="44"/>
      <point x="522" y="-11"/>
      <point x="412" y="-11" type="curve" smooth="yes"/>
      <point x="228" y="-11"/>
      <point x="68" y="61"/>
    </contour>
    <contour>
      <point x="448" y="339" type="curve" smooth="yes"/>
      <point x="444" y="320"/>
      <point x="441" y="303"/>
      <point x="440" y="289" type="curve" smooth="yes"/>
      <point x="435" y="220"/>
      <point x="467" y="204"/>
      <point x="496" y="204" type="curve" smooth="yes"/>
      <point x="519" y="204"/>
      <point x="553" y="216"/>
      <point x="577" y="256" type="curve"/>
      <point x="577" y="256"/>
      <point x="577" y="255"/>
      <point x="577" y="255" type="curve"/>
      <point x="595" y="284"/>
      <point x="603" y="315"/>
      <point x="612" y="354" type="curve" smooth="yes"/>
      <point x="624" y="404"/>
      <point x="622" y="436"/>
      <point x="614" y="456" type="curve" smooth="yes"/>
      <point x="603" y="483"/>
      <point x="581" y="490"/>
      <point x="563" y="490" type="curve" smooth="yes"/>
      <point x="501" y="490"/>
      <point x="468" y="424"/>
    </contour>
  </outline>
</glyph>
<glyph name="A" format="2">
  <advance width="733"/>
  <unicode hex="0041"/>
  <outline>
    <contour>
      <point x="21" y="0" type="line"/>
      <point x="173" y="0" type="line"/>
      <point x="480" y="537" type="line"/>
      <point x="473" y="539" type="line"/>
      <point x="531" y="0" type="line"/>
      <point x="700" y="0" type="line"/>
      <point x="618" y="695" type="line"/>
      <point x="423" y="695" type="line"/>
    </contour>
    <contour>
      <point x="517" y="250" type="line"/>
      <point x="303" y="250" type="line"/>
      <point x="243" y="146" type="line"/>
      <point x="528" y="146" type="line"/>
    </contour>
  </outline>
</glyph>
<glyph name="B" format="2">
  <advance width="733"/>
  <unicode hex="0042"/>
  <outline>
    <contour>
      <point x="84" y="0" type="line"/>
      <point x="244" y="695" type="line"/>
      <point x="500" y="695" type="line" smooth="yes"/>
      <point x="678" y="695"/>
      <point x="760" y="630"/>
      <point x="760" y="543" type="curve" smooth="yes"/>
      <point x="760" y="455"/>
      <point x="691" y="391"/>
      <point x="612" y="364" type="curve"/>
      <point x="662" y="350"/>
      <point x="718" y="318" name=".hr01"/>
      <point x="718" y="242" type="curve" smooth="yes"/>
      <point x="718" y="49"/>
      <point x="521" y="0"/>
      <point x="366" y="0" type="curve" smooth="yes"/>
    </contour>
    <contour>
      <point x="266" y="104" type="line"/>
      <point x="381" y="104" type="line" smooth="yes"/>
      <point x="465" y="104"/>
      <point x="563" y="129"/>
      <point x="563" y="230" type="curve" smooth="yes"/>
      <point x="563" y="294"/>
      <point x="495" y="316"/>
      <point x="432" y="316" type="curve" smooth="yes"/>
      <point x="315" y="316" type="line"/>
    </contour>
    <contour>
      <point x="336" y="406" type="line"/>
      <point x="421" y="406" type="line" smooth="yes"/>
      <point x="497" y="406"/>
      <point x="604" y="426" name=".hr02"/>
      <point x="604" y="524" type="curve" smooth="yes"/>
      <point x="604" y="568"/>
      <point x="570" y="591"/>
      <point x="459" y="591" type="curve" smooth="yes"/>
      <point x="378" y="591" type="line"/>
    </contour>
  </outline>
  <guideline angle="257.209" x="378" y="591"/>
  <guideline angle="0" x="0" y="645"/>
</glyph>
<glyph name="C" format="2">
  <advance width="703"/>
  <unicode hex="0043"/>
  <outline>
    <contour>
      <point x="134" y="346" type="curve" smooth="yes"/>
      <point x="139" y="366"/>
      <point x="143" y="384"/>
      <point x="149" y="402" type="curve" smooth="yes"/>
      <point x="228" y="649"/>
      <point x="402" y="716"/>
      <point x="589" y="716" type="curve" smooth="yes"/>
      <point x="667" y="716"/>
      <point x="721" y="704"/>
      <point x="789" y="678" type="curve"/>
      <point x="729" y="529" type="line"/>
      <point x="689" y="557"/>
      <point x="660" y="599"/>
      <point x="560" y="599" type="curve" smooth="yes"/>
      <point x="403" y="599"/>
      <point x="330" y="488"/>
      <point x="298" y="349" type="curve" smooth="yes"/>
      <point x="284" y="288"/>
      <point x="279" y="231"/>
      <point x="292" y="187" type="curve" smooth="yes"/>
      <point x="309" y="131"/>
      <point x="354" y="95"/>
      <point x="446" y="95" type="curve" smooth="yes"/>
      <point x="479" y="95"/>
      <point x="504" y="98"/>
      <point x="528" y="103" type="curve"/>
      <point x="566" y="113"/>
      <point x="593" y="124"/>
      <point x="631" y="144" type="curve" smooth="yes"/>
      <point x="671" y="166" type="line"/>
      <point x="651" y="36" type="line"/>
      <point x="552" y="-12"/>
      <point x="504" y="-22"/>
      <point x="417" y="-22" type="curve" smooth="yes"/>
      <point x="282" y="-22"/>
      <point x="167" y="15"/>
      <point x="130" y="136" type="curve" smooth="yes"/>
      <point x="114" y="189"/>
      <point x="114" y="258"/>
    </contour>
  </outline>
</glyph>
<glyph name="D" format="2">
  <advance width="794"/>
  <unicode hex="0044"/>
  <outline>
    <contour>
      <point x="85" y="0" type="line"/>
      <point x="245" y="695" type="line"/>
      <point x="536" y="695" type="line" smooth="yes"/>
      <point x="728" y="695"/>
      <point x="872" y="627"/>
      <point x="805" y="340" type="curve" smooth="yes"/>
      <point x="735" y="42"/>
      <point x="539" y="0"/>
      <point x="377" y="0" type="curve" smooth="yes"/>
    </contour>
    <contour>
      <point x="269" y="104" type="line"/>
      <point x="359" y="104" type="line" smooth="yes"/>
      <point x="376" y="104"/>
      <point x="392" y="105"/>
      <point x="407" y="106" type="curve" smooth="yes"/>
      <point x="579" y="123"/>
      <point x="634" y="245"/>
      <point x="654" y="391" type="curve" smooth="yes"/>
      <point x="677" y="580"/>
      <point x="578" y="591"/>
      <point x="480" y="591" type="curve" smooth="yes"/>
      <point x="381" y="591" type="line"/>
    </contour>
  </outline>
</glyph>
<glyph name="F" format="2">
  <advance width="611"/>
  <unicode hex="0046"/>
  <outline>
    <contour>
      <point x="83" y="0" type="line"/>
      <point x="243" y="692" type="line"/>
      <point x="723" y="692" type="line"/>
      <point x="695" y="570" type="line"/>
      <point x="379" y="573" type="line"/>
      <point x="340" y="402" type="line"/>
      <point x="612" y="402" type="line"/>
      <point x="586" y="291" type="line"/>
      <point x="314" y="291" type="line"/>
      <point x="247" y="0" type="line"/>
    </contour>
  </outline>
</glyph>
<glyph name="L" format="2">
  <advance width="581"/>
  <unicode hex="004C"/>
  <outline>
    <contour>
      <point x="83" y="0" type="line"/>
      <point x="243" y="695" type="line"/>
      <point x="406" y="695" type="line"/>
      <point x="273" y="118" type="line"/>
      <point x="561" y="121" type="line"/>
      <point x="533" y="0" type="line"/>
    </contour>
  </outline>
</glyph>
<glyph name="M" format="2">
  <advance width="978"/>
  <unicode hex="004D"/>
  <outline>
    <contour>
      <point x="86" y="0" type="line"/>
      <point x="246" y="695" type="line"/>
      <point x="438" y="695" type="line"/>
      <point x="510" y="273" type="line"/>
      <point x="510" y="273"/>
      <point x="510" y="274"/>
      <point x="510" y="274" type="curve"/>
      <point x="521" y="202"/>
      <point x="525" y="200"/>
      <point x="522" y="185" type="curve"/>
      <point x="530" y="198"/>
      <point x="538" y="212"/>
      <point x="556" y="240" type="curve" smooth="yes"/>
      <point x="843" y="695" type="line"/>
      <point x="1038" y="695" type="line"/>
      <point x="878" y="0" type="line"/>
      <point x="738" y="0" type="line"/>
      <point x="854" y="501" type="line"/>
      <point x="842" y="481"/>
      <point x="827" y="459"/>
      <point x="812" y="435" type="curve" smooth="yes"/>
      <point x="549" y="21" type="line"/>
      <point x="421" y="21" type="line"/>
      <point x="356" y="399" type="line"/>
      <point x="356" y="399"/>
      <point x="356" y="398"/>
      <point x="356" y="398" type="curve"/>
      <point x="343" y="473"/>
      <point x="340" y="465"/>
      <point x="340" y="500" type="curve"/>
      <point x="225" y="0" type="line"/>
    </contour>
  </outline>
</glyph>
<glyph name="Q" format="2">
  <advance width="794"/>
  <unicode hex="0051"/>
  <outline>
    <contour>
      <point x="133" y="342" type="curve" smooth="yes"/>
      <point x="139" y="367"/>
      <point x="145" y="390"/>
      <point x="152" y="412" type="curve" smooth="yes"/>
      <point x="217" y="612"/>
      <point x="346" y="714"/>
      <point x="558" y="716" type="curve"/>
      <point x="827" y="716"/>
      <point x="849" y="533"/>
      <point x="806" y="343" type="curve" smooth="yes"/>
      <point x="770" y="192"/>
      <point x="708" y="92"/>
      <point x="607" y="33" type="curve"/>
      <point x="681" y="-108" type="line"/>
      <point x="488" y="-108" type="line"/>
      <point x="450" y="-17" type="line"/>
      <point x="420" y="-17"/>
      <point x="411" y="-21"/>
      <point x="385" y="-21" type="curve" smooth="yes"/>
      <point x="115" y="-21"/>
      <point x="90" y="155"/>
    </contour>
    <contour>
      <point x="293" y="339" type="curve" smooth="yes"/>
      <point x="290" y="326"/>
      <point x="287" y="312"/>
      <point x="284" y="298" type="curve" smooth="yes"/>
      <point x="265" y="200"/>
      <point x="260" y="94"/>
      <point x="408" y="73" type="curve"/>
      <point x="409" y="74"/>
      <point x="409" y="74"/>
      <point x="410" y="74" type="curve"/>
      <point x="351" y="209" type="line"/>
      <point x="513" y="209" type="line"/>
      <point x="554" y="134" type="line"/>
      <point x="601" y="185"/>
      <point x="621" y="243"/>
      <point x="645" y="342" type="curve" smooth="yes"/>
      <point x="662" y="416"/>
      <point x="673" y="495"/>
      <point x="653" y="549" type="curve" smooth="yes"/>
      <point x="637" y="593"/>
      <point x="602" y="621"/>
      <point x="534" y="621" type="curve" smooth="yes"/>
      <point x="337" y="621"/>
      <point x="300" y="367"/>
    </contour>
  </outline>
</glyph>
<glyph name="R" format="2">
  <advance width="703"/>
  <unicode hex="0052"/>
  <outline>
    <contour>
      <point x="84" y="0" type="line"/>
      <point x="244" y="695" type="line"/>
      <point x="498" y="695" type="line" smooth="yes"/>
      <point x="685" y="695"/>
      <point x="750" y="627"/>
      <point x="757" y="549" type="curve"/>
      <point x="758" y="530"/>
      <point x="756" y="511"/>
      <point x="752" y="493" type="curve" smooth="yes"/>
      <point x="730" y="395"/>
      <point x="660" y="335"/>
      <point x="563" y="315" type="curve"/>
      <point x="598" y="212"/>
      <point x="640" y="101"/>
      <point x="675" y="0" type="curve"/>
      <point x="508" y="0" type="line"/>
      <point x="406" y="302" type="line"/>
      <point x="314" y="302" type="line"/>
      <point x="244" y="0" type="line"/>
    </contour>
    <contour>
      <point x="335" y="393" type="line"/>
      <point x="441" y="393" type="line" smooth="yes"/>
      <point x="523" y="393"/>
      <point x="577" y="407"/>
      <point x="597" y="492" type="curve" smooth="yes"/>
      <point x="616" y="575"/>
      <point x="570" y="591"/>
      <point x="487" y="591" type="curve" smooth="yes"/>
      <point x="380" y="591" type="line"/>
    </contour>
  </outline>
</glyph>
<glyph name="T" format="2">
  <advance width="733"/>
  <unicode hex="0054"/>
  <outline>
    <contour>
      <point x="164" y="568" type="line"/>
      <point x="192" y="689" type="line"/>
      <point x="847" y="689" type="line"/>
      <point x="819" y="568" type="line"/>
      <point x="574" y="571" type="line"/>
      <point x="442" y="0" type="line"/>
      <point x="279" y="0" type="line"/>
      <point x="411" y="571" type="line"/>
    </contour>
  </outline>
</glyph>
<glyph name="U" format="2">
  <advance width="764"/>
  <unicode hex="0055"/>
  <outline>
    <contour>
      <point x="141" y="249" type="curve" smooth="yes"/>
      <point x="244" y="695" type="line"/>
      <point x="407" y="695" type="line"/>
      <point x="301" y="233" type="line" smooth="yes"/>
      <point x="296" y="212"/>
      <point x="292" y="192"/>
      <point x="291" y="174" type="curve" smooth="yes"/>
      <point x="287" y="120"/>
      <point x="307" y="82"/>
      <point x="398" y="82" type="curve"/>
      <point x="398" y="82"/>
      <point x="398" y="82"/>
      <point x="398" y="82" type="curve"/>
      <point x="530" y="82"/>
      <point x="553" y="166"/>
      <point x="569" y="235" type="curve" smooth="yes"/>
      <point x="675" y="695" type="line"/>
      <point x="827" y="695" type="line"/>
      <point x="724" y="245" type="line" smooth="yes"/>
      <point x="690" y="100"/>
      <point x="608" y="-21"/>
      <point x="375" y="-21" type="curve" smooth="yes"/>
      <point x="124" y="-21"/>
      <point x="109" y="108"/>
    </contour>
  </outline>
</glyph>
<glyph name="V" format="2">
  <advance width="733"/>
  <unicode hex="0056"/>
  <outline>
    <contour>
      <point x="166" y="695" type="line"/>
      <point x="223" y="695"/>
      <point x="279" y="695"/>
      <point x="336" y="695" type="curve"/>
      <point x="379" y="382" type="line"/>
      <point x="379" y="382"/>
      <point x="379" y="383"/>
      <point x="379" y="383" type="curve"/>
      <point x="402" y="234"/>
      <point x="406" y="214"/>
      <point x="407" y="166" type="curve"/>
      <point x="462" y="261" type="line"/>
      <point x="473" y="282"/>
      <point x="487" y="303"/>
      <point x="498" y="324" type="curve"/>
      <point x="535" y="386" type="line"/>
      <point x="720" y="695" type="line"/>
      <point x="876" y="695" type="line"/>
      <point x="459" y="0" type="line"/>
      <point x="263" y="0" type="line"/>
    </contour>
  </outline>
</glyph>
<glyph name="X" format="2">
  <advance width="733"/>
  <unicode hex="0058"/>
  <outline>
    <contour>
      <point x="0" y="0" type="line"/>
      <point x="353" y="368" type="line"/>
      <point x="328" y="413" type="line" smooth="yes"/>
      <point x="277" y="505"/>
      <point x="222" y="604"/>
      <point x="176" y="695" type="curve"/>
      <point x="371" y="695" type="line"/>
      <point x="468" y="500" type="line"/>
      <point x="527" y="564"/>
      <point x="591" y="631"/>
      <point x="650" y="695" type="curve"/>
      <point x="837" y="695" type="line"/>
      <point x="793" y="648" type="line" smooth="yes"/>
      <point x="704" y="554"/>
      <point x="614" y="461"/>
      <point x="525" y="367" type="curve"/>
      <point x="549" y="323" type="line" smooth="yes"/>
      <point x="606" y="218"/>
      <point x="666" y="104"/>
      <point x="721" y="0" type="curve"/>
      <point x="525" y="0" type="line"/>
      <point x="410" y="246" type="line"/>
      <point x="387" y="221" type="line" smooth="yes"/>
      <point x="379" y="213"/>
      <point x="372" y="205"/>
      <point x="365" y="197" type="curve" smooth="yes"/>
      <point x="294" y="118" type="line" smooth="yes"/>
      <point x="258" y="79"/>
      <point x="222" y="40"/>
      <point x="187" y="0" type="curve"/>
    </contour>
  </outline>
</glyph>
<glyph name="Y" format="2">
  <advance width="733"/>
  <unicode hex="0059"/>
  <outline>
    <contour>
      <point x="149" y="695" type="line"/>
      <point x="344" y="695" type="line"/>
      <point x="361" y="657" type="line"/>
      <point x="361" y="657"/>
      <point x="361" y="658"/>
      <point x="361" y="658" type="curve"/>
      <point x="380" y="615"/>
      <point x="396" y="581"/>
      <point x="409" y="553" type="curve" smooth="yes"/>
      <point x="440" y="487" type="line" smooth="yes"/>
      <point x="455" y="453"/>
      <point x="462" y="436"/>
      <point x="466" y="422" type="curve"/>
      <point x="514" y="483"/>
      <point x="669" y="640"/>
      <point x="713" y="695" type="curve"/>
      <point x="891" y="695" type="line"/>
      <point x="505" y="277" type="line"/>
      <point x="441" y="0" type="line"/>
      <point x="280" y="0" type="line"/>
      <point x="344" y="277" type="line"/>
    </contour>
  </outline>
</glyph>
<glyph name="bracketleft" format="2">
  <advance width="343"/>
  <unicode hex="005B"/>
  <outline>
    <contour>
      <point x="25" y="-216" type="line"/>
      <point x="248" y="748" type="line"/>
      <point x="494" y="748" type="line"/>
      <point x="473" y="659" type="line"/>
      <point x="376" y="659" type="line"/>
      <point x="195" y="-126" type="line"/>
      <point x="292" y="-126" type="line"/>
      <point x="271" y="-216" type="line"/>
    </contour>
  </outline>
</glyph>
<glyph name="backslash" format="2">
  <advance width="550"/>
  <unicode hex="005C"/>
  <outline>
    <contour>
      <point x="216" y="674" type="curve"/>
      <point x="215" y="676"/>
      <point x="216" y="678"/>
      <point x="215" y="680" type="curve"/>
      <point x="215" y="679"/>
      <point x="215" y="677"/>
      <point x="215" y="676" type="curve"/>
      <point x="206" y="713"/>
      <point x="240" y="748"/>
      <point x="270" y="748" type="curve" smooth="yes"/>
      <point x="295" y="748"/>
      <point x="313" y="721"/>
      <point x="309" y="704" type="curve"/>
      <point x="309" y="704"/>
      <point x="309" y="704"/>
      <point x="309" y="704" type="curve"/>
      <point x="355" y="416"/>
      <point x="402" y="130"/>
      <point x="449" y="-157" type="curve" smooth="yes"/>
      <point x="450" y="-163"/>
      <point x="449" y="-167"/>
      <point x="448" y="-171" type="curve"/>
      <point x="443" y="-194"/>
      <point x="416" y="-216"/>
      <point x="392" y="-216" type="curve" smooth="yes"/>
      <point x="362" y="-216"/>
      <point x="357" y="-189"/>
      <point x="355" y="-168" type="curve"/>
      <point x="355" y="-168"/>
      <point x="355" y="-169"/>
      <point x="355" y="-169" type="curve"/>
      <point x="353" y="-157"/>
      <point x="351" y="-144"/>
      <point x="349" y="-132" type="curve"/>
      <point x="349" y="-132"/>
      <point x="349" y="-132"/>
      <point x="349" y="-132" type="curve"/>
      <point x="349" y="-132"/>
      <point x="349" y="-132"/>
      <point x="349" y="-132" type="curve"/>
      <point x="216" y="674" type="line"/>
      <point x="216" y="674"/>
      <point x="216" y="674"/>
    </contour>
  </outline>
</glyph>
<glyph name="bracketright" format="2">
  <advance width="343"/>
  <unicode hex="005D"/>
  <outline>
    <contour>
      <point x="-13" y="-126" type="line"/>
      <point x="84" y="-126" type="line"/>
      <point x="265" y="659" type="line"/>
      <point x="168" y="659" type="line"/>
      <point x="189" y="748" type="line"/>
      <point x="434" y="748" type="line"/>
      <point x="211" y="-216" type="line"/>
      <point x="-34" y="-216" type="line"/>
    </contour>
  </outline>
</glyph>
<glyph name="asciicircum" format="2">
  <advance width="672"/>
  <unicode hex="005E"/>
  <outline>
    <contour>
      <point x="256" y="459" type="line"/>
      <point x="417" y="622" type="line"/>
      <point x="533" y="622" type="line"/>
      <point x="618" y="459" type="line"/>
      <point x="524" y="459" type="line"/>
      <point x="454" y="539" type="line"/>
      <point x="420" y="513"/>
      <point x="384" y="483"/>
      <point x="350" y="459" type="curve"/>
    </contour>
  </outline>
</glyph>
<glyph name="underscore" format="2">
  <advance width="856"/>
  <unicode hex="005F"/>
  <outline>
    <contour>
      <point x="68" y="-329" type="curve" smooth="yes"/>
      <point x="16" y="-329"/>
      <point x="18" y="-295"/>
      <point x="22" y="-279" type="curve" smooth="yes"/>
      <point x="27" y="-259"/>
      <point x="42" y="-228"/>
      <point x="90" y="-228" type="curve" smooth="yes"/>
      <point x="641" y="-228" type="line"/>
      <point x="641" y="-228"/>
      <point x="641" y="-228"/>
      <point x="641" y="-228" type="curve"/>
      <point x="641" y="-228"/>
      <point x="641" y="-228"/>
      <point x="641" y="-228" type="curve"/>
      <point x="641" y="-228"/>
      <point x="641" y="-228"/>
      <point x="641" y="-228" type="curve"/>
      <point x="641" y="-228"/>
      <point x="641" y="-228"/>
      <point x="641" y="-228" type="curve"/>
      <point x="641" y="-228"/>
      <point x="641" y="-228"/>
      <point x="641" y="-228" type="curve"/>
      <point x="693" y="-228"/>
      <point x="697" y="-257"/>
      <point x="692" y="-279" type="curve" smooth="yes"/>
      <point x="688" y="-298"/>
      <point x="673" y="-329"/>
      <point x="620" y="-329" type="curve" smooth="yes"/>
      <point x="97" y="-329" type="line" smooth="yes"/>
      <point x="87" y="-329"/>
      <point x="78" y="-329"/>
    </contour>
  </outline>
</glyph>
<glyph name="grave" format="2">
  <advance width="550"/>
  <unicode hex="0060"/>
  <outline>
    <contour>
      <point x="324" y="589" type="curve" smooth="yes"/>
      <point x="237" y="681" type="line"/>
      <point x="292" y="681"/>
      <point x="346" y="681"/>
      <point x="401" y="681" type="curve"/>
      <point x="475" y="527" type="line"/>
      <point x="428" y="527" type="line" smooth="yes"/>
      <point x="365" y="527"/>
      <point x="357" y="554"/>
    </contour>
  </outline>
</glyph>
<glyph name="a" format="2">
  <advance width="561"/>
  <unicode hex="0061"/>
  <outline>
    <contour>
      <point x="85" y="238" type="curve" smooth="yes"/>
      <point x="104" y="317"/>
      <point x="136" y="394"/>
      <point x="202" y="444" type="curve"/>
      <point x="240" y="471"/>
      <point x="285" y="483"/>
      <point x="328" y="483" type="curve" smooth="yes"/>
      <point x="342" y="483"/>
      <point x="354" y="482"/>
      <point x="366" y="480" type="curve" smooth="yes"/>
      <point x="401" y="474"/>
      <point x="426" y="460"/>
      <point x="448" y="441" type="curve"/>
      <point x="525" y="456" type="line"/>
      <point x="603" y="472" type="line" name=".hr01"/>
      <point x="494" y="0" type="line"/>
      <point x="343" y="0" type="line"/>
      <point x="347" y="18"/>
      <point x="347" y="18"/>
      <point x="352" y="37" type="curve"/>
      <point x="311" y="7"/>
      <point x="269" y="-11" name=".hr02"/>
      <point x="213" y="-11" type="curve" smooth="yes"/>
      <point x="156" y="-11"/>
      <point x="31" y="11"/>
    </contour>
    <contour>
      <point x="238" y="249" type="curve" smooth="yes"/>
      <point x="230" y="215"/>
      <point x="221" y="178"/>
      <point x="221" y="140" type="curve" smooth="yes"/>
      <point x="221" y="93"/>
      <point x="244" y="78"/>
      <point x="285" y="78" type="curve" smooth="yes"/>
      <point x="377" y="78"/>
      <point x="374" y="133"/>
      <point x="379" y="155" type="curve" smooth="yes"/>
      <point x="392" y="209"/>
      <point x="404" y="263"/>
      <point x="416" y="317" type="curve" smooth="yes"/>
      <point x="420" y="335"/>
      <point x="425" y="353"/>
      <point x="429" y="371" type="curve"/>
      <point x="413" y="387"/>
      <point x="394" y="394"/>
      <point x="370" y="394" type="curve" smooth="yes"/>
      <point x="279" y="394"/>
      <point x="254" y="318"/>
    </contour>
  </outline>
</glyph>
<glyph name="b" format="2">
  <advance width="561"/>
  <unicode hex="0062"/>
  <outline>
    <contour>
      <point x="54" y="0" type="line"/>
      <point x="212" y="686" type="line"/>
      <point x="360" y="686" type="line"/>
      <point x="303" y="437" type="line"/>
      <point x="345" y="463"/>
      <point x="397" y="483"/>
      <point x="458" y="483" type="curve" smooth="yes"/>
      <point x="555" y="483"/>
      <point x="591" y="418"/>
      <point x="585" y="324" type="curve" smooth="yes"/>
      <point x="574" y="173"/>
      <point x="501" y="-11" name=".hr01"/>
      <point x="315" y="-11" type="curve" smooth="yes"/>
      <point x="264" y="-11"/>
      <point x="235" y="4"/>
      <point x="211" y="30" type="curve"/>
      <point x="204" y="0" type="line" name=".hr02"/>
    </contour>
    <contour>
      <point x="277" y="318" type="curve"/>
      <point x="243" y="171" type="line"/>
      <point x="229" y="126"/>
      <point x="212" y="79"/>
      <point x="287" y="79" type="curve" smooth="yes"/>
      <point x="395" y="79"/>
      <point x="425" y="205"/>
      <point x="435" y="298" type="curve" smooth="yes"/>
      <point x="442" y="362"/>
      <point x="429" y="393"/>
      <point x="355" y="393" type="curve"/>
      <point x="315" y="388"/>
      <point x="288" y="379"/>
    </contour>
  </outline>
</glyph>
<glyph name="c" format="2">
  <advance width="489"/>
  <unicode hex="0063"/>
  <outline>
    <contour>
      <point x="85" y="237" type="curve" smooth="yes"/>
      <point x="120" y="388"/>
      <point x="216" y="488"/>
      <point x="386" y="488" type="curve" smooth="yes"/>
      <point x="461" y="488"/>
      <point x="493" y="479"/>
      <point x="550" y="443" type="curve"/>
      <point x="506" y="330" type="line"/>
      <point x="481" y="357"/>
      <point x="441" y="394"/>
      <point x="365" y="394" type="curve" smooth="yes"/>
      <point x="276" y="394"/>
      <point x="256" y="320"/>
      <point x="240" y="256" type="curve" smooth="yes"/>
      <point x="228" y="205"/>
      <point x="220" y="163"/>
      <point x="225" y="132" type="curve" smooth="yes"/>
      <point x="230" y="101"/>
      <point x="248" y="83"/>
      <point x="291" y="83" type="curve" smooth="yes"/>
      <point x="319" y="83"/>
      <point x="346" y="89"/>
      <point x="370" y="97" type="curve" smooth="yes"/>
      <point x="416" y="112"/>
      <point x="458" y="140"/>
      <point x="480" y="156" type="curve"/>
      <point x="462" y="37" type="line"/>
      <point x="395" y="5"/>
      <point x="338" y="-11"/>
      <point x="266" y="-11" type="curve" smooth="yes"/>
      <point x="75" y="-11"/>
      <point x="55" y="106"/>
    </contour>
  </outline>
</glyph>
<glyph name="d" format="2">
  <advance width="561"/>
  <unicode hex="0064"/>
  <outline>
    <contour>
      <point x="73" y="124" type="curve" smooth="yes"/>
      <point x="63" y="283"/>
      <point x="175" y="519"/>
      <point x="378" y="478" type="curve"/>
      <point x="407" y="471"/>
      <point x="429" y="458"/>
      <point x="448" y="441" type="curve"/>
      <point x="504" y="686" type="line"/>
      <point x="652" y="686" type="line"/>
      <point x="494" y="0" type="line"/>
      <point x="343" y="0" type="line"/>
      <point x="352" y="37" type="line"/>
      <point x="311" y="7"/>
      <point x="269" y="-11" name=".hr01"/>
      <point x="213" y="-11" type="curve" smooth="yes"/>
      <point x="169" y="-11"/>
      <point x="80" y="3"/>
    </contour>
    <contour>
      <point x="370" y="394" type="curve" smooth="yes"/>
      <point x="255" y="394"/>
      <point x="224" y="251"/>
      <point x="221" y="157" type="curve"/>
      <point x="221" y="113"/>
      <point x="230" y="78"/>
      <point x="285" y="78" type="curve" smooth="yes"/>
      <point x="355" y="78"/>
      <point x="374" y="133"/>
      <point x="379" y="155" type="curve" smooth="yes"/>
      <point x="429" y="371" type="line"/>
      <point x="413" y="387"/>
      <point x="394" y="394"/>
    </contour>
  </outline>
</glyph>
<glyph name="f" format="2">
  <advance width="336"/>
  <unicode hex="0066"/>
  <outline>
    <contour>
      <point x="112" y="384" type="line"/>
      <point x="132" y="472" type="line"/>
      <point x="186" y="472" type="line"/>
      <point x="199" y="528" type="line" smooth="yes"/>
      <point x="205" y="554"/>
      <point x="213" y="575"/>
      <point x="224" y="594" type="curve" smooth="yes"/>
      <point x="269" y="672"/>
      <point x="347" y="696"/>
      <point x="441" y="696" type="curve" smooth="yes"/>
      <point x="475" y="696"/>
      <point x="497" y="693"/>
      <point x="537" y="684" type="curve"/>
      <point x="508" y="558" type="line"/>
      <point x="491" y="578"/>
      <point x="475" y="593"/>
      <point x="455" y="601" type="curve" smooth="yes"/>
      <point x="445" y="605"/>
      <point x="433" y="607"/>
      <point x="420" y="607" type="curve" smooth="yes"/>
      <point x="352" y="607"/>
      <point x="351" y="560"/>
      <point x="343" y="527" type="curve" smooth="yes"/>
      <point x="330" y="472" type="line"/>
      <point x="425" y="472" type="line"/>
      <point x="405" y="384" type="line"/>
      <point x="313" y="384" type="line"/>
      <point x="224" y="0" type="line"/>
      <point x="77" y="0" type="line"/>
      <point x="166" y="384" type="line"/>
    </contour>
  </outline>
</glyph>
<glyph name="g" format="2">
  <advance width="561"/>
  <unicode hex="0067"/>
  <outline>
    <contour>
      <point x="230" y="23" type="curve" smooth="yes"/>
      <point x="75" y="23"/>
      <point x="50" y="140"/>
      <point x="93" y="270" type="curve" smooth="yes"/>
      <point x="121" y="357"/>
      <point x="228" y="531"/>
      <point x="390" y="477" type="curve" smooth="yes"/>
      <point x="415" y="469"/>
      <point x="432" y="453"/>
      <point x="446" y="434" type="curve"/>
      <point x="458" y="483" type="line"/>
      <point x="606" y="483" type="line"/>
      <point x="502" y="33" type="line" smooth="yes"/>
      <point x="475" y="-92"/>
      <point x="381" y="-182"/>
      <point x="227" y="-182" type="curve" smooth="yes"/>
      <point x="145" y="-182"/>
      <point x="96" y="-165"/>
      <point x="39" y="-130" type="curve"/>
      <point x="65" y="-16" type="line"/>
      <point x="111" y="-58"/>
      <point x="155" y="-93"/>
      <point x="243" y="-93" type="curve" smooth="yes"/>
      <point x="326" y="-93"/>
      <point x="338" y="-17"/>
      <point x="349" y="26" type="curve"/>
      <point x="363" y="88" type="line"/>
      <point x="331" y="52"/>
      <point x="286" y="23"/>
    </contour>
    <contour>
      <point x="370" y="394" type="curve" smooth="yes"/>
      <point x="283" y="394" name=".hr01"/>
      <point x="243" y="291"/>
      <point x="232" y="217" type="curve"/>
      <point x="221" y="160"/>
      <point x="238" y="93"/>
      <point x="313" y="115" type="curve" smooth="yes"/>
      <point x="364" y="131"/>
      <point x="395" y="213"/>
      <point x="403" y="249" type="curve" smooth="yes"/>
      <point x="418" y="310" type="line"/>
      <point x="419" y="316"/>
      <point x="427" y="338"/>
      <point x="424" y="357" type="curve" smooth="yes"/>
      <point x="421" y="376"/>
      <point x="408" y="394"/>
    </contour>
  </outline>
</glyph>
<glyph name="i" format="2">
  <advance width="256"/>
  <unicode hex="0069"/>
  <outline>
    <contour>
      <point x="51" y="0" type="line"/>
      <point x="160" y="472" type="line"/>
      <point x="307" y="472" type="line"/>
      <point x="198" y="0" type="line"/>
    </contour>
    <contour>
      <point x="178" y="550" type="line"/>
      <point x="209" y="686" type="line"/>
      <point x="356" y="686" type="line"/>
      <point x="325" y="550" type="line"/>
    </contour>
  </outline>
</glyph>
<glyph name="j" format="2">
  <advance width="286"/>
  <unicode hex="006A"/>
  <outline>
    <contour>
      <point x="-109" y="-137" type="curve"/>
      <point x="-64" y="-50" type="line"/>
      <point x="-35" y="-64"/>
      <point x="-16" y="-70"/>
      <point x="11" y="-70" type="curve" smooth="yes"/>
      <point x="56" y="-70"/>
      <point x="66" y="-59"/>
      <point x="70" y="-43" type="curve" smooth="yes"/>
      <point x="189" y="472" type="line"/>
      <point x="337" y="472" type="line"/>
      <point x="223" y="-23" type="line"/>
      <point x="202" y="-94"/>
      <point x="182" y="-171"/>
      <point x="38" y="-171" type="curve" smooth="yes"/>
      <point x="-19" y="-171"/>
      <point x="-67" y="-156"/>
    </contour>
    <contour>
      <point x="207" y="550" type="line"/>
      <point x="238" y="686" type="line"/>
      <point x="386" y="686" type="line"/>
      <point x="355" y="550" type="line"/>
    </contour>
  </outline>
</glyph>
<glyph name="l" format="2">
  <advance width="256"/>
  <unicode hex="006C"/>
  <outline>
    <contour>
      <point x="51" y="0" type="line"/>
      <point x="209" y="686" type="line"/>
      <point x="356" y="686" type="line"/>
      <point x="198" y="0" type="line"/>
    </contour>
  </outline>
</glyph>
<glyph name="m" format="2">
  <advance width="867"/>
  <unicode hex="006D"/>
  <outline>
    <contour>
      <point x="56" y="0" type="line"/>
      <point x="166" y="478" type="line"/>
      <point x="311" y="478" type="line"/>
      <point x="294" y="403" type="line"/>
      <point x="325" y="434"/>
      <point x="363" y="466"/>
      <point x="417" y="478" type="curve" smooth="yes"/>
      <point x="430" y="481"/>
      <point x="445" y="483" name=".hr01"/>
      <point x="460" y="483" type="curve" smooth="yes"/>
      <point x="562" y="483"/>
      <point x="578" y="442"/>
      <point x="582" y="399" type="curve"/>
      <point x="615" y="437"/>
      <point x="672" y="484" name=".hr02"/>
      <point x="753" y="484" type="curve" smooth="yes"/>
      <point x="845" y="484"/>
      <point x="878" y="447"/>
      <point x="878" y="396" type="curve" smooth="yes"/>
      <point x="878" y="364"/>
      <point x="859" y="319"/>
      <point x="859" y="291" type="curve"/>
      <point x="792" y="0" type="line"/>
      <point x="642" y="0" type="line"/>
      <point x="717" y="323" type="line" smooth="yes"/>
      <point x="726" y="364"/>
      <point x="724" y="394"/>
      <point x="677" y="394" type="curve" smooth="yes"/>
      <point x="619" y="394"/>
      <point x="580" y="332"/>
      <point x="565" y="288" type="curve"/>
      <point x="499" y="0" type="line"/>
      <point x="348" y="0" type="line"/>
      <point x="423" y="323" type="line" smooth="yes"/>
      <point x="432" y="364"/>
      <point x="432" y="394"/>
      <point x="384" y="394" type="curve" smooth="yes"/>
      <point x="326" y="394"/>
      <point x="287" y="332"/>
      <point x="272" y="288" type="curve"/>
      <point x="272" y="288"/>
      <point x="272" y="288"/>
      <point x="272" y="288" type="curve"/>
      <point x="206" y="0" type="line"/>
    </contour>
  </outline>
</glyph>
<glyph name="q" format="2">
  <advance width="561"/>
  <unicode hex="0071"/>
  <outline>
    <contour>
      <point x="84" y="235" type="curve" smooth="yes"/>
      <point x="88" y="253"/>
      <point x="93" y="269"/>
      <point x="98" y="285" type="curve" smooth="yes"/>
      <point x="145" y="426"/>
      <point x="232" y="483"/>
      <point x="342" y="483" type="curve" smooth="yes"/>
      <point x="379" y="483"/>
      <point x="405" y="470"/>
      <point x="424" y="455" type="curve"/>
      <point x="433" y="447"/>
      <point x="441" y="439"/>
      <point x="446" y="432" type="curve"/>
      <point x="458" y="483" type="line"/>
      <point x="606" y="483" type="line"/>
      <point x="457" y="-160" type="line"/>
      <point x="306" y="-160" type="line"/>
      <point x="336" y="-29" type="line"/>
      <point x="336" y="-29"/>
      <point x="336" y="-29"/>
      <point x="336" y="-29" type="curve"/>
      <point x="351" y="36" type="line"/>
      <point x="312" y="9"/>
      <point x="261" y="-11"/>
      <point x="215" y="-11" type="curve" smooth="yes"/>
      <point x="61" y="-11"/>
      <point x="60" y="135"/>
    </contour>
    <contour>
      <point x="235" y="235" type="curve" smooth="yes"/>
      <point x="229" y="206" type="line" smooth="yes"/>
      <point x="217" y="140"/>
      <point x="221" y="79"/>
      <point x="287" y="79" type="curve" smooth="yes"/>
      <point x="296" y="79"/>
      <point x="304" y="79"/>
      <point x="312" y="81" type="curve"/>
      <point x="364" y="92"/>
      <point x="376" y="133"/>
      <point x="389" y="184" type="curve"/>
      <point x="416" y="306" type="line"/>
      <point x="418" y="314"/>
      <point x="420" y="322"/>
      <point x="422" y="330" type="curve"/>
      <point x="428" y="362"/>
      <point x="403" y="389"/>
      <point x="368" y="389" type="curve" smooth="yes"/>
      <point x="322" y="389"/>
      <point x="261" y="354"/>
    </contour>
  </outline>
</glyph>
<glyph name="r" format="2">
  <advance width="372"/>
  <unicode hex="0072"/>
  <outline>
    <contour>
      <point x="52" y="0" type="line"/>
      <point x="162" y="478" type="line"/>
      <point x="304" y="478" type="line"/>
      <point x="294" y="434" type="line"/>
      <point x="294" y="434"/>
      <point x="294" y="434"/>
      <point x="294" y="434" type="curve"/>
      <point x="284" y="390" type="line"/>
      <point x="321" y="437"/>
      <point x="387" y="481"/>
      <point x="467" y="483" type="curve" name=".hr01"/>
      <point x="439" y="366" type="line"/>
      <point x="332" y="364"/>
      <point x="273" y="300"/>
      <point x="260" y="258" type="curve"/>
      <point x="200" y="0" type="line"/>
    </contour>
  </outline>
</glyph>
<glyph name="t" format="2">
  <advance width="404"/>
  <unicode hex="0074"/>
  <outline>
    <contour>
      <point x="103" y="384" type="line"/>
      <point x="123" y="472" type="line"/>
      <point x="190" y="472" type="line"/>
      <point x="220" y="602" type="line"/>
      <point x="362" y="602" type="line"/>
      <point x="332" y="472" type="line"/>
      <point x="463" y="472" type="line"/>
      <point x="443" y="384" type="line"/>
      <point x="312" y="384" type="line"/>
      <point x="260" y="161" type="line" smooth="yes"/>
      <point x="249" y="112"/>
      <point x="249" y="83"/>
      <point x="282" y="83" type="curve" smooth="yes"/>
      <point x="301" y="83"/>
      <point x="315" y="87"/>
      <point x="327" y="92" type="curve" smooth="yes"/>
      <point x="350" y="102"/>
      <point x="362" y="118"/>
      <point x="379" y="118" type="curve"/>
      <point x="380" y="91"/>
      <point x="380" y="63"/>
      <point x="381" y="36" type="curve"/>
      <point x="317" y="9"/>
      <point x="252" y="-11"/>
      <point x="180" y="-11" type="curve" smooth="yes"/>
      <point x="77" y="-11"/>
      <point x="100" y="92"/>
      <point x="112" y="146" type="curve" smooth="yes"/>
      <point x="167" y="384" type="line"/>
    </contour>
  </outline>
</glyph>
<glyph name="v" format="2">
  <advance width="500"/>
  <unicode hex="0076"/>
  <outline>
    <contour>
      <point x="115" y="472" type="line"/>
      <point x="255" y="472" type="line"/>
      <point x="282" y="156" type="line"/>
      <point x="455" y="472" type="line"/>
      <point x="592" y="472" type="line"/>
      <point x="334" y="0" type="line"/>
      <point x="155" y="0" type="line"/>
    </contour>
  </outline>
</glyph>
<glyph name="w" format="2">
  <advance width="744"/>
  <unicode hex="0077"/>
  <outline>
    <contour>
      <point x="118" y="472" type="line"/>
      <point x="256" y="472" type="line"/>
      <point x="260" y="373"/>
      <point x="265" y="275"/>
      <point x="269" y="176" type="curve"/>
      <point x="317" y="275"/>
      <point x="367" y="373"/>
      <point x="417" y="472" type="curve"/>
      <point x="523" y="472" type="line"/>
      <point x="528" y="368"/>
      <point x="532" y="264"/>
      <point x="537" y="160" type="curve"/>
      <point x="568" y="222" type="line"/>
      <point x="568" y="222"/>
      <point x="568" y="222"/>
      <point x="568" y="222" type="curve"/>
      <point x="693" y="472" type="line"/>
      <point x="829" y="472" type="line"/>
      <point x="591" y="0" type="line"/>
      <point x="413" y="0" type="line"/>
      <point x="408" y="127"/>
      <point x="396" y="201"/>
      <point x="407" y="268" type="curve"/>
      <point x="373" y="191"/>
      <point x="315" y="77"/>
      <point x="277" y="0" type="curve"/>
      <point x="137" y="0" type="line"/>
    </contour>
  </outline>
</glyph>
<glyph name="z" format="2">
  <advance width="476"/>
  <unicode hex="007A"/>
  <outline>
    <contour>
      <point x="24" y="0" type="line"/>
      <point x="38" y="59" type="line"/>
      <point x="351" y="388" type="line"/>
      <point x="276" y="388"/>
      <point x="201" y="386"/>
      <point x="127" y="386" type="curve"/>
      <point x="147" y="472" type="line"/>
      <point x="545" y="472" type="line"/>
      <point x="532" y="416" type="line"/>
      <point x="222" y="90" type="line"/>
      <point x="298" y="90"/>
      <point x="384" y="92"/>
      <point x="459" y="92" type="curve"/>
      <point x="438" y="0" type="line"/>
    </contour>
  </outline>
</glyph>
<glyph name="braceleft" format="2">
  <advance width="550"/>
  <unicode hex="007B"/>
  <outline>
    <contour>
      <point x="99" y="221" type="curve"/>
      <point x="120" y="311" type="line"/>
      <point x="218" y="311"/>
      <point x="280" y="365"/>
      <point x="293" y="424" type="curve" smooth="yes"/>
      <point x="338" y="621" type="line"/>
      <point x="350" y="695"/>
      <point x="428" y="748"/>
      <point x="625" y="748" type="curve" smooth="yes"/>
      <point x="668" y="748" type="line"/>
      <point x="647" y="659" type="line"/>
      <point x="618" y="659" type="line" smooth="yes"/>
      <point x="484" y="659"/>
      <point x="493" y="634"/>
      <point x="484" y="595" type="curve" smooth="yes"/>
      <point x="445" y="424" type="line" smooth="yes"/>
      <point x="443" y="415"/>
      <point x="441" y="407"/>
      <point x="438" y="399" type="curve" smooth="yes"/>
      <point x="412" y="329"/>
      <point x="342" y="283"/>
      <point x="271" y="266" type="curve"/>
      <point x="356" y="243"/>
      <point x="390" y="185"/>
      <point x="372" y="108" type="curve" smooth="yes"/>
      <point x="327" y="-86" type="line"/>
      <point x="320" y="-123"/>
      <point x="352" y="-126"/>
      <point x="466" y="-126" type="curve"/>
      <point x="445" y="-216" type="line"/>
      <point x="380" y="-216" type="line" smooth="yes"/>
      <point x="295" y="-216"/>
      <point x="160" y="-208"/>
      <point x="170" y="-108" type="curve"/>
      <point x="222" y="118" type="line"/>
      <point x="222" y="118"/>
      <point x="222" y="118"/>
      <point x="222" y="118" type="curve"/>
      <point x="223" y="128"/>
      <point x="224" y="137"/>
      <point x="223" y="145" type="curve" smooth="yes"/>
      <point x="217" y="196"/>
      <point x="168" y="221"/>
    </contour>
  </outline>
</glyph>
<glyph name="bar" format="2">
  <advance width="306"/>
  <unicode hex="007C"/>
  <outline>
    <contour>
      <point x="63" y="-158" type="curve" smooth="yes"/>
      <point x="259" y="691" type="line" smooth="yes"/>
      <point x="271" y="741"/>
      <point x="309" y="748"/>
      <point x="323" y="748" type="curve" smooth="yes"/>
      <point x="342" y="748"/>
      <point x="369" y="740"/>
      <point x="357" y="686" type="curve" smooth="yes"/>
      <point x="160" y="-170" type="line"/>
      <point x="152" y="-196"/>
      <point x="124" y="-216"/>
      <point x="100" y="-216" type="curve" smooth="yes"/>
      <point x="81" y="-216"/>
      <point x="52" y="-205"/>
    </contour>
  </outline>
</glyph>
<glyph name="braceright" format="2">
  <advance width="550"/>
  <unicode hex="007D"/>
  <outline>
    <contour>
      <point x="19" y="-126" type="line"/>
      <point x="48" y="-126" type="line" smooth="yes"/>
      <point x="195" y="-126"/>
      <point x="173" y="-94"/>
      <point x="185" y="-43" type="curve" smooth="yes"/>
      <point x="220" y="109" type="line" smooth="yes"/>
      <point x="224" y="126"/>
      <point x="228" y="145"/>
      <point x="241" y="165" type="curve"/>
      <point x="241" y="165"/>
      <point x="241" y="164"/>
      <point x="241" y="164" type="curve"/>
      <point x="267" y="210"/>
      <point x="317" y="243"/>
      <point x="369" y="260" type="curve"/>
      <point x="369" y="260"/>
      <point x="369" y="260"/>
      <point x="369" y="260" type="curve"/>
      <point x="369" y="260"/>
      <point x="369" y="260"/>
      <point x="369" y="260" type="curve"/>
      <point x="369" y="260"/>
      <point x="369" y="260"/>
      <point x="369" y="260" type="curve"/>
      <point x="392" y="266" type="line"/>
      <point x="337" y="280"/>
      <point x="295" y="317"/>
      <point x="288" y="368" type="curve"/>
      <point x="288" y="368"/>
      <point x="288" y="367"/>
      <point x="288" y="367" type="curve"/>
      <point x="285" y="387"/>
      <point x="288" y="403"/>
      <point x="293" y="424" type="curve" smooth="yes"/>
      <point x="329" y="580" type="line" smooth="yes"/>
      <point x="332" y="594"/>
      <point x="336" y="605"/>
      <point x="338" y="615" type="curve" smooth="yes"/>
      <point x="343" y="638"/>
      <point x="334" y="645"/>
      <point x="311" y="652" type="curve" smooth="yes"/>
      <point x="290" y="658"/>
      <point x="253" y="659"/>
      <point x="200" y="659" type="curve"/>
      <point x="221" y="748" type="line"/>
      <point x="287" y="748" type="line" smooth="yes"/>
      <point x="354" y="748"/>
      <point x="519" y="748"/>
      <point x="489" y="616" type="curve" smooth="yes"/>
      <point x="443" y="415" type="line"/>
      <point x="441" y="401"/>
      <point x="439" y="392"/>
      <point x="442" y="380" type="curve"/>
      <point x="444" y="359"/>
      <point x="471" y="311"/>
      <point x="567" y="311" type="curve"/>
      <point x="546" y="221" type="line"/>
      <point x="479" y="221"/>
      <point x="438" y="204"/>
      <point x="413" y="183" type="curve" smooth="yes"/>
      <point x="349" y="131"/>
      <point x="370" y="97"/>
      <point x="369" y="94" type="curve" smooth="yes"/>
      <point x="326" y="-89" type="line" smooth="yes"/>
      <point x="324" y="-99"/>
      <point x="321" y="-109"/>
      <point x="316" y="-118" type="curve" smooth="yes"/>
      <point x="285" y="-180"/>
      <point x="206" y="-216"/>
      <point x="41" y="-216" type="curve" smooth="yes"/>
      <point x="-2" y="-216" type="line"/>
    </contour>
  </outline>
</glyph>
<glyph name="asciitilde" format="2">
  <advance width="672"/>
  <unicode hex="007E"/>
  <outline>
    <contour>
      <point x="220" y="550" type="line"/>
      <point x="217" y="553"/>
      <point x="215" y="557"/>
      <point x="212" y="560" type="curve"/>
      <point x="234" y="643"/>
      <point x="313" y="695"/>
      <point x="392" y="695" type="curve" smooth="yes"/>
      <point x="488" y="695"/>
      <point x="523" y="640"/>
      <point x="579" y="640" type="curve" smooth="yes"/>
      <point x="593" y="640"/>
      <point x="632" y="647"/>
      <point x="649" y="695" type="curve"/>
      <point x="737" y="695" type="line"/>
      <point x="715" y="612"/>
      <point x="647" y="559"/>
      <point x="576" y="551" type="curve" smooth="yes"/>
      <point x="569" y="550"/>
      <point x="562" y="550"/>
      <point x="555" y="550" type="curve" smooth="yes"/>
      <point x="461" y="550"/>
      <point x="426" y="604"/>
      <point x="369" y="604" type="curve" smooth="yes"/>
      <point x="354" y="604"/>
      <point x="315" y="596"/>
      <point x="300" y="550" type="curve"/>
    </contour>
  </outline>
</glyph>
<glyph name="exclamdown" format="2">
  <advance width="367"/>
  <unicode hex="00A1"/>
  <outline>
    <contour>
      <point x="70" y="-162" type="line"/>
      <point x="173" y="241" type="line"/>
      <point x="183" y="281" type="line" smooth="yes"/>
      <point x="186" y="294"/>
      <point x="189" y="308"/>
      <point x="193" y="322" type="curve"/>
      <point x="315" y="322" type="line"/>
      <point x="216" y="-162" type="line"/>
    </contour>
    <contour>
      <point x="196" y="386" type="line"/>
      <point x="230" y="533" type="line"/>
      <point x="376" y="533" type="line"/>
      <point x="342" y="386" type="line"/>
    </contour>
  </outline>
</glyph>
<glyph name="cent" format="2">
  <advance width="550"/>
  <unicode hex="00A2"/>
  <outline>
    <contour>
      <point x="84" y="239" type="curve" smooth="yes"/>
      <point x="88" y="256"/>
      <point x="93" y="272"/>
      <point x="98" y="287" type="curve" smooth="yes"/>
      <point x="152" y="435"/>
      <point x="279" y="482"/>
      <point x="370" y="494" type="curve"/>
      <point x="386" y="565" type="line"/>
      <point x="475" y="565" type="line"/>
      <point x="459" y="495" type="line"/>
      <point x="524" y="490"/>
      <point x="551" y="480"/>
      <point x="617" y="449" type="curve"/>
      <point x="571" y="335" type="line"/>
      <point x="515" y="378"/>
      <point x="495" y="394"/>
      <point x="437" y="398" type="curve"/>
      <point x="365" y="86" type="line"/>
      <point x="423" y="97"/>
      <point x="468" y="113"/>
      <point x="544" y="156" type="curve"/>
      <point x="526" y="38" type="line"/>
      <point x="435" y="1"/>
      <point x="385" y="-5"/>
      <point x="343" y="-9" type="curve"/>
      <point x="326" y="-81" type="line"/>
      <point x="237" y="-81" type="line"/>
      <point x="254" y="-9" type="line"/>
      <point x="150" y="4"/>
      <point x="39" y="50"/>
    </contour>
    <contour>
      <point x="234" y="224" type="curve"/>
      <point x="232" y="213"/>
      <point x="229" y="201"/>
      <point x="228" y="190" type="curve" smooth="yes"/>
      <point x="224" y="147"/>
      <point x="231" y="106"/>
      <point x="277" y="90" type="curve"/>
      <point x="347" y="394" type="line"/>
      <point x="240" y="360"/>
      <point x="233" y="221"/>
    </contour>
  </outline>
</glyph>
<glyph name="sterling" format="2">
  <advance width="703"/>
  <unicode hex="00A3"/>
  <outline>
    <contour>
      <point x="68" y="61" type="curve"/>
      <point x="69" y="67"/>
      <point x="72" y="72"/>
      <point x="74" y="77" type="curve"/>
      <point x="94" y="123"/>
      <point x="146" y="148"/>
      <point x="216" y="154" type="curve"/>
      <point x="231" y="156"/>
      <point x="246" y="155"/>
      <point x="261" y="155" type="curve"/>
      <point x="265" y="174"/>
      <point x="270" y="192"/>
      <point x="274" y="211" type="curve" smooth="yes"/>
      <point x="295" y="302" type="line"/>
      <point x="242" y="302" type="line"/>
      <point x="263" y="393" type="line"/>
      <point x="316" y="393" type="line"/>
      <point x="342" y="507" type="line" smooth="yes"/>
      <point x="345" y="519"/>
      <point x="348" y="532"/>
      <point x="352" y="544" type="curve"/>
      <point x="385" y="654"/>
      <point x="457" y="741"/>
      <point x="616" y="741" type="curve" smooth="yes"/>
      <point x="702" y="741"/>
      <point x="744" y="690"/>
      <point x="758" y="624" type="curve" smooth="yes"/>
      <point x="764" y="596"/>
      <point x="765" y="567"/>
      <point x="761" y="540" type="curve" smooth="yes"/>
      <point x="750" y="464"/>
      <point x="701" y="455"/>
      <point x="677" y="452" type="curve"/>
      <point x="654" y="456"/>
      <point x="634" y="464"/>
      <point x="628" y="483" type="curve" smooth="yes"/>
      <point x="626" y="489"/>
      <point x="626" y="497"/>
      <point x="627" y="506" type="curve"/>
      <point x="627" y="618"/>
      <point x="627" y="650"/>
      <point x="595" y="650" type="curve" smooth="yes"/>
      <point x="528" y="650"/>
      <point x="500" y="530"/>
      <point x="499" y="527" type="curve"/>
      <point x="498" y="521"/>
      <point x="496" y="514"/>
      <point x="495" y="508" type="curve"/>
      <point x="468" y="393" type="line"/>
      <point x="551" y="393" type="line"/>
      <point x="530" y="302" type="line"/>
      <point x="447" y="302" type="line"/>
      <point x="425" y="206" type="line"/>
      <point x="425" y="206"/>
      <point x="425" y="206"/>
      <point x="425" y="206" type="curve"/>
      <point x="425" y="206"/>
      <point x="425" y="206"/>
      <point x="425" y="206" type="curve"/>
      <point x="415" y="166" type="line" smooth="yes"/>
      <point x="412" y="154"/>
      <point x="408" y="139"/>
      <point x="406" y="127" type="curve"/>
      <point x="426" y="122" type="line" smooth="yes"/>
      <point x="439" y="119"/>
      <point x="452" y="115"/>
      <point x="465" y="112" type="curve" smooth="yes"/>
      <point x="491" y="106"/>
      <point x="516" y="101"/>
      <point x="543" y="99" type="curve" smooth="yes"/>
      <point x="575" y="97"/>
      <point x="585" y="125"/>
      <point x="593" y="155" type="curve"/>
      <point x="703" y="155" type="line"/>
      <point x="676" y="55"/>
      <point x="586" y="-3"/>
      <point x="497" y="-10" type="curve"/>
      <point x="490" y="-11"/>
      <point x="484" y="-11"/>
      <point x="477" y="-11" type="curve" smooth="yes"/>
      <point x="436" y="-11"/>
      <point x="386" y="0"/>
      <point x="350" y="9" type="curve" smooth="yes"/>
      <point x="305" y="21" type="line"/>
      <point x="282" y="10"/>
      <point x="236" y="-11"/>
      <point x="155" y="-11" type="curve" smooth="yes"/>
      <point x="92" y="-11"/>
      <point x="58" y="18"/>
    </contour>
    <contour>
      <point x="185" y="71" type="curve"/>
      <point x="182" y="60"/>
      <point x="196" y="59"/>
      <point x="215" y="59" type="curve" smooth="yes" name=".hr01"/>
      <point x="224" y="59"/>
      <point x="255" y="67"/>
      <point x="277" y="77" type="curve"/>
      <point x="293" y="85" type="line"/>
      <point x="268" y="88"/>
      <point x="243" y="91"/>
      <point x="228" y="92" type="curve"/>
      <point x="210" y="92"/>
      <point x="191" y="88"/>
    </contour>
  </outline>
</glyph>
<glyph name="currency" format="2">
  <advance width="808"/>
  <unicode hex="00A4"/>
  <outline>
    <contour>
      <point x="26" y="-14" type="curve" smooth="yes"/>
      <point x="31" y="8"/>
      <point x="44" y="17"/>
      <point x="65" y="35" type="curve"/>
      <point x="65" y="35"/>
      <point x="65" y="35"/>
      <point x="65" y="35" type="curve"/>
      <point x="65" y="35"/>
      <point x="65" y="35"/>
      <point x="65" y="35" type="curve"/>
      <point x="142" y="99" type="line" smooth="yes"/>
      <point x="146" y="103"/>
      <point x="151" y="106"/>
      <point x="156" y="110" type="curve"/>
      <point x="145" y="138"/>
      <point x="127" y="195"/>
      <point x="152" y="305" type="curve" smooth="yes"/>
      <point x="177" y="414"/>
      <point x="222" y="471"/>
      <point x="246" y="500" type="curve"/>
      <point x="214" y="534"/>
      <point x="196" y="559"/>
      <point x="185" y="577" type="curve" smooth="yes"/>
      <point x="172" y="599"/>
      <point x="171" y="611"/>
      <point x="173" y="623" type="curve" smooth="yes"/>
      <point x="177" y="645"/>
      <point x="197" y="663"/>
      <point x="215" y="669" type="curve" smooth="yes"/>
      <point x="221" y="671"/>
      <point x="228" y="673"/>
      <point x="235" y="673" type="curve" smooth="yes"/>
      <point x="249" y="673"/>
      <point x="257" y="668"/>
      <point x="268" y="657" type="curve"/>
      <point x="280" y="643" type="line" smooth="yes"/>
      <point x="289" y="632"/>
      <point x="299" y="618"/>
      <point x="312" y="601" type="curve" smooth="yes"/>
      <point x="335" y="571" type="line"/>
      <point x="409" y="614"/>
      <point x="485" y="621"/>
      <point x="543" y="621" type="curve" smooth="yes"/>
      <point x="653" y="621"/>
      <point x="704" y="586"/>
      <point x="725" y="570" type="curve"/>
      <point x="769" y="606"/>
      <point x="832" y="673"/>
      <point x="871" y="673" type="curve" smooth="yes"/>
      <point x="877" y="673"/>
      <point x="884" y="671"/>
      <point x="889" y="669" type="curve" smooth="yes"/>
      <point x="907" y="662"/>
      <point x="915" y="644"/>
      <point x="911" y="623" type="curve" smooth="yes"/>
      <point x="910" y="619"/>
      <point x="909" y="615"/>
      <point x="907" y="612" type="curve" smooth="yes"/>
      <point x="895" y="586"/>
      <point x="860" y="571"/>
      <point x="779" y="500" type="curve"/>
      <point x="790" y="473"/>
      <point x="809" y="417"/>
      <point x="783" y="304" type="curve" smooth="yes"/>
      <point x="757" y="192"/>
      <point x="712" y="136"/>
      <point x="689" y="109" type="curve"/>
      <point x="749" y="37"/>
      <point x="770" y="10"/>
      <point x="764" y="-14" type="curve" smooth="yes"/>
      <point x="756" y="-43"/>
      <point x="729" y="-63"/>
      <point x="701" y="-63" type="curve" smooth="yes"/>
      <point x="687" y="-63"/>
      <point x="675" y="-58"/>
      <point x="667" y="-47" type="curve" smooth="yes"/>
      <point x="643" y="-14" type="line" smooth="yes"/>
      <point x="638" y="-7"/>
      <point x="633" y="0"/>
      <point x="626" y="9" type="curve" smooth="yes"/>
      <point x="603" y="38" type="line"/>
      <point x="529" y="-4"/>
      <point x="448" y="-11"/>
      <point x="395" y="-11" type="curve" smooth="yes"/>
      <point x="284" y="-11"/>
      <point x="234" y="20"/>
      <point x="211" y="38" type="curve"/>
      <point x="167" y="2" type="line"/>
      <point x="92" y="-54"/>
      <point x="90" y="-63"/>
      <point x="65" y="-63" type="curve" smooth="yes"/>
      <point x="36" y="-63"/>
      <point x="20" y="-41"/>
    </contour>
    <contour>
      <point x="253" y="304" type="curve" smooth="yes"/>
      <point x="249" y="287"/>
      <point x="247" y="270"/>
      <point x="245" y="254" type="curve" smooth="yes"/>
      <point x="235" y="157"/>
      <point x="276" y="89"/>
      <point x="415" y="89" type="curve" smooth="yes"/>
      <point x="532" y="89"/>
      <point x="641" y="124"/>
      <point x="683" y="305" type="curve" smooth="yes"/>
      <point x="713" y="430"/>
      <point x="682" y="520"/>
      <point x="521" y="520" type="curve" smooth="yes"/>
      <point x="403" y="520"/>
      <point x="295" y="484"/>
    </contour>
  </outline>
</glyph>
<glyph name="yen" format="2">
  <advance width="733"/>
  <unicode hex="00A5"/>
  <outline>
    <contour>
      <point x="13" y="218" type="curve" smooth="yes"/>
      <point x="14" y="224"/>
      <point x="17" y="230"/>
      <point x="22" y="237" type="curve" smooth="yes"/>
      <point x="31" y="250"/>
      <point x="48" y="262"/>
      <point x="79" y="262" type="curve" smooth="yes"/>
      <point x="341" y="262" type="line"/>
      <point x="341" y="268"/>
      <point x="343" y="270"/>
      <point x="342" y="278" type="curve" smooth="yes"/>
      <point x="340" y="288"/>
      <point x="332" y="303"/>
      <point x="315" y="339" type="curve" smooth="yes"/>
      <point x="287" y="402" type="line"/>
      <point x="113" y="402" type="line" smooth="yes"/>
      <point x="85" y="402"/>
      <point x="72" y="413"/>
      <point x="67" y="426" type="curve" smooth="yes"/>
      <point x="65" y="433"/>
      <point x="64" y="440"/>
      <point x="66" y="447" type="curve" smooth="yes"/>
      <point x="72" y="476"/>
      <point x="102" y="493"/>
      <point x="136" y="493" type="curve" smooth="yes"/>
      <point x="244" y="493" type="line"/>
      <point x="214" y="556"/>
      <point x="181" y="634"/>
      <point x="151" y="695" type="curve"/>
      <point x="345" y="695" type="line"/>
      <point x="438" y="493" type="line"/>
      <point x="529" y="493" type="line"/>
      <point x="714" y="695" type="line"/>
      <point x="892" y="695" type="line"/>
      <point x="706" y="493" type="line"/>
      <point x="815" y="493" type="line" smooth="yes"/>
      <point x="846" y="493"/>
      <point x="870" y="478"/>
      <point x="862" y="447" type="curve"/>
      <point x="859" y="432"/>
      <point x="841" y="402"/>
      <point x="806" y="402" type="curve" smooth="yes"/>
      <point x="622" y="402" type="line"/>
      <point x="505" y="277" type="line"/>
      <point x="501" y="262" type="line"/>
      <point x="769" y="262" type="line" smooth="yes"/>
      <point x="806" y="262"/>
      <point x="813" y="235"/>
      <point x="809" y="217" type="curve" smooth="yes"/>
      <point x="805" y="199"/>
      <point x="790" y="173"/>
      <point x="745" y="173" type="curve"/>
      <point x="745" y="173"/>
      <point x="745" y="173"/>
      <point x="745" y="173" type="curve"/>
      <point x="481" y="173" type="line"/>
      <point x="441" y="0" type="line"/>
      <point x="281" y="0" type="line"/>
      <point x="321" y="173" type="line"/>
      <point x="91" y="173" type="line" smooth="yes"/>
      <point x="78" y="173"/>
      <point x="65" y="172"/>
      <point x="52" y="172" type="curve" smooth="yes"/>
      <point x="17" y="172"/>
      <point x="9" y="199"/>
    </contour>
    <contour>
      <point x="431" y="402" type="line"/>
      <point x="455" y="355" type="line"/>
      <point x="496" y="402" type="line"/>
    </contour>
  </outline>
</glyph>
<glyph name="brokenbar" format="2">
  <advance width="183"/>
  <unicode hex="00A6"/>
  <outline>
    <contour>
      <point x="72" y="142" type="line" smooth="yes"/>
      <point x="84" y="194"/>
      <point x="120" y="200"/>
      <point x="136" y="200" type="curve" smooth="yes"/>
      <point x="142" y="200"/>
      <point x="149" y="199"/>
      <point x="156" y="196" type="curve" smooth="yes"/>
      <point x="169" y="190"/>
      <point x="179" y="174"/>
      <point x="172" y="143" type="curve"/>
      <point x="172" y="143"/>
      <point x="172" y="143"/>
      <point x="172" y="143" type="curve"/>
      <point x="103" y="-155" type="line" smooth="yes"/>
      <point x="92" y="-206"/>
      <point x="57" y="-216"/>
      <point x="40" y="-216" type="curve" smooth="yes"/>
      <point x="21" y="-216"/>
      <point x="-7" y="-206"/>
      <point x="3" y="-158" type="curve"/>
      <point x="3" y="-158"/>
      <point x="3" y="-158"/>
      <point x="3" y="-158" type="curve"/>
      <point x="3" y="-158"/>
      <point x="3" y="-158"/>
      <point x="3" y="-158" type="curve"/>
    </contour>
    <contour>
      <point x="129" y="390" type="curve" smooth="yes"/>
      <point x="152" y="489"/>
      <point x="175" y="589"/>
      <point x="198" y="688" type="curve" smooth="yes"/>
      <point x="210" y="740"/>
      <point x="245" y="748"/>
      <point x="263" y="748" type="curve" smooth="yes"/>
      <point x="286" y="748"/>
      <point x="308" y="736"/>
      <point x="298" y="690" type="curve"/>
      <point x="298" y="690"/>
      <point x="298" y="690"/>
      <point x="298" y="690" type="curve"/>
      <point x="230" y="392" type="line" smooth="yes"/>
      <point x="218" y="337"/>
      <point x="181" y="331"/>
      <point x="166" y="331" type="curve" smooth="yes"/>
      <point x="144" y="331"/>
      <point x="117" y="340"/>
    </contour>
  </outline>
</glyph>
<glyph name="section" format="2">
  <advance width="533"/>
  <unicode hex="00A7"/>
  <outline>
    <contour>
      <point x="16" y="-100" type="curve"/>
      <point x="71" y="34" type="line"/>
      <point x="76" y="24"/>
      <point x="83" y="12"/>
      <point x="91" y="-1" type="curve"/>
      <point x="118" y="-41"/>
      <point x="154" y="-74"/>
      <point x="212" y="-81" type="curve" smooth="yes"/>
      <point x="220" y="-82"/>
      <point x="229" y="-83"/>
      <point x="238" y="-83" type="curve" smooth="yes"/>
      <point x="282" y="-83"/>
      <point x="307" y="-34"/>
      <point x="314" y="-5" type="curve" smooth="yes"/>
      <point x="323" y="30"/>
      <point x="289" y="48"/>
      <point x="261" y="63" type="curve"/>
      <point x="281" y="53"/>
      <point x="89" y="95"/>
      <point x="130" y="271" type="curve"/>
      <point x="139" y="297"/>
      <point x="153" y="350"/>
      <point x="221" y="397" type="curve"/>
      <point x="195" y="430"/>
      <point x="176" y="475"/>
      <point x="190" y="534" type="curve"/>
      <point x="216" y="626"/>
      <point x="308" y="706"/>
      <point x="428" y="706" type="curve" smooth="yes"/>
      <point x="438" y="706"/>
      <point x="448" y="706"/>
      <point x="457" y="705" type="curve"/>
      <point x="521" y="700"/>
      <point x="562" y="676"/>
      <point x="602" y="645" type="curve"/>
      <point x="552" y="519" type="line"/>
      <point x="536" y="539"/>
      <point x="515" y="602"/>
      <point x="436" y="613" type="curve" smooth="yes"/>
      <point x="428" y="614"/>
      <point x="419" y="615"/>
      <point x="409" y="615" type="curve" smooth="yes"/>
      <point x="361" y="615"/>
      <point x="340" y="563"/>
      <point x="333" y="537" type="curve"/>
      <point x="325" y="497"/>
      <point x="357" y="485"/>
      <point x="389" y="469" type="curve" smooth="yes"/>
      <point x="415" y="456" type="line"/>
      <point x="471" y="422"/>
      <point x="510" y="386"/>
      <point x="519" y="327" type="curve" smooth="yes"/>
      <point x="522" y="307"/>
      <point x="522" y="285"/>
      <point x="516" y="260" type="curve"/>
      <point x="516" y="260"/>
      <point x="516" y="260"/>
      <point x="516" y="260" type="curve"/>
      <point x="510" y="239" type="line"/>
      <point x="495" y="198"/>
      <point x="465" y="162"/>
      <point x="425" y="134" type="curve"/>
      <point x="454" y="99"/>
      <point x="468" y="52"/>
      <point x="456" y="-1" type="curve"/>
      <point x="430" y="-92"/>
      <point x="339" y="-173"/>
      <point x="219" y="-173" type="curve" smooth="yes"/>
      <point x="210" y="-173"/>
      <point x="201" y="-173"/>
      <point x="192" y="-172" type="curve"/>
      <point x="121" y="-168"/>
      <point x="72" y="-146"/>
    </contour>
    <contour>
      <point x="272" y="274" type="curve"/>
      <point x="271" y="271"/>
      <point x="271" y="269"/>
      <point x="271" y="266" type="curve"/>
      <point x="268" y="230"/>
      <point x="302" y="217"/>
      <point x="345" y="200" type="curve"/>
      <point x="350" y="206"/>
      <point x="376" y="235"/>
      <point x="376" y="266" type="curve"/>
      <point x="381" y="302"/>
      <point x="335" y="316"/>
      <point x="303" y="333" type="curve"/>
      <point x="293" y="319"/>
      <point x="278" y="302"/>
    </contour>
  </outline>
</glyph>
<glyph name="copyright" format="2">
  <advance width="1143"/>
  <unicode hex="00A9"/>
  <outline>
    <contour>
      <point x="312" y="247" type="curve" smooth="yes"/>
      <point x="315" y="260"/>
      <point x="319" y="273"/>
      <point x="323" y="285" type="curve" smooth="yes"/>
      <point x="392" y="479"/>
      <point x="607" y="514"/>
      <point x="753" y="514" type="curve" smooth="yes"/>
      <point x="814" y="514"/>
      <point x="851" y="508"/>
      <point x="917" y="487" type="curve"/>
      <point x="855" y="332" type="line"/>
      <point x="850" y="339"/>
      <point x="843" y="345"/>
      <point x="838" y="352" type="curve"/>
      <point x="816" y="372"/>
      <point x="788" y="396"/>
      <point x="723" y="396" type="curve"/>
      <point x="723" y="396"/>
      <point x="723" y="396"/>
      <point x="723" y="396" type="curve"/>
      <point x="540" y="396"/>
      <point x="491" y="309"/>
      <point x="475" y="246" type="curve"/>
      <point x="448" y="122"/>
      <point x="548" y="95"/>
      <point x="660" y="95" type="curve" smooth="yes"/>
      <point x="741" y="95"/>
      <point x="779" y="119"/>
      <point x="840" y="151" type="curve"/>
      <point x="821" y="20" type="line"/>
      <point x="756" y="-6"/>
      <point x="717" y="-22"/>
      <point x="634" y="-22" type="curve" smooth="yes"/>
      <point x="622" y="-22"/>
      <point x="611" y="-21"/>
      <point x="599" y="-21" type="curve"/>
      <point x="432" y="-14"/>
      <point x="265" y="39"/>
    </contour>
    <contour>
      <point x="118" y="266" type="curve" smooth="yes"/>
      <point x="126" y="303"/>
      <point x="137" y="337"/>
      <point x="148" y="369" type="curve" smooth="yes"/>
      <point x="262" y="687"/>
      <point x="510" y="771"/>
      <point x="739" y="771" type="curve" smooth="yes"/>
      <point x="979" y="771"/>
      <point x="1094" y="683"/>
      <point x="1133" y="553" type="curve" smooth="yes"/>
      <point x="1159" y="468"/>
      <point x="1151" y="367"/>
      <point x="1128" y="266" type="curve" smooth="yes"/>
      <point x="1037" y="-135"/>
      <point x="757" y="-238"/>
      <point x="508" y="-238" type="curve" smooth="yes"/>
      <point x="265" y="-238"/>
      <point x="152" y="-148"/>
      <point x="114" y="-20" type="curve" smooth="yes"/>
      <point x="88" y="65"/>
      <point x="95" y="165"/>
    </contour>
    <contour>
      <point x="218" y="266" type="curve" smooth="yes"/>
      <point x="213" y="245"/>
      <point x="209" y="225"/>
      <point x="206" y="205" type="curve" smooth="yes"/>
      <point x="200" y="166"/>
      <point x="199" y="130"/>
      <point x="201" y="97" type="curve" smooth="yes"/>
      <point x="213" y="-55"/>
      <point x="312" y="-138"/>
      <point x="529" y="-138" type="curve" smooth="yes"/>
      <point x="827" y="-138"/>
      <point x="970" y="15"/>
      <point x="1028" y="266" type="curve" smooth="yes"/>
      <point x="1050" y="362"/>
      <point x="1052" y="439"/>
      <point x="1034" y="499" type="curve" smooth="yes"/>
      <point x="998" y="619"/>
      <point x="887" y="670"/>
      <point x="717" y="670" type="curve" smooth="yes"/>
      <point x="495" y="670"/>
      <point x="291" y="587"/>
    </contour>
  </outline>
</glyph>
<glyph name="ordfeminine" format="2">
  <advance width="489"/>
  <unicode hex="00AA"/>
  <outline>
    <contour>
      <point x="77" y="258" type="curve"/>
      <point x="79" y="267"/>
      <point x="82" y="274"/>
      <point x="87" y="280" type="curve"/>
      <point x="100" y="298"/>
      <point x="126" y="303"/>
      <point x="147" y="303" type="curve" smooth="yes"/>
      <point x="481" y="303" type="line" smooth="yes"/>
      <point x="526" y="303"/>
      <point x="525" y="272"/>
      <point x="522" y="258" type="curve"/>
      <point x="517" y="239"/>
      <point x="502" y="213"/>
      <point x="460" y="213" type="curve" smooth="yes"/>
      <point x="119" y="213" type="line" smooth="yes"/>
      <point x="88" y="213"/>
      <point x="78" y="228"/>
      <point x="76" y="241" type="curve" smooth="yes"/>
      <point x="75" y="248"/>
      <point x="76" y="254"/>
    </contour>
    <contour>
      <point x="129" y="457" type="curve" smooth="yes"/>
      <point x="131" y="466"/>
      <point x="136" y="474"/>
      <point x="143" y="481" type="curve" smooth="yes"/>
      <point x="191" y="529"/>
      <point x="341" y="525"/>
      <point x="373" y="525" type="curve"/>
      <point x="388" y="587" type="line" smooth="yes"/>
      <point x="393" y="608"/>
      <point x="396" y="625"/>
      <point x="397" y="638" type="curve" smooth="yes"/>
      <point x="400" y="677"/>
      <point x="388" y="681"/>
      <point x="375" y="681" type="curve" smooth="yes"/>
      <point x="349" y="681"/>
      <point x="323" y="670"/>
      <point x="299" y="654" type="curve" smooth="yes"/>
      <point x="253" y="623"/>
      <point x="216" y="576"/>
      <point x="216" y="576" type="curve"/>
      <point x="238" y="713" type="line"/>
      <point x="295" y="748"/>
      <point x="341" y="765"/>
      <point x="405" y="765" type="curve" smooth="yes"/>
      <point x="555" y="765"/>
      <point x="553" y="665"/>
      <point x="541" y="593" type="curve" smooth="yes"/>
      <point x="539" y="581"/>
      <point x="537" y="572"/>
      <point x="535" y="561" type="curve"/>
      <point x="527" y="528" type="line" smooth="yes"/>
      <point x="514" y="473"/>
      <point x="501" y="419"/>
      <point x="489" y="364" type="curve"/>
      <point x="339" y="364" type="line"/>
      <point x="349" y="408" type="line"/>
      <point x="297" y="363"/>
      <point x="242" y="354"/>
      <point x="221" y="354" type="curve" smooth="yes"/>
      <point x="144" y="354"/>
      <point x="119" y="416"/>
    </contour>
    <contour>
      <point x="277" y="460" type="curve"/>
      <point x="276" y="457"/>
      <point x="277" y="454"/>
      <point x="279" y="451" type="curve"/>
      <point x="282" y="447"/>
      <point x="289" y="444"/>
      <point x="299" y="444" type="curve" smooth="yes"/>
      <point x="316" y="444"/>
      <point x="331" y="454"/>
      <point x="344" y="465" type="curve"/>
      <point x="300" y="463"/>
      <point x="280" y="463"/>
    </contour>
  </outline>
</glyph>
<glyph name="logicalnot" format="2">
  <advance width="672"/>
  <unicode hex="00AC"/>
  <outline>
    <contour>
      <point x="184" y="310" type="curve" smooth="yes"/>
      <point x="131" y="310"/>
      <point x="133" y="349"/>
      <point x="136" y="361" type="curve"/>
      <point x="139" y="381"/>
      <point x="160" y="411"/>
      <point x="206" y="411" type="curve"/>
      <point x="206" y="411"/>
      <point x="206" y="411"/>
      <point x="206" y="411" type="curve"/>
      <point x="206" y="411"/>
      <point x="206" y="411"/>
      <point x="206" y="411" type="curve"/>
      <point x="644" y="411" type="line" smooth="yes"/>
      <point x="677" y="411"/>
      <point x="699" y="398"/>
      <point x="689" y="354" type="curve"/>
      <point x="689" y="354"/>
      <point x="689" y="354"/>
      <point x="689" y="354" type="curve"/>
      <point x="633" y="112" type="line" smooth="yes"/>
      <point x="621" y="58"/>
      <point x="585" y="52"/>
      <point x="569" y="52" type="curve" smooth="yes"/>
      <point x="532" y="52"/>
      <point x="524" y="79"/>
      <point x="535" y="126" type="curve" smooth="yes"/>
      <point x="578" y="311" type="line"/>
      <point x="190" y="311" type="line" smooth="yes"/>
      <point x="188" y="311"/>
      <point x="187" y="310"/>
    </contour>
  </outline>
</glyph>
<glyph name="registered" format="2">
  <advance width="1143"/>
  <unicode hex="00AE"/>
  <outline>
    <contour>
      <point x="314" y="0" type="line"/>
      <point x="428" y="492" type="line"/>
      <point x="692" y="492" type="line" smooth="yes"/>
      <point x="797" y="492"/>
      <point x="979" y="486"/>
      <point x="946" y="340" type="curve"/>
      <point x="924" y="259"/>
      <point x="858" y="225"/>
      <point x="782" y="212" type="curve"/>
      <point x="822" y="142"/>
      <point x="861" y="72"/>
      <point x="899" y="0" type="curve"/>
      <point x="740" y="0" type="line"/>
      <point x="623" y="201" type="line"/>
      <point x="520" y="201" type="line"/>
      <point x="474" y="0" type="line"/>
    </contour>
    <contour>
      <point x="541" y="292" type="curve"/>
      <point x="579" y="292"/>
      <point x="616" y="291"/>
      <point x="654" y="291" type="curve" smooth="yes"/>
      <point x="693" y="291"/>
      <point x="725" y="293"/>
      <point x="749" y="300" type="curve" smooth="yes"/>
      <point x="771" y="307"/>
      <point x="787" y="317"/>
      <point x="792" y="340" type="curve"/>
      <point x="792" y="340"/>
      <point x="792" y="340"/>
      <point x="792" y="340" type="curve"/>
      <point x="801" y="382"/>
      <point x="758" y="389"/>
      <point x="664" y="389" type="curve" smooth="yes"/>
      <point x="565" y="389" type="line"/>
      <point x="558" y="357"/>
      <point x="548" y="324"/>
    </contour>
    <contour>
      <point x="97" y="101" type="curve" smooth="yes"/>
      <point x="97" y="154"/>
      <point x="105" y="210"/>
      <point x="118" y="266" type="curve" smooth="yes"/>
      <point x="211" y="666"/>
      <point x="483" y="771"/>
      <point x="739" y="771" type="curve" smooth="yes"/>
      <point x="1006" y="771"/>
      <point x="1119" y="661"/>
      <point x="1144" y="509" type="curve" smooth="yes"/>
      <point x="1157" y="434"/>
      <point x="1147" y="350"/>
      <point x="1128" y="266" type="curve" smooth="yes"/>
      <point x="1035" y="-134"/>
      <point x="765" y="-238"/>
      <point x="508" y="-238" type="curve" smooth="yes"/>
      <point x="193" y="-238"/>
      <point x="97" y="-85"/>
    </contour>
    <contour>
      <point x="218" y="266" type="curve" smooth="yes"/>
      <point x="213" y="245"/>
      <point x="209" y="225"/>
      <point x="206" y="205" type="curve" smooth="yes"/>
      <point x="200" y="166"/>
      <point x="199" y="130"/>
      <point x="201" y="97" type="curve" smooth="yes"/>
      <point x="213" y="-55"/>
      <point x="312" y="-138"/>
      <point x="529" y="-138" type="curve" smooth="yes"/>
      <point x="824" y="-138"/>
      <point x="970" y="17"/>
      <point x="1028" y="266" type="curve" smooth="yes"/>
      <point x="1050" y="362"/>
      <point x="1052" y="439"/>
      <point x="1034" y="499" type="curve" smooth="yes"/>
      <point x="998" y="619"/>
      <point x="887" y="670"/>
      <point x="717" y="670" type="curve" smooth="yes"/>
      <point x="495" y="670"/>
      <point x="291" y="587"/>
    </contour>
  </outline>
</glyph>
<glyph name="macron" format="2">
  <advance width="550"/>
  <unicode hex="00AF"/>
  <outline>
    <contour>
      <point x="206" y="598" type="line"/>
      <point x="230" y="700" type="line"/>
      <point x="635" y="700" type="line"/>
      <point x="611" y="598" type="line"/>
    </contour>
  </outline>
</glyph>
<glyph name="degree" format="2">
  <advance width="367"/>
  <unicode hex="00B0"/>
  <outline>
    <contour>
      <point x="182" y="566" type="curve"/>
      <point x="197" y="647"/>
      <point x="264" y="695"/>
      <point x="339" y="695" type="curve" smooth="yes"/>
      <point x="418" y="695"/>
      <point x="457" y="647"/>
      <point x="439" y="567" type="curve" smooth="yes"/>
      <point x="420" y="482"/>
      <point x="358" y="437"/>
      <point x="280" y="437" type="curve" smooth="yes"/>
      <point x="196" y="437"/>
      <point x="165" y="491"/>
    </contour>
    <contour>
      <point x="282" y="566" type="curve" smooth="yes"/>
      <point x="281" y="563"/>
      <point x="280" y="560"/>
      <point x="280" y="557" type="curve" smooth="yes"/>
      <point x="280" y="541"/>
      <point x="290" y="538"/>
      <point x="305" y="538" type="curve" smooth="yes"/>
      <point x="326" y="538"/>
      <point x="335" y="548"/>
      <point x="339" y="567" type="curve" smooth="yes"/>
      <point x="343" y="586"/>
      <point x="337" y="594"/>
      <point x="318" y="594" type="curve" smooth="yes"/>
      <point x="301" y="594"/>
      <point x="287" y="590"/>
    </contour>
  </outline>
</glyph>
<glyph name="plusminus" format="2">
  <advance width="672"/>
  <unicode hex="00B1"/>
  <outline>
    <contour>
      <point x="132" y="78" type="curve" smooth="yes"/>
      <point x="91" y="78"/>
      <point x="83" y="98"/>
      <point x="83" y="114" type="curve" smooth="yes"/>
      <point x="83" y="148"/>
      <point x="108" y="171"/>
      <point x="133" y="177" type="curve"/>
      <point x="133" y="177"/>
      <point x="132" y="176"/>
      <point x="132" y="176" type="curve"/>
      <point x="138" y="178"/>
      <point x="142" y="178"/>
      <point x="145" y="178" type="curve" smooth="yes"/>
      <point x="321" y="178" type="line"/>
      <point x="350" y="305" type="line"/>
      <point x="172" y="305" type="line"/>
      <point x="153" y="306"/>
      <point x="141" y="316"/>
      <point x="136" y="331" type="curve"/>
      <point x="134" y="338"/>
      <point x="133" y="346"/>
      <point x="135" y="355" type="curve"/>
      <point x="140" y="382"/>
      <point x="168" y="405"/>
      <point x="196" y="405" type="curve" smooth="yes"/>
      <point x="374" y="405" type="line"/>
      <point x="409" y="560" type="line" smooth="yes"/>
      <point x="419" y="601"/>
      <point x="438" y="632"/>
      <point x="477" y="632" type="curve" smooth="yes"/>
      <point x="506" y="632"/>
      <point x="514" y="611"/>
      <point x="514" y="587" type="curve" smooth="yes"/>
      <point x="514" y="572"/>
      <point x="509" y="552"/>
      <point x="505" y="537" type="curve"/>
      <point x="475" y="405" type="line"/>
      <point x="637" y="405" type="line" smooth="yes"/>
      <point x="653" y="405"/>
      <point x="661" y="405"/>
      <point x="671" y="399" type="curve"/>
      <point x="671" y="399"/>
      <point x="670" y="399"/>
      <point x="670" y="399" type="curve"/>
      <point x="685" y="390"/>
      <point x="692" y="374"/>
      <point x="688" y="355" type="curve" smooth="yes"/>
      <point x="682" y="329"/>
      <point x="656" y="305"/>
      <point x="629" y="305" type="curve" smooth="yes"/>
      <point x="451" y="305" type="line"/>
      <point x="422" y="178" type="line"/>
      <point x="584" y="178" type="line" smooth="yes"/>
      <point x="603" y="178"/>
      <point x="646" y="176"/>
      <point x="636" y="128" type="curve" smooth="yes"/>
      <point x="626" y="83"/>
      <point x="582" y="78"/>
      <point x="566" y="78" type="curve" smooth="yes"/>
      <point x="156" y="78" type="line" smooth="yes"/>
      <point x="148" y="78"/>
      <point x="140" y="78"/>
    </contour>
  </outline>
</glyph>
<glyph name="uni00B2" format="2">
  <advance width="489"/>
  <unicode hex="00B2"/>
  <outline>
    <contour>
      <point x="202" y="704" type="curve"/>
      <point x="204" y="709"/>
      <point x="206" y="713"/>
      <point x="208" y="718" type="curve"/>
      <point x="273" y="751"/>
      <point x="327" y="771"/>
      <point x="401" y="771" type="curve" smooth="yes"/>
      <point x="513" y="771"/>
      <point x="584" y="715"/>
      <point x="577" y="629" type="curve"/>
      <point x="567" y="559"/>
      <point x="530" y="537"/>
      <point x="473" y="520" type="curve" smooth="yes"/>
      <point x="431" y="508" type="line"/>
      <point x="425" y="506"/>
      <point x="419" y="505"/>
      <point x="415" y="504" type="curve"/>
      <point x="392" y="499"/>
      <point x="388" y="498"/>
      <point x="336" y="477" type="curve" smooth="yes"/>
      <point x="296" y="461" type="line"/>
      <point x="381" y="461" type="line" smooth="yes"/>
      <point x="388" y="461"/>
      <point x="397" y="462"/>
      <point x="404" y="462" type="curve" smooth="yes"/>
      <point x="540" y="462" type="line"/>
      <point x="511" y="337" type="line"/>
      <point x="124" y="337" type="line"/>
      <point x="151" y="456" type="line"/>
      <point x="188" y="474"/>
      <point x="225" y="491"/>
      <point x="262" y="509" type="curve"/>
      <point x="312" y="524"/>
      <point x="406" y="553"/>
      <point x="415" y="604" type="curve"/>
      <point x="415" y="604"/>
      <point x="415" y="604"/>
      <point x="415" y="604" type="curve"/>
      <point x="421" y="634"/>
      <point x="398" y="653"/>
      <point x="359" y="653" type="curve" smooth="yes"/>
      <point x="318" y="653"/>
      <point x="283" y="631"/>
      <point x="260" y="614" type="curve"/>
      <point x="250" y="606" type="line"/>
      <point x="221" y="665" type="line" smooth="yes"/>
      <point x="215" y="678"/>
      <point x="208" y="691"/>
    </contour>
  </outline>
</glyph>
<glyph name="uni00B3" format="2">
  <advance width="489"/>
  <unicode hex="00B3"/>
  <outline>
    <contour>
      <point x="110" y="326" type="curve"/>
      <point x="153" y="435" type="line"/>
      <point x="207" y="436"/>
      <point x="263" y="438"/>
      <point x="317" y="438" type="curve" smooth="yes"/>
      <point x="354" y="438"/>
      <point x="380" y="439"/>
      <point x="388" y="473" type="curve" smooth="yes"/>
      <point x="396" y="508"/>
      <point x="369" y="508"/>
      <point x="329" y="508" type="curve" smooth="yes"/>
      <point x="288" y="508" type="line"/>
      <point x="309" y="597" type="line"/>
      <point x="348" y="605"/>
      <point x="395" y="601"/>
      <point x="405" y="643" type="curve" smooth="yes"/>
      <point x="409" y="661"/>
      <point x="397" y="664"/>
      <point x="382" y="664" type="curve" smooth="yes"/>
      <point x="334" y="664"/>
      <point x="299" y="654"/>
      <point x="253" y="637" type="curve"/>
      <point x="215" y="729" type="line"/>
      <point x="284" y="756"/>
      <point x="345" y="771"/>
      <point x="407" y="771" type="curve" smooth="yes"/>
      <point x="524" y="771"/>
      <point x="570" y="730"/>
      <point x="564" y="662" type="curve"/>
      <point x="558" y="618"/>
      <point x="541" y="590"/>
      <point x="513" y="567" type="curve"/>
      <point x="513" y="567"/>
      <point x="513" y="567"/>
      <point x="513" y="567" type="curve"/>
      <point x="499" y="557" type="line"/>
      <point x="530" y="544"/>
      <point x="562" y="519"/>
      <point x="551" y="471" type="curve"/>
      <point x="533" y="361"/>
      <point x="396" y="330"/>
      <point x="307" y="327" type="curve"/>
      <point x="241" y="327"/>
      <point x="176" y="326"/>
    </contour>
  </outline>
</glyph>
<glyph name="acute" format="2">
  <advance width="550"/>
  <unicode hex="00B4"/>
  <outline>
    <contour>
      <point x="309" y="527" type="line"/>
      <point x="454" y="681" type="line"/>
      <point x="617" y="681" type="line"/>
      <point x="480" y="583" type="line" smooth="yes"/>
      <point x="387" y="518"/>
      <point x="408" y="527"/>
      <point x="372" y="527" type="curve" smooth="yes"/>
    </contour>
  </outline>
</glyph>
<glyph name="mu" format="2">
  <advance width="561"/>
  <unicode hex="00B5"/>
  <outline>
    <contour>
      <point x="15" y="-162" type="line"/>
      <point x="162" y="478" type="line"/>
      <point x="314" y="478" type="line"/>
      <point x="233" y="126" type="line"/>
      <point x="233" y="126"/>
      <point x="233" y="126"/>
      <point x="233" y="126" type="curve"/>
      <point x="224" y="83"/>
      <point x="221" y="68"/>
      <point x="272" y="68" type="curve" smooth="yes"/>
      <point x="312" y="68"/>
      <point x="371" y="96"/>
      <point x="390" y="180" type="curve" smooth="yes"/>
      <point x="458" y="478" type="line"/>
      <point x="610" y="478" type="line"/>
      <point x="500" y="0" type="line"/>
      <point x="351" y="0" type="line"/>
      <point x="364" y="56" type="line"/>
      <point x="312" y="4"/>
      <point x="259" y="-5"/>
      <point x="219" y="-10" type="curve" smooth="yes"/>
      <point x="212" y="-11" name=".hr01"/>
      <point x="206" y="-11"/>
      <point x="201" y="-11" type="curve"/>
      <point x="167" y="-162" type="line"/>
    </contour>
  </outline>
</glyph>
<glyph name="paragraph" format="2">
  <advance width="672"/>
  <unicode hex="00B6"/>
  <outline>
    <contour>
      <point x="159" y="455" type="curve"/>
      <point x="189" y="579"/>
      <point x="317" y="695"/>
      <point x="502" y="695" type="curve" smooth="yes"/>
      <point x="737" y="695" type="line" smooth="yes"/>
      <point x="789" y="695"/>
      <point x="789" y="659"/>
      <point x="786" y="644" type="curve" smooth="yes"/>
      <point x="779" y="612"/>
      <point x="746" y="594"/>
      <point x="711" y="594" type="curve" smooth="yes"/>
      <point x="684" y="594" type="line"/>
      <point x="523" y="-104" type="line" smooth="yes"/>
      <point x="515" y="-137"/>
      <point x="491" y="-161"/>
      <point x="461" y="-161" type="curve" smooth="yes"/>
      <point x="433" y="-161"/>
      <point x="414" y="-140"/>
      <point x="421" y="-111" type="curve" smooth="yes"/>
      <point x="584" y="594" type="line"/>
      <point x="529" y="594" type="line"/>
      <point x="368" y="-104" type="line" smooth="yes"/>
      <point x="356" y="-155"/>
      <point x="319" y="-161"/>
      <point x="305" y="-161" type="curve" smooth="yes"/>
      <point x="287" y="-161"/>
      <point x="258" y="-152"/>
      <point x="267" y="-108" type="curve"/>
      <point x="343" y="219" type="line"/>
      <point x="193" y="242"/>
      <point x="135" y="346"/>
    </contour>
  </outline>
</glyph>
<glyph name="periodcentered" format="2">
  <advance width="219"/>
  <unicode hex="00B7"/>
  <outline>
    <contour>
      <point x="87" y="189" type="line"/>
      <point x="116" y="317" type="line"/>
      <point x="245" y="317" type="line"/>
      <point x="216" y="189" type="line"/>
    </contour>
  </outline>
</glyph>
<glyph name="cedilla" format="2">
  <advance width="489"/>
  <unicode hex="00B8"/>
  <outline>
    <contour>
      <point x="59" y="-163" type="line"/>
      <point x="198" y="-3" type="line"/>
      <point x="288" y="-3" type="line"/>
      <point x="183" y="-163" type="line"/>
    </contour>
  </outline>
</glyph>
<glyph name="uni00B9" format="2">
  <advance width="489"/>
  <unicode hex="00B9"/>
  <outline>
    <contour>
      <point x="208" y="607" type="curve"/>
      <point x="229" y="698" type="line"/>
      <point x="360" y="699"/>
      <point x="420" y="739"/>
      <point x="460" y="771" type="curve"/>
      <point x="507" y="771" type="line"/>
      <point x="428" y="428" type="line"/>
      <point x="513" y="428" type="line"/>
      <point x="492" y="337" type="line"/>
      <point x="161" y="337" type="line"/>
      <point x="182" y="428" type="line"/>
      <point x="274" y="428" type="line"/>
      <point x="318" y="618" type="line"/>
      <point x="290" y="612"/>
      <point x="258" y="607"/>
    </contour>
  </outline>
</glyph>
<glyph name="ordmasculine" format="2">
  <advance width="489"/>
  <unicode hex="00BA"/>
  <outline>
    <contour>
      <point x="77" y="258" type="curve"/>
      <point x="79" y="267"/>
      <point x="82" y="274"/>
      <point x="87" y="280" type="curve"/>
      <point x="100" y="298"/>
      <point x="126" y="303"/>
      <point x="147" y="303" type="curve" smooth="yes"/>
      <point x="481" y="303" type="line" smooth="yes"/>
      <point x="526" y="303"/>
      <point x="525" y="272"/>
      <point x="522" y="258" type="curve"/>
      <point x="517" y="239"/>
      <point x="502" y="213"/>
      <point x="460" y="213" type="curve" smooth="yes"/>
      <point x="119" y="213" type="line" smooth="yes"/>
      <point x="88" y="213"/>
      <point x="78" y="228"/>
      <point x="76" y="241" type="curve" smooth="yes"/>
      <point x="75" y="248"/>
      <point x="76" y="254"/>
    </contour>
    <contour>
      <point x="150" y="552" type="curve" smooth="yes"/>
      <point x="155" y="573"/>
      <point x="161" y="593"/>
      <point x="168" y="610" type="curve" smooth="yes"/>
      <point x="217" y="731"/>
      <point x="319" y="765"/>
      <point x="419" y="765" type="curve" smooth="yes"/>
      <point x="527" y="765"/>
      <point x="624" y="722"/>
      <point x="584" y="552" type="curve" smooth="yes"/>
      <point x="550" y="399"/>
      <point x="441" y="358"/>
      <point x="338" y="354" type="curve"/>
      <point x="231" y="354"/>
      <point x="108" y="376"/>
    </contour>
    <contour>
      <point x="302" y="554" type="curve"/>
      <point x="300" y="546"/>
      <point x="298" y="539"/>
      <point x="297" y="532" type="curve"/>
      <point x="294" y="518"/>
      <point x="293" y="506"/>
      <point x="293" y="496" type="curve" smooth="yes"/>
      <point x="293" y="465"/>
      <point x="308" y="449"/>
      <point x="344" y="449" type="curve" smooth="yes"/>
      <point x="407" y="449"/>
      <point x="418" y="494"/>
      <point x="437" y="573" type="curve" smooth="yes"/>
      <point x="453" y="643"/>
      <point x="451" y="674"/>
      <point x="396" y="674" type="curve" smooth="yes"/>
      <point x="328" y="674"/>
      <point x="316" y="618"/>
    </contour>
  </outline>
</glyph>
<glyph name="guillemotright" format="2">
  <advance width="733"/>
  <unicode hex="00BB"/>
  <outline>
    <contour>
      <point x="89" y="0" type="line"/>
      <point x="351" y="239" type="line"/>
      <point x="200" y="479" type="line"/>
      <point x="329" y="479" type="line"/>
      <point x="488" y="239" type="line"/>
      <point x="218" y="0" type="line"/>
    </contour>
    <contour>
      <point x="314" y="0" type="line"/>
      <point x="576" y="239" type="line"/>
      <point x="425" y="479" type="line"/>
      <point x="556" y="479" type="line"/>
      <point x="713" y="239" type="line"/>
      <point x="445" y="0" type="line"/>
    </contour>
  </outline>
</glyph>
<glyph name="onequarter" format="2">
  <advance width="489"/>
  <unicode hex="00BC"/>
  <outline>
    <contour>
      <point x="52" y="293" type="curve"/>
      <point x="54" y="300"/>
      <point x="56" y="307"/>
      <point x="59" y="312" type="curve" smooth="yes"/>
      <point x="73" y="336"/>
      <point x="96" y="339"/>
      <point x="119" y="343" type="curve" smooth="yes"/>
      <point x="125" y="344"/>
      <point x="131" y="344"/>
      <point x="137" y="344" type="curve" smooth="yes"/>
      <point x="510" y="344" type="line" smooth="yes"/>
      <point x="533" y="344"/>
      <point x="563" y="341"/>
      <point x="567" y="316" type="curve" smooth="yes"/>
      <point x="568" y="310"/>
      <point x="572" y="243"/>
      <point x="497" y="243" type="curve" smooth="yes"/>
      <point x="97" y="243" type="line" smooth="yes"/>
      <point x="61" y="243"/>
      <point x="51" y="262"/>
      <point x="51" y="279" type="curve" smooth="yes"/>
      <point x="51" y="284"/>
      <point x="51" y="289"/>
    </contour>
    <contour>
      <point x="17" y="-32" type="line"/>
      <point x="236" y="182" type="line"/>
      <point x="413" y="182" type="line"/>
      <point x="365" y="-25" type="line"/>
      <point x="452" y="-25" type="line"/>
      <point x="426" y="-137" type="line"/>
      <point x="339" y="-137" type="line" name=".hr01"/>
      <point x="334" y="-162" type="line"/>
      <point x="194" y="-162" type="line" name=".hr02"/>
      <point x="199" y="-137" type="line"/>
      <point x="-8" y="-137" type="line" name=".hr03"/>
    </contour>
    <contour>
      <point x="219" y="648" type="curve"/>
      <point x="240" y="739" type="line"/>
      <point x="477" y="739"/>
      <point x="430" y="771"/>
      <point x="508" y="771" type="curve"/>
      <point x="445" y="496" type="line"/>
      <point x="530" y="496" type="line"/>
      <point x="509" y="405" type="line"/>
      <point x="177" y="405" type="line"/>
      <point x="198" y="496" type="line"/>
      <point x="291" y="496" type="line"/>
      <point x="327" y="652" type="line"/>
      <point x="271" y="647"/>
      <point x="243" y="648"/>
    </contour>
    <contour>
      <point x="162" y="-25" type="line"/>
      <point x="230" y="-25" type="line"/>
      <point x="250" y="59" type="line"/>
      <point x="220" y="31" type="line"/>
    </contour>
  </outline>
</glyph>
<glyph name="onehalf" format="2">
  <advance width="489"/>
  <unicode hex="00BD"/>
  <outline>
    <contour>
      <point x="52" y="293" type="curve"/>
      <point x="54" y="300"/>
      <point x="56" y="307"/>
      <point x="59" y="312" type="curve" smooth="yes"/>
      <point x="73" y="336"/>
      <point x="96" y="339"/>
      <point x="119" y="343" type="curve" smooth="yes"/>
      <point x="125" y="344"/>
      <point x="131" y="344"/>
      <point x="137" y="344" type="curve" smooth="yes"/>
      <point x="510" y="344" type="line" smooth="yes"/>
      <point x="533" y="344"/>
      <point x="563" y="341"/>
      <point x="567" y="316" type="curve" smooth="yes"/>
      <point x="568" y="310"/>
      <point x="572" y="243"/>
      <point x="497" y="243" type="curve" smooth="yes"/>
      <point x="97" y="243" type="line" smooth="yes"/>
      <point x="61" y="243"/>
      <point x="51" y="262"/>
      <point x="51" y="279" type="curve" smooth="yes"/>
      <point x="51" y="284"/>
      <point x="51" y="289"/>
    </contour>
    <contour>
      <point x="81" y="172" type="line"/>
      <point x="84" y="177"/>
      <point x="87" y="183"/>
      <point x="90" y="188" type="curve"/>
      <point x="162" y="199"/>
      <point x="203" y="203"/>
      <point x="269" y="203" type="curve" smooth="yes"/>
      <point x="429" y="203"/>
      <point x="460" y="139"/>
      <point x="454" y="87" type="curve"/>
      <point x="454" y="-2"/>
      <point x="307" y="-27"/>
      <point x="217" y="-53" type="curve"/>
      <point x="182" y="-66" type="line"/>
      <point x="261" y="-66" type="line" smooth="yes"/>
      <point x="268" y="-66"/>
      <point x="275" y="-65"/>
      <point x="282" y="-65" type="curve" smooth="yes"/>
      <point x="420" y="-65" type="line"/>
      <point x="398" y="-162" type="line"/>
      <point x="11" y="-162" type="line"/>
      <point x="30" y="-76" type="line"/>
      <point x="142" y="-20" type="line"/>
      <point x="194" y="1"/>
      <point x="282" y="17"/>
      <point x="294" y="71" type="curve"/>
      <point x="298" y="87"/>
      <point x="291" y="113"/>
      <point x="234" y="113" type="curve" smooth="yes"/>
      <point x="207" y="113"/>
      <point x="179" y="106"/>
      <point x="159" y="94" type="curve"/>
      <point x="127" y="77" type="line"/>
    </contour>
    <contour>
      <point x="219" y="648" type="curve"/>
      <point x="240" y="739" type="line"/>
      <point x="477" y="739"/>
      <point x="430" y="771"/>
      <point x="508" y="771" type="curve"/>
      <point x="445" y="496" type="line"/>
      <point x="530" y="496" type="line"/>
      <point x="509" y="405" type="line"/>
      <point x="177" y="405" type="line"/>
      <point x="198" y="496" type="line"/>
      <point x="291" y="496" type="line"/>
      <point x="327" y="652" type="line"/>
      <point x="271" y="647"/>
      <point x="243" y="648"/>
    </contour>
  </outline>
</glyph>
<glyph name="threequarters" format="2">
  <advance width="489"/>
  <unicode hex="00BE"/>
  <outline>
    <contour>
      <point x="52" y="293" type="curve" smooth="yes"/>
      <point x="54" y="300"/>
      <point x="56" y="307"/>
      <point x="59" y="312" type="curve" smooth="yes"/>
      <point x="73" y="336"/>
      <point x="96" y="339"/>
      <point x="119" y="343" type="curve" smooth="yes"/>
      <point x="125" y="344"/>
      <point x="131" y="344"/>
      <point x="137" y="344" type="curve" smooth="yes"/>
      <point x="510" y="344" type="line" smooth="yes"/>
      <point x="533" y="344"/>
      <point x="563" y="341"/>
      <point x="567" y="316" type="curve" smooth="yes"/>
      <point x="568" y="310"/>
      <point x="572" y="243"/>
      <point x="497" y="243" type="curve" smooth="yes"/>
      <point x="97" y="243" type="line" smooth="yes"/>
      <point x="61" y="243"/>
      <point x="51" y="262"/>
      <point x="51" y="279" type="curve" smooth="yes"/>
      <point x="51" y="284"/>
      <point x="51" y="289"/>
    </contour>
    <contour>
      <point x="17" y="-32" type="line"/>
      <point x="236" y="182" type="line"/>
      <point x="413" y="182" type="line"/>
      <point x="365" y="-25" type="line"/>
      <point x="452" y="-25" type="line"/>
      <point x="426" y="-137" type="line"/>
      <point x="339" y="-137" type="line"/>
      <point x="334" y="-162" type="line"/>
      <point x="194" y="-162" type="line"/>
      <point x="199" y="-137" type="line"/>
      <point x="-8" y="-137" type="line"/>
    </contour>
    <contour>
      <point x="117" y="353" type="curve"/>
      <point x="162" y="465" type="line"/>
      <point x="224" y="485"/>
      <point x="273" y="492"/>
      <point x="310" y="495" type="curve" smooth="yes"/>
      <point x="362" y="499"/>
      <point x="393" y="493"/>
      <point x="399" y="515" type="curve" smooth="yes"/>
      <point x="405" y="538"/>
      <point x="363" y="534"/>
      <point x="340" y="534" type="curve" smooth="yes"/>
      <point x="296" y="534" type="line"/>
      <point x="317" y="625" type="line"/>
      <point x="327" y="625"/>
      <point x="403" y="626"/>
      <point x="409" y="652" type="curve" smooth="yes"/>
      <point x="412" y="665"/>
      <point x="397" y="664"/>
      <point x="380" y="664" type="curve" smooth="yes"/>
      <point x="340" y="664"/>
      <point x="301" y="665"/>
      <point x="261" y="665" type="curve"/>
      <point x="223" y="757" type="line"/>
      <point x="288" y="766"/>
      <point x="350" y="771"/>
      <point x="405" y="771" type="curve" smooth="yes"/>
      <point x="474" y="771"/>
      <point x="569" y="754"/>
      <point x="569" y="677" type="curve" smooth="yes"/>
      <point x="569" y="629"/>
      <point x="543" y="600"/>
      <point x="517" y="583" type="curve"/>
      <point x="542" y="572"/>
      <point x="571" y="553"/>
      <point x="562" y="513" type="curve" smooth="yes"/>
      <point x="560" y="503"/>
      <point x="557" y="493"/>
      <point x="552" y="483" type="curve" smooth="yes"/>
      <point x="508" y="397"/>
      <point x="408" y="386"/>
      <point x="334" y="384" type="curve"/>
      <point x="288" y="384"/>
      <point x="225" y="380"/>
    </contour>
    <contour>
      <point x="162" y="-25" type="line"/>
      <point x="230" y="-25" type="line"/>
      <point x="250" y="59" type="line"/>
      <point x="220" y="31" type="line"/>
    </contour>
  </outline>
</glyph>
<glyph name="questiondown" format="2">
  <advance width="519"/>
  <unicode hex="00BF"/>
  <outline>
    <contour>
      <point x="48" y="-18" type="curve"/>
      <point x="57" y="12" type="line"/>
      <point x="74" y="62"/>
      <point x="106" y="88"/>
      <point x="131" y="107" type="curve"/>
      <point x="131" y="107"/>
      <point x="130" y="106"/>
      <point x="130" y="106" type="curve"/>
      <point x="189" y="172"/>
      <point x="226" y="198"/>
      <point x="245" y="280" type="curve" smooth="yes"/>
      <point x="254" y="322" type="line"/>
      <point x="375" y="322" type="line"/>
      <point x="366" y="280" type="line" smooth="yes"/>
      <point x="365" y="276"/>
      <point x="364" y="272"/>
      <point x="363" y="268" type="curve" smooth="yes"/>
      <point x="351" y="221"/>
      <point x="329" y="155"/>
      <point x="236" y="51" type="curve"/>
      <point x="236" y="51"/>
      <point x="236" y="52"/>
      <point x="236" y="52" type="curve"/>
      <point x="217" y="29"/>
      <point x="209" y="20"/>
      <point x="200" y="-20" type="curve" smooth="yes"/>
      <point x="189" y="-68"/>
      <point x="188" y="-83"/>
      <point x="222" y="-83" type="curve" smooth="yes"/>
      <point x="352" y="-83"/>
      <point x="391" y="-15"/>
      <point x="419" y="-15" type="curve"/>
      <point x="431" y="-121" type="line"/>
      <point x="310" y="-171"/>
      <point x="237" y="-173"/>
      <point x="210" y="-173" type="curve" smooth="yes"/>
      <point x="131" y="-173"/>
      <point x="46" y="-164"/>
      <point x="42" y="-74" type="curve" smooth="yes"/>
      <point x="41" y="-58"/>
      <point x="43" y="-40"/>
    </contour>
    <contour>
      <point x="256" y="386" type="line"/>
      <point x="290" y="533" type="line"/>
      <point x="437" y="533" type="line"/>
      <point x="403" y="386" type="line"/>
    </contour>
  </outline>
</glyph>
<glyph name="Agrave" format="2">
  <advance width="733"/>
  <unicode hex="00C0"/>
  <outline>
    <contour>
      <point x="384" y="858" type="line"/>
      <point x="449" y="858"/>
      <point x="514" y="858"/>
      <point x="579" y="858" type="curve"/>
      <point x="618" y="819"/>
      <point x="657" y="782"/>
      <point x="694" y="742" type="curve"/>
      <point x="610" y="742" type="line" smooth="yes"/>
      <point x="529" y="742"/>
      <point x="449" y="802"/>
      <point x="376" y="842" type="curve"/>
    </contour>
    <contour>
      <point x="21" y="0" type="line"/>
      <point x="423" y="695" type="line"/>
      <point x="618" y="695" type="line"/>
      <point x="700" y="0" type="line"/>
      <point x="531" y="0" type="line"/>
      <point x="513" y="146" type="line"/>
      <point x="258" y="146" type="line"/>
      <point x="173" y="0" type="line"/>
    </contour>
    <contour>
      <point x="318" y="250" type="curve"/>
      <point x="502" y="250" type="line"/>
      <point x="493" y="336"/>
      <point x="468" y="446"/>
      <point x="474" y="527" type="curve"/>
      <point x="449" y="478"/>
      <point x="410" y="414"/>
    </contour>
  </outline>
</glyph>
<glyph name="Aacute" format="2">
  <advance width="733"/>
  <unicode hex="00C1"/>
  <outline>
    <contour>
      <point x="371" y="743" type="curve"/>
      <point x="514" y="842" type="line"/>
      <point x="538" y="858" type="line"/>
      <point x="547" y="858"/>
      <point x="555" y="858"/>
      <point x="564" y="858" type="curve" smooth="yes"/>
      <point x="616" y="858" type="line" smooth="yes"/>
      <point x="626" y="858"/>
      <point x="635" y="858"/>
      <point x="645" y="858" type="curve" smooth="yes"/>
      <point x="734" y="858" type="line"/>
      <point x="734" y="842" type="line"/>
      <point x="515" y="751"/>
      <point x="512" y="742"/>
      <point x="483" y="742" type="curve" smooth="yes"/>
      <point x="445" y="742"/>
      <point x="409" y="743"/>
    </contour>
    <contour>
      <point x="21" y="0" type="line"/>
      <point x="423" y="695" type="line"/>
      <point x="618" y="695" type="line"/>
      <point x="700" y="0" type="line"/>
      <point x="531" y="0" type="line"/>
      <point x="513" y="146" type="line"/>
      <point x="258" y="146" type="line"/>
      <point x="173" y="0" type="line"/>
    </contour>
    <contour>
      <point x="318" y="250" type="curve"/>
      <point x="502" y="250" type="line"/>
      <point x="493" y="336"/>
      <point x="468" y="446"/>
      <point x="474" y="527" type="curve"/>
      <point x="449" y="478"/>
      <point x="410" y="414"/>
    </contour>
  </outline>
</glyph>
<glyph name="Acircumflex" format="2">
  <advance width="733"/>
  <unicode hex="00C2"/>
  <outline>
    <contour>
      <point x="313" y="708" type="line"/>
      <point x="488" y="908" type="line"/>
      <point x="654" y="908" type="line"/>
      <point x="681" y="708" type="line"/>
      <point x="594" y="708" type="line"/>
      <point x="523" y="811" type="line"/>
      <point x="463" y="759" type="line" smooth="yes"/>
      <point x="443" y="741"/>
      <point x="422" y="724"/>
      <point x="404" y="708" type="curve"/>
    </contour>
    <contour>
      <point x="21" y="0" type="line"/>
      <point x="423" y="695" type="line"/>
      <point x="618" y="695" type="line"/>
      <point x="700" y="0" type="line"/>
      <point x="531" y="0" type="line"/>
      <point x="513" y="146" type="line"/>
      <point x="258" y="146" type="line"/>
      <point x="173" y="0" type="line"/>
    </contour>
    <contour>
      <point x="318" y="250" type="curve"/>
      <point x="502" y="250" type="line"/>
      <point x="493" y="336"/>
      <point x="468" y="446"/>
      <point x="474" y="527" type="curve"/>
      <point x="449" y="478"/>
      <point x="410" y="414"/>
    </contour>
  </outline>
</glyph>
<glyph name="Atilde" format="2">
  <advance width="733"/>
  <unicode hex="00C3"/>
  <outline>
    <contour>
      <point x="21" y="0" type="line"/>
      <point x="423" y="695" type="line"/>
      <point x="618" y="695" type="line"/>
      <point x="700" y="0" type="line"/>
      <point x="531" y="0" type="line"/>
      <point x="513" y="146" type="line"/>
      <point x="258" y="146" type="line"/>
      <point x="173" y="0" type="line"/>
    </contour>
    <contour>
      <point x="318" y="250" type="curve"/>
      <point x="502" y="250" type="line"/>
      <point x="493" y="336"/>
      <point x="468" y="446"/>
      <point x="474" y="527" type="curve"/>
      <point x="449" y="478"/>
      <point x="410" y="414"/>
    </contour>
    <contour>
      <point x="342" y="708" type="line"/>
      <point x="341" y="709"/>
      <point x="340" y="711"/>
      <point x="339" y="712" type="curve"/>
      <point x="339" y="715"/>
      <point x="338" y="717"/>
      <point x="338" y="720" type="curve"/>
      <point x="377" y="866"/>
      <point x="450" y="897"/>
      <point x="495" y="897" type="curve" smooth="yes"/>
      <point x="568" y="897"/>
      <point x="568" y="800"/>
      <point x="616" y="800" type="curve" smooth="yes"/>
      <point x="649" y="800"/>
      <point x="661" y="878"/>
      <point x="665" y="897" type="curve"/>
      <point x="755" y="897" type="line"/>
      <point x="725" y="799"/>
      <point x="683" y="709"/>
      <point x="597" y="709" type="curve" smooth="yes"/>
      <point x="523" y="709"/>
      <point x="528" y="807"/>
      <point x="477" y="807" type="curve"/>
      <point x="477" y="807"/>
      <point x="477" y="807"/>
      <point x="477" y="807" type="curve"/>
      <point x="442" y="807"/>
      <point x="430" y="721"/>
      <point x="426" y="708" type="curve"/>
    </contour>
  </outline>
</glyph>
<glyph name="Adieresis" format="2">
  <advance width="733"/>
  <unicode hex="00C4"/>
  <outline>
    <contour>
      <point x="370" y="766" type="line"/>
      <point x="399" y="894" type="line"/>
      <point x="527" y="894" type="line"/>
      <point x="498" y="766" type="line"/>
    </contour>
    <contour>
      <point x="578" y="766" type="line"/>
      <point x="607" y="894" type="line"/>
      <point x="735" y="894" type="line"/>
      <point x="706" y="766" type="line"/>
    </contour>
    <contour>
      <point x="21" y="0" type="line"/>
      <point x="423" y="695" type="line"/>
      <point x="618" y="695" type="line"/>
      <point x="700" y="0" type="line"/>
      <point x="531" y="0" type="line"/>
      <point x="513" y="146" type="line"/>
      <point x="258" y="146" type="line"/>
      <point x="173" y="0" type="line"/>
    </contour>
    <contour>
      <point x="318" y="250" type="curve"/>
      <point x="502" y="250" type="line"/>
      <point x="493" y="336"/>
      <point x="468" y="446"/>
      <point x="474" y="527" type="curve"/>
      <point x="449" y="478"/>
      <point x="410" y="414"/>
    </contour>
  </outline>
</glyph>
<glyph name="Aring" format="2">
  <advance width="733"/>
  <unicode hex="00C5"/>
  <outline>
    <contour>
      <point x="21" y="0" type="line"/>
      <point x="391" y="637" type="line"/>
      <point x="372" y="663"/>
      <point x="369" y="701"/>
      <point x="380" y="748" type="curve" smooth="yes"/>
      <point x="396" y="824"/>
      <point x="440" y="897"/>
      <point x="544" y="897" type="curve" smooth="yes"/>
      <point x="613" y="896"/>
      <point x="640" y="865"/>
      <point x="645" y="821" type="curve" smooth="yes"/>
      <point x="651" y="777"/>
      <point x="627" y="709"/>
      <point x="618" y="694" type="curve"/>
      <point x="700" y="0" type="line"/>
      <point x="531" y="0" type="line"/>
      <point x="513" y="146" type="line"/>
      <point x="258" y="146" type="line"/>
      <point x="173" y="0" type="line"/>
    </contour>
    <contour>
      <point x="318" y="250" type="curve"/>
      <point x="502" y="250" type="line"/>
      <point x="498" y="291"/>
      <point x="492" y="334"/>
      <point x="487" y="376" type="curve" smooth="yes"/>
      <point x="478" y="461" type="line" smooth="yes"/>
      <point x="477" y="469"/>
      <point x="476" y="478"/>
      <point x="475" y="487" type="curve"/>
      <point x="473" y="513" type="line"/>
      <point x="473" y="518"/>
      <point x="474" y="522"/>
      <point x="474" y="527" type="curve"/>
      <point x="449" y="478"/>
      <point x="410" y="414"/>
    </contour>
    <contour>
      <point x="461" y="754" type="curve" smooth="yes"/>
      <point x="458" y="742" type="line" smooth="yes"/>
      <point x="456" y="734"/>
      <point x="456" y="727"/>
      <point x="456" y="721" type="curve" smooth="yes"/>
      <point x="456" y="705"/>
      <point x="465" y="695"/>
      <point x="493" y="695" type="curve" name=".hr01"/>
      <point x="527" y="696"/>
      <point x="552" y="695"/>
      <point x="563" y="770" type="curve" smooth="yes"/>
      <point x="566" y="794"/>
      <point x="553" y="807"/>
      <point x="525" y="807" type="curve" smooth="yes"/>
      <point x="491" y="807"/>
      <point x="472" y="802"/>
    </contour>
  </outline>
</glyph>
<glyph name="AE" format="2">
  <advance width="947"/>
  <unicode hex="00C6"/>
  <outline>
    <contour>
      <point x="22" y="0" type="line"/>
      <point x="434" y="695" type="line"/>
      <point x="1036" y="695" type="line"/>
      <point x="1008" y="573" type="line"/>
      <point x="739" y="576" type="line"/>
      <point x="702" y="417" type="line"/>
      <point x="942" y="417" type="line"/>
      <point x="916" y="305" type="line"/>
      <point x="676" y="305" type="line"/>
      <point x="634" y="123" type="line"/>
      <point x="882" y="126" type="line" smooth="yes"/>
      <point x="895" y="126"/>
      <point x="907" y="127"/>
      <point x="920" y="127" type="curve"/>
      <point x="891" y="0" type="line"/>
      <point x="444" y="0" type="line"/>
      <point x="487" y="186" type="line"/>
      <point x="284" y="186" type="line"/>
      <point x="174" y="0" type="line"/>
    </contour>
    <contour>
      <point x="347" y="290" type="curve"/>
      <point x="402" y="290"/>
      <point x="456" y="290"/>
      <point x="511" y="290" type="curve"/>
      <point x="577" y="577" type="line"/>
      <point x="516" y="577" type="line"/>
      <point x="456" y="477"/>
      <point x="407" y="390"/>
    </contour>
  </outline>
</glyph>
<glyph name="Ccedilla" format="2">
  <advance width="703"/>
  <unicode hex="00C7"/>
  <outline>
    <contour>
      <point x="134" y="346" type="curve" smooth="yes"/>
      <point x="139" y="366"/>
      <point x="143" y="384"/>
      <point x="149" y="402" type="curve" smooth="yes"/>
      <point x="228" y="649"/>
      <point x="402" y="716"/>
      <point x="589" y="716" type="curve" smooth="yes"/>
      <point x="667" y="716"/>
      <point x="721" y="704"/>
      <point x="789" y="678" type="curve"/>
      <point x="729" y="529" type="line"/>
      <point x="689" y="557"/>
      <point x="660" y="599"/>
      <point x="560" y="599" type="curve" smooth="yes"/>
      <point x="403" y="599"/>
      <point x="330" y="488"/>
      <point x="298" y="349" type="curve" smooth="yes"/>
      <point x="265" y="210"/>
      <point x="281" y="95"/>
      <point x="446" y="95" type="curve" smooth="yes"/>
      <point x="479" y="95"/>
      <point x="504" y="98"/>
      <point x="528" y="103" type="curve"/>
      <point x="566" y="113"/>
      <point x="593" y="124"/>
      <point x="631" y="144" type="curve" smooth="yes"/>
      <point x="671" y="166" type="line"/>
      <point x="651" y="36" type="line"/>
      <point x="568" y="-3"/>
      <point x="522" y="-16"/>
      <point x="457" y="-21" type="curve"/>
      <point x="443" y="-21"/>
      <point x="428" y="-21"/>
      <point x="414" y="-20" type="curve" smooth="yes"/>
      <point x="275" y="-15"/>
      <point x="155" y="19"/>
      <point x="125" y="146" type="curve" smooth="yes"/>
      <point x="113" y="197"/>
      <point x="115" y="262"/>
    </contour>
    <contour>
      <point x="210" y="-190" type="line"/>
      <point x="333" y="-47" type="line"/>
      <point x="365" y="-47"/>
      <point x="396" y="-48"/>
      <point x="428" y="-48" type="curve"/>
      <point x="334" y="-190" type="line"/>
    </contour>
  </outline>
</glyph>
<glyph name="Egrave" format="2">
  <advance width="642"/>
  <unicode hex="00C8"/>
  <outline>
    <contour>
      <point x="324" y="858" type="line"/>
      <point x="389" y="858"/>
      <point x="455" y="858"/>
      <point x="520" y="858" type="curve"/>
      <point x="559" y="819"/>
      <point x="598" y="782"/>
      <point x="635" y="742" type="curve"/>
      <point x="551" y="742" type="line" smooth="yes"/>
      <point x="483" y="742"/>
      <point x="394" y="802"/>
      <point x="316" y="842" type="curve"/>
    </contour>
    <contour>
      <point x="84" y="0" type="line"/>
      <point x="244" y="692" type="line"/>
      <point x="738" y="692" type="line"/>
      <point x="710" y="570" type="line"/>
      <point x="379" y="573" type="line"/>
      <point x="343" y="415" type="line"/>
      <point x="644" y="415" type="line"/>
      <point x="618" y="303" type="line"/>
      <point x="317" y="303" type="line"/>
      <point x="275" y="123" type="line"/>
      <point x="622" y="127" type="line"/>
      <point x="593" y="0" type="line"/>
    </contour>
  </outline>
</glyph>
<glyph name="Eacute" format="2">
  <advance width="642"/>
  <unicode hex="00C9"/>
  <outline>
    <contour>
      <point x="355" y="742" type="line"/>
      <point x="523" y="858" type="line"/>
      <point x="604" y="858" type="line" smooth="yes"/>
      <point x="623" y="858"/>
      <point x="642" y="857"/>
      <point x="661" y="857" type="curve" smooth="yes"/>
      <point x="719" y="857" type="line"/>
      <point x="719" y="841" type="line"/>
      <point x="577" y="781" type="line" smooth="yes"/>
      <point x="424" y="715"/>
      <point x="465" y="742"/>
      <point x="430" y="742" type="curve" smooth="yes"/>
    </contour>
    <contour>
      <point x="84" y="0" type="line"/>
      <point x="244" y="692" type="line"/>
      <point x="738" y="692" type="line"/>
      <point x="710" y="570" type="line"/>
      <point x="379" y="573" type="line"/>
      <point x="343" y="415" type="line"/>
      <point x="644" y="415" type="line"/>
      <point x="618" y="303" type="line"/>
      <point x="317" y="303" type="line"/>
      <point x="275" y="123" type="line"/>
      <point x="622" y="127" type="line"/>
      <point x="593" y="0" type="line"/>
    </contour>
  </outline>
</glyph>
<glyph name="Ecircumflex" format="2">
  <advance width="642"/>
  <unicode hex="00CA"/>
  <outline>
    <contour>
      <point x="278" y="708" type="line"/>
      <point x="453" y="908" type="line"/>
      <point x="570" y="908" type="line"/>
      <point x="650" y="708" type="line"/>
      <point x="558" y="708" type="line"/>
      <point x="488" y="811" type="line"/>
      <point x="429" y="759" type="line" smooth="yes"/>
      <point x="409" y="741"/>
      <point x="388" y="724"/>
      <point x="370" y="708" type="curve"/>
    </contour>
    <contour>
      <point x="84" y="0" type="line"/>
      <point x="244" y="692" type="line"/>
      <point x="738" y="692" type="line"/>
      <point x="710" y="570" type="line"/>
      <point x="379" y="573" type="line"/>
      <point x="343" y="415" type="line"/>
      <point x="644" y="415" type="line"/>
      <point x="618" y="303" type="line"/>
      <point x="317" y="303" type="line"/>
      <point x="275" y="123" type="line"/>
      <point x="622" y="127" type="line"/>
      <point x="593" y="0" type="line"/>
    </contour>
  </outline>
</glyph>
<glyph name="Edieresis" format="2">
  <advance width="642"/>
  <unicode hex="00CB"/>
  <outline>
    <contour>
      <point x="518" y="766" type="line"/>
      <point x="547" y="894" type="line"/>
      <point x="675" y="894" type="line"/>
      <point x="646" y="766" type="line"/>
    </contour>
    <contour>
      <point x="310" y="766" type="line"/>
      <point x="339" y="894" type="line"/>
      <point x="467" y="894" type="line"/>
      <point x="438" y="766" type="line"/>
    </contour>
    <contour>
      <point x="84" y="0" type="line"/>
      <point x="244" y="692" type="line"/>
      <point x="738" y="692" type="line"/>
      <point x="710" y="570" type="line"/>
      <point x="379" y="573" type="line"/>
      <point x="343" y="415" type="line"/>
      <point x="644" y="415" type="line"/>
      <point x="618" y="303" type="line"/>
      <point x="317" y="303" type="line"/>
      <point x="275" y="123" type="line"/>
      <point x="622" y="127" type="line"/>
      <point x="593" y="0" type="line"/>
    </contour>
  </outline>
</glyph>
<glyph name="Igrave" format="2">
  <advance width="331"/>
  <unicode hex="00CC"/>
  <outline>
    <contour>
      <point x="171" y="858" type="line"/>
      <point x="236" y="858"/>
      <point x="301" y="858"/>
      <point x="366" y="858" type="curve"/>
      <point x="405" y="819"/>
      <point x="444" y="782"/>
      <point x="481" y="742" type="curve"/>
      <point x="397" y="742" type="line" smooth="yes"/>
      <point x="316" y="742"/>
      <point x="236" y="802"/>
      <point x="163" y="842" type="curve"/>
    </contour>
    <contour>
      <point x="82" y="0" type="line"/>
      <point x="242" y="695" type="line"/>
      <point x="405" y="695" type="line"/>
      <point x="245" y="0" type="line"/>
    </contour>
  </outline>
</glyph>
<glyph name="Iacute" format="2">
  <advance width="331"/>
  <unicode hex="00CD"/>
  <outline>
    <contour>
      <point x="217" y="742" type="line"/>
      <point x="230" y="751"/>
      <point x="244" y="762"/>
      <point x="259" y="773" type="curve" smooth="yes"/>
      <point x="345" y="837"/>
      <point x="386" y="858"/>
      <point x="469" y="858" type="curve" smooth="yes"/>
      <point x="547" y="858" type="line" smooth="yes"/>
      <point x="565" y="858"/>
      <point x="581" y="864"/>
      <point x="581" y="841" type="curve"/>
      <point x="440" y="781" type="line" smooth="yes"/>
      <point x="276" y="711"/>
      <point x="342" y="742"/>
      <point x="281" y="742" type="curve" smooth="yes"/>
    </contour>
    <contour>
      <point x="82" y="0" type="line"/>
      <point x="242" y="695" type="line"/>
      <point x="405" y="695" type="line"/>
      <point x="245" y="0" type="line"/>
    </contour>
  </outline>
</glyph>
<glyph name="Icircumflex" format="2">
  <advance width="331"/>
  <unicode hex="00CE"/>
  <outline>
    <contour>
      <point x="140" y="708" type="line"/>
      <point x="315" y="908" type="line"/>
      <point x="432" y="908" type="line"/>
      <point x="513" y="708" type="line"/>
      <point x="421" y="708" type="line"/>
      <point x="351" y="811" type="line"/>
      <point x="291" y="759" type="line" smooth="yes"/>
      <point x="271" y="741"/>
      <point x="251" y="724"/>
      <point x="232" y="708" type="curve"/>
    </contour>
    <contour>
      <point x="82" y="0" type="line"/>
      <point x="242" y="695" type="line"/>
      <point x="405" y="695" type="line"/>
      <point x="245" y="0" type="line"/>
    </contour>
  </outline>
</glyph>
<glyph name="Idieresis" format="2">
  <advance width="331"/>
  <unicode hex="00CF"/>
  <outline>
    <contour>
      <point x="380" y="766" type="line"/>
      <point x="409" y="894" type="line"/>
      <point x="537" y="894" type="line"/>
      <point x="508" y="766" type="line"/>
    </contour>
    <contour>
      <point x="172" y="766" type="line"/>
      <point x="201" y="894" type="line"/>
      <point x="329" y="894" type="line"/>
      <point x="300" y="766" type="line"/>
    </contour>
    <contour>
      <point x="81" y="0" type="line"/>
      <point x="241" y="695" type="line"/>
      <point x="404" y="695" type="line"/>
      <point x="244" y="0" type="line"/>
    </contour>
  </outline>
</glyph>
<glyph name="Eth" format="2">
  <advance width="794"/>
  <unicode hex="00D0"/>
  <outline>
    <contour>
      <point x="63" y="296" type="line"/>
      <point x="84" y="387" type="line"/>
      <point x="174" y="387" type="line"/>
      <point x="245" y="695" type="line"/>
      <point x="536" y="695" type="line"/>
      <point x="536" y="695"/>
      <point x="536" y="695"/>
      <point x="536" y="695" type="curve"/>
      <point x="730" y="695"/>
      <point x="871" y="628"/>
      <point x="805" y="340" type="curve" smooth="yes"/>
      <point x="736" y="45"/>
      <point x="544" y="0"/>
      <point x="376" y="0" type="curve" smooth="yes"/>
      <point x="85" y="0" type="line"/>
      <point x="153" y="296" type="line"/>
    </contour>
    <contour>
      <point x="269" y="104" type="line"/>
      <point x="360" y="104" type="line"/>
      <point x="391" y="104" type="line"/>
      <point x="457" y="106"/>
      <point x="522" y="119"/>
      <point x="575" y="176" type="curve"/>
      <point x="575" y="176"/>
      <point x="574" y="175"/>
      <point x="574" y="175" type="curve"/>
      <point x="635" y="245"/>
      <point x="656" y="367"/>
      <point x="656" y="431" type="curve" smooth="yes"/>
      <point x="656" y="570"/>
      <point x="571" y="591"/>
      <point x="480" y="591" type="curve" smooth="yes"/>
      <point x="381" y="591" type="line"/>
      <point x="334" y="387" type="line"/>
      <point x="490" y="387" type="line"/>
      <point x="469" y="296" type="line"/>
      <point x="313" y="296" type="line"/>
    </contour>
  </outline>
</glyph>
<glyph name="Ntilde" format="2">
  <advance width="794"/>
  <unicode hex="00D1"/>
  <outline>
    <contour>
      <point x="84" y="0" type="line"/>
      <point x="244" y="695" type="line"/>
      <point x="446" y="695" type="line"/>
      <point x="597" y="167" type="line"/>
      <point x="718" y="695" type="line"/>
      <point x="858" y="695" type="line"/>
      <point x="698" y="0" type="line"/>
      <point x="495" y="0" type="line"/>
      <point x="345" y="527" type="line"/>
      <point x="223" y="0" type="line"/>
    </contour>
    <contour>
      <point x="376" y="708" type="line"/>
      <point x="369" y="718" type="line"/>
      <point x="403" y="856"/>
      <point x="478" y="897"/>
      <point x="526" y="897" type="curve" smooth="yes"/>
      <point x="553" y="897"/>
      <point x="570" y="886"/>
      <point x="584" y="868" type="curve" smooth="yes"/>
      <point x="600" y="847"/>
      <point x="613" y="801" name=".hr01"/>
      <point x="644" y="801" type="curve" smooth="yes"/>
      <point x="666" y="801"/>
      <point x="678" y="821"/>
      <point x="696" y="897" type="curve"/>
      <point x="786" y="897" type="line"/>
      <point x="750" y="750"/>
      <point x="673" y="709"/>
      <point x="627" y="709" type="curve" smooth="yes"/>
      <point x="556" y="709"/>
      <point x="555" y="807"/>
      <point x="507" y="807" type="curve" smooth="yes"/>
      <point x="479" y="807"/>
      <point x="470" y="760"/>
      <point x="456" y="708" type="curve" name=".hr02"/>
    </contour>
  </outline>
</glyph>
<glyph name="Ograve" format="2">
  <advance width="794"/>
  <unicode hex="00D2"/>
  <outline>
    <contour>
      <point x="413" y="858" type="line"/>
      <point x="478" y="858"/>
      <point x="544" y="858"/>
      <point x="609" y="858" type="curve"/>
      <point x="648" y="819"/>
      <point x="687" y="782"/>
      <point x="724" y="742" type="curve"/>
      <point x="640" y="742" type="line" smooth="yes"/>
      <point x="570" y="742"/>
      <point x="483" y="802"/>
      <point x="406" y="842" type="curve"/>
    </contour>
    <contour>
      <point x="134" y="345" type="curve" smooth="yes"/>
      <point x="142" y="380"/>
      <point x="152" y="412"/>
      <point x="163" y="442" type="curve" smooth="yes"/>
      <point x="241" y="647"/>
      <point x="392" y="716"/>
      <point x="554" y="716" type="curve" smooth="yes"/>
      <point x="757" y="716"/>
      <point x="869" y="615"/>
      <point x="806" y="343" type="curve" smooth="yes"/>
      <point x="761" y="151"/>
      <point x="654" y="-21"/>
      <point x="386" y="-21" type="curve" smooth="yes"/>
      <point x="109" y="-21"/>
      <point x="92" y="160"/>
    </contour>
    <contour>
      <point x="302" y="369" type="curve"/>
      <point x="298" y="354"/>
      <point x="294" y="339"/>
      <point x="291" y="323" type="curve" smooth="yes"/>
      <point x="278" y="261"/>
      <point x="271" y="198"/>
      <point x="290" y="145" type="curve"/>
      <point x="310" y="100"/>
      <point x="355" y="77"/>
      <point x="408" y="77" type="curve" smooth="yes"/>
      <point x="484" y="77"/>
      <point x="596" y="124"/>
      <point x="650" y="377" type="curve" smooth="yes"/>
      <point x="667" y="452"/>
      <point x="680" y="531"/>
      <point x="636" y="584" type="curve"/>
      <point x="636" y="584"/>
      <point x="636" y="583"/>
      <point x="636" y="583" type="curve"/>
      <point x="615" y="606"/>
      <point x="579" y="621"/>
      <point x="533" y="621" type="curve" smooth="yes"/>
      <point x="383" y="621"/>
      <point x="327" y="480"/>
    </contour>
  </outline>
</glyph>
<glyph name="Oacute" format="2">
  <advance width="794"/>
  <unicode hex="00D3"/>
  <outline>
    <contour>
      <point x="401" y="743" type="curve"/>
      <point x="544" y="842" type="line"/>
      <point x="568" y="858" type="line"/>
      <point x="646" y="858" type="line"/>
      <point x="763" y="858" type="line"/>
      <point x="763" y="842" type="line"/>
      <point x="622" y="781" type="line" smooth="yes"/>
      <point x="531" y="742"/>
      <point x="531" y="742"/>
      <point x="514" y="742" type="curve" smooth="yes"/>
      <point x="476" y="742"/>
      <point x="439" y="743"/>
    </contour>
    <contour>
      <point x="134" y="345" type="curve" smooth="yes"/>
      <point x="142" y="380"/>
      <point x="152" y="412"/>
      <point x="163" y="442" type="curve" smooth="yes"/>
      <point x="241" y="647"/>
      <point x="392" y="716"/>
      <point x="554" y="716" type="curve" smooth="yes"/>
      <point x="757" y="716"/>
      <point x="869" y="615"/>
      <point x="806" y="343" type="curve" smooth="yes"/>
      <point x="761" y="151"/>
      <point x="654" y="-21"/>
      <point x="386" y="-21" type="curve" smooth="yes"/>
      <point x="109" y="-21"/>
      <point x="92" y="160"/>
    </contour>
    <contour>
      <point x="302" y="369" type="curve"/>
      <point x="298" y="354"/>
      <point x="294" y="339"/>
      <point x="291" y="323" type="curve" smooth="yes"/>
      <point x="278" y="261"/>
      <point x="271" y="198"/>
      <point x="290" y="145" type="curve"/>
      <point x="310" y="100"/>
      <point x="355" y="77"/>
      <point x="408" y="77" type="curve" smooth="yes"/>
      <point x="484" y="77"/>
      <point x="596" y="124"/>
      <point x="650" y="377" type="curve" smooth="yes"/>
      <point x="667" y="452"/>
      <point x="680" y="531"/>
      <point x="636" y="584" type="curve"/>
      <point x="636" y="584"/>
      <point x="636" y="583"/>
      <point x="636" y="583" type="curve"/>
      <point x="615" y="606"/>
      <point x="579" y="621"/>
      <point x="533" y="621" type="curve" smooth="yes"/>
      <point x="383" y="621"/>
      <point x="327" y="480"/>
    </contour>
  </outline>
</glyph>
<glyph name="Ocircumflex" format="2">
  <advance width="794"/>
  <unicode hex="00D4"/>
  <outline>
    <contour>
      <point x="367" y="708" type="line"/>
      <point x="542" y="908" type="line"/>
      <point x="659" y="908" type="line"/>
      <point x="740" y="708" type="line"/>
      <point x="649" y="708" type="line"/>
      <point x="577" y="811" type="line"/>
      <point x="518" y="759" type="line" smooth="yes"/>
      <point x="498" y="741"/>
      <point x="477" y="724"/>
      <point x="459" y="708" type="curve"/>
    </contour>
    <contour>
      <point x="134" y="345" type="curve" smooth="yes"/>
      <point x="142" y="380"/>
      <point x="152" y="412"/>
      <point x="163" y="442" type="curve" smooth="yes"/>
      <point x="241" y="647"/>
      <point x="392" y="716"/>
      <point x="554" y="716" type="curve" smooth="yes"/>
      <point x="757" y="716"/>
      <point x="869" y="615"/>
      <point x="806" y="343" type="curve" smooth="yes"/>
      <point x="761" y="151"/>
      <point x="654" y="-21"/>
      <point x="386" y="-21" type="curve" smooth="yes"/>
      <point x="109" y="-21"/>
      <point x="92" y="160"/>
    </contour>
    <contour>
      <point x="302" y="369" type="curve"/>
      <point x="298" y="354"/>
      <point x="294" y="339"/>
      <point x="291" y="323" type="curve" smooth="yes"/>
      <point x="278" y="261"/>
      <point x="271" y="198"/>
      <point x="290" y="145" type="curve"/>
      <point x="310" y="100"/>
      <point x="355" y="77"/>
      <point x="408" y="77" type="curve" smooth="yes"/>
      <point x="484" y="77"/>
      <point x="596" y="124"/>
      <point x="650" y="377" type="curve" smooth="yes"/>
      <point x="667" y="452"/>
      <point x="680" y="531"/>
      <point x="636" y="584" type="curve"/>
      <point x="636" y="584"/>
      <point x="636" y="583"/>
      <point x="636" y="583" type="curve"/>
      <point x="615" y="606"/>
      <point x="579" y="621"/>
      <point x="533" y="621" type="curve" smooth="yes" name=".hr01"/>
      <point x="383" y="621"/>
      <point x="327" y="480"/>
    </contour>
  </outline>
</glyph>
<glyph name="Otilde" format="2">
  <advance width="794"/>
  <unicode hex="00D5"/>
  <outline>
    <contour>
      <point x="134" y="345" type="curve" smooth="yes"/>
      <point x="142" y="380"/>
      <point x="152" y="412"/>
      <point x="163" y="442" type="curve" smooth="yes"/>
      <point x="241" y="647"/>
      <point x="392" y="716"/>
      <point x="554" y="716" type="curve" smooth="yes"/>
      <point x="757" y="716"/>
      <point x="869" y="614"/>
      <point x="806" y="343" type="curve" smooth="yes"/>
      <point x="761" y="151"/>
      <point x="654" y="-21"/>
      <point x="386" y="-21" type="curve" smooth="yes"/>
      <point x="109" y="-21"/>
      <point x="92" y="160"/>
    </contour>
    <contour>
      <point x="302" y="369" type="curve"/>
      <point x="298" y="354"/>
      <point x="294" y="339"/>
      <point x="291" y="323" type="curve" smooth="yes"/>
      <point x="278" y="261"/>
      <point x="271" y="198"/>
      <point x="290" y="145" type="curve"/>
      <point x="310" y="100"/>
      <point x="355" y="77"/>
      <point x="408" y="77" type="curve" smooth="yes"/>
      <point x="484" y="77"/>
      <point x="596" y="124"/>
      <point x="650" y="377" type="curve" smooth="yes"/>
      <point x="667" y="452"/>
      <point x="680" y="531"/>
      <point x="636" y="584" type="curve"/>
      <point x="636" y="584"/>
      <point x="636" y="583"/>
      <point x="636" y="583" type="curve"/>
      <point x="615" y="606"/>
      <point x="579" y="621"/>
      <point x="533" y="621" type="curve" smooth="yes"/>
      <point x="383" y="621"/>
      <point x="327" y="480"/>
    </contour>
    <contour>
      <point x="376" y="748" type="line"/>
      <point x="378" y="758"/>
      <point x="380" y="767"/>
      <point x="383" y="776" type="curve"/>
      <point x="423" y="911"/>
      <point x="494" y="937"/>
      <point x="535" y="937" type="curve" smooth="yes"/>
      <point x="609" y="937"/>
      <point x="606" y="840"/>
      <point x="654" y="840" type="curve" smooth="yes"/>
      <point x="687" y="840"/>
      <point x="700" y="916"/>
      <point x="705" y="937" type="curve"/>
      <point x="795" y="937" type="line"/>
      <point x="767" y="844"/>
      <point x="726" y="756"/>
      <point x="645" y="749" type="curve"/>
      <point x="576" y="762"/>
      <point x="558" y="847"/>
      <point x="516" y="847" type="curve" smooth="yes"/>
      <point x="506" y="847"/>
      <point x="498" y="839"/>
      <point x="491" y="829" type="curve"/>
      <point x="475" y="803"/>
      <point x="468" y="758"/>
      <point x="465" y="748" type="curve"/>
    </contour>
  </outline>
</glyph>
<glyph name="Odieresis" format="2">
  <advance width="794"/>
  <unicode hex="00D6"/>
  <outline>
    <contour>
      <point x="607" y="766" type="line"/>
      <point x="636" y="894" type="line"/>
      <point x="765" y="894" type="line"/>
      <point x="736" y="766" type="line"/>
    </contour>
    <contour>
      <point x="400" y="766" type="line"/>
      <point x="429" y="894" type="line"/>
      <point x="558" y="894" type="line"/>
      <point x="529" y="766" type="line"/>
    </contour>
    <contour>
      <point x="134" y="345" type="curve" smooth="yes"/>
      <point x="142" y="380"/>
      <point x="152" y="412"/>
      <point x="163" y="442" type="curve" smooth="yes"/>
      <point x="241" y="647"/>
      <point x="392" y="716"/>
      <point x="554" y="716" type="curve" smooth="yes"/>
      <point x="757" y="716"/>
      <point x="869" y="615"/>
      <point x="806" y="343" type="curve" smooth="yes"/>
      <point x="761" y="151"/>
      <point x="654" y="-21"/>
      <point x="386" y="-21" type="curve" smooth="yes"/>
      <point x="109" y="-21"/>
      <point x="92" y="160"/>
    </contour>
    <contour>
      <point x="302" y="369" type="curve"/>
      <point x="298" y="354"/>
      <point x="294" y="339"/>
      <point x="291" y="323" type="curve" smooth="yes"/>
      <point x="278" y="261"/>
      <point x="271" y="198"/>
      <point x="290" y="145" type="curve"/>
      <point x="310" y="100"/>
      <point x="355" y="77"/>
      <point x="408" y="77" type="curve" smooth="yes"/>
      <point x="484" y="77"/>
      <point x="596" y="124"/>
      <point x="650" y="377" type="curve" smooth="yes"/>
      <point x="667" y="452"/>
      <point x="680" y="531"/>
      <point x="636" y="584" type="curve"/>
      <point x="636" y="584"/>
      <point x="636" y="583"/>
      <point x="636" y="583" type="curve"/>
      <point x="615" y="606"/>
      <point x="579" y="621"/>
      <point x="533" y="621" type="curve" smooth="yes"/>
      <point x="383" y="621"/>
      <point x="327" y="480"/>
    </contour>
  </outline>
</glyph>
<glyph name="multiply" format="2">
  <advance width="672"/>
  <unicode hex="00D7"/>
  <outline>
    <contour>
      <point x="144" y="105" type="curve"/>
      <point x="145" y="110"/>
      <point x="148" y="115"/>
      <point x="152" y="121" type="curve"/>
      <point x="152" y="121"/>
      <point x="152" y="121"/>
      <point x="152" y="121" type="curve"/>
      <point x="176" y="154"/>
      <point x="218" y="178"/>
      <point x="321" y="266" type="curve"/>
      <point x="307" y="285"/>
      <point x="293" y="304"/>
      <point x="279" y="323" type="curve"/>
      <point x="255" y="353" type="line" smooth="yes"/>
      <point x="215" y="404"/>
      <point x="215" y="407"/>
      <point x="219" y="427" type="curve"/>
      <point x="225" y="452"/>
      <point x="249" y="472"/>
      <point x="274" y="476" type="curve"/>
      <point x="314" y="476"/>
      <point x="299" y="481"/>
      <point x="409" y="337" type="curve"/>
      <point x="571" y="473"/>
      <point x="579" y="476"/>
      <point x="601" y="476" type="curve" smooth="yes"/>
      <point x="608" y="476"/>
      <point x="614" y="474"/>
      <point x="619" y="472" type="curve" smooth="yes"/>
      <point x="636" y="465"/>
      <point x="644" y="447"/>
      <point x="640" y="427" type="curve" smooth="yes"/>
      <point x="634" y="396"/>
      <point x="605" y="384"/>
      <point x="462" y="265" type="curve"/>
      <point x="484" y="237"/>
      <point x="511" y="204"/>
      <point x="530" y="179" type="curve" smooth="yes"/>
      <point x="570" y="128"/>
      <point x="569" y="125"/>
      <point x="565" y="106" type="curve" smooth="yes"/>
      <point x="563" y="97"/>
      <point x="560" y="91"/>
      <point x="556" y="85" type="curve" smooth="yes"/>
      <point x="539" y="59"/>
      <point x="504" y="53"/>
      <point x="501" y="55" type="curve"/>
      <point x="469" y="57"/>
      <point x="454" y="93"/>
      <point x="375" y="194" type="curve"/>
      <point x="306" y="137" type="line" smooth="yes"/>
      <point x="219" y="65"/>
      <point x="210" y="55"/>
      <point x="184" y="55" type="curve" smooth="yes"/>
      <point x="171" y="55"/>
      <point x="159" y="61"/>
      <point x="152" y="70" type="curve"/>
      <point x="144" y="79"/>
      <point x="141" y="92"/>
    </contour>
  </outline>
</glyph>
<glyph name="Oslash" format="2">
  <advance width="856"/>
  <unicode hex="00D8"/>
  <outline>
    <contour>
      <point x="134" y="342" type="curve" smooth="yes"/>
      <point x="139" y="365"/>
      <point x="145" y="387"/>
      <point x="152" y="407" type="curve" smooth="yes"/>
      <point x="234" y="653"/>
      <point x="409" y="716"/>
      <point x="585" y="716" type="curve" smooth="yes"/>
      <point x="640" y="716"/>
      <point x="687" y="710" name=".hr01"/>
      <point x="731" y="696" type="curve" name=".hr02"/>
      <point x="782" y="758" type="line"/>
      <point x="853" y="710" type="line" name=".hr03"/>
      <point x="807" y="653" type="line"/>
      <point x="849" y="619"/>
      <point x="873" y="569"/>
      <point x="879" y="505" type="curve" smooth="yes"/>
      <point x="902" y="284"/>
      <point x="778" y="-21"/>
      <point x="416" y="-21" type="curve" smooth="yes"/>
      <point x="366" y="-21"/>
      <point x="315" y="-17"/>
      <point x="269" y="-3" type="curve" name=".hr04"/>
      <point x="262" y="-13"/>
      <point x="253" y="-24"/>
      <point x="244" y="-34" type="curve"/>
      <point x="220" y="-63" type="line"/>
      <point x="148" y="-16" type="line" name=".hr05"/>
      <point x="193" y="39" type="line"/>
      <point x="153" y="72"/>
      <point x="128" y="120"/>
      <point x="121" y="181" type="curve" smooth="yes"/>
      <point x="115" y="227"/>
      <point x="120" y="280"/>
    </contour>
    <contour>
      <point x="274" y="321" type="curve" smooth="yes"/>
      <point x="270" y="302"/>
      <point x="267" y="282"/>
      <point x="265" y="261" type="curve"/>
      <point x="260" y="220"/>
      <point x="261" y="178"/>
      <point x="276" y="143" type="curve"/>
      <point x="339" y="220"/>
      <point x="403" y="298"/>
      <point x="468" y="376" type="curve" smooth="yes"/>
      <point x="661" y="609" type="line"/>
      <point x="636" y="619"/>
      <point x="604" y="626"/>
      <point x="565" y="626" type="curve" smooth="yes"/>
      <point x="351" y="626"/>
      <point x="305" y="458"/>
    </contour>
    <contour>
      <point x="340" y="84" type="line"/>
      <point x="364" y="74"/>
      <point x="392" y="68"/>
      <point x="437" y="68" type="curve"/>
      <point x="437" y="68" name=".hr06"/>
      <point x="437" y="68"/>
      <point x="437" y="68" type="curve"/>
      <point x="653" y="68"/>
      <point x="697" y="242"/>
      <point x="721" y="348" type="curve" smooth="yes"/>
      <point x="739" y="424"/>
      <point x="750" y="490"/>
      <point x="723" y="551" type="curve"/>
      <point x="661" y="474"/>
      <point x="596" y="396"/>
      <point x="531" y="317" type="curve" smooth="yes"/>
    </contour>
  </outline>
</glyph>
<glyph name="Ugrave" format="2">
  <advance width="764"/>
  <unicode hex="00D9"/>
  <outline>
    <contour>
      <point x="399" y="858" type="line"/>
      <point x="431" y="858"/>
      <point x="463" y="858"/>
      <point x="496" y="858" type="curve" smooth="yes"/>
      <point x="625" y="858"/>
      <point x="642" y="809"/>
      <point x="709" y="742" type="curve"/>
      <point x="625" y="742" type="line" smooth="yes"/>
      <point x="544" y="742"/>
      <point x="464" y="802"/>
      <point x="391" y="842" type="curve"/>
    </contour>
    <contour>
      <point x="141" y="249" type="curve" smooth="yes"/>
      <point x="244" y="695" type="line"/>
      <point x="407" y="695" type="line"/>
      <point x="301" y="233" type="line" smooth="yes"/>
      <point x="296" y="212"/>
      <point x="292" y="192"/>
      <point x="291" y="174" type="curve" smooth="yes"/>
      <point x="287" y="120"/>
      <point x="307" y="82"/>
      <point x="398" y="82" type="curve"/>
      <point x="398" y="82"/>
      <point x="398" y="82"/>
      <point x="398" y="82" type="curve"/>
      <point x="530" y="82"/>
      <point x="553" y="166"/>
      <point x="569" y="235" type="curve" smooth="yes"/>
      <point x="675" y="695" type="line"/>
      <point x="827" y="695" type="line"/>
      <point x="724" y="245" type="line" smooth="yes"/>
      <point x="690" y="100"/>
      <point x="608" y="-21"/>
      <point x="375" y="-21" type="curve" smooth="yes"/>
      <point x="124" y="-21"/>
      <point x="109" y="108"/>
    </contour>
  </outline>
</glyph>
<glyph name="Uacute" format="2">
  <advance width="764"/>
  <unicode hex="00DA"/>
  <outline>
    <contour>
      <point x="431" y="743" type="curve"/>
      <point x="574" y="842" type="line"/>
      <point x="598" y="858" type="line"/>
      <point x="676" y="858" type="line"/>
      <point x="793" y="858" type="line"/>
      <point x="793" y="842" type="line"/>
      <point x="652" y="781" type="line" smooth="yes"/>
      <point x="561" y="742"/>
      <point x="561" y="742"/>
      <point x="544" y="742" type="curve" smooth="yes"/>
      <point x="506" y="742"/>
      <point x="469" y="743"/>
    </contour>
    <contour>
      <point x="141" y="249" type="curve" smooth="yes"/>
      <point x="244" y="695" type="line"/>
      <point x="407" y="695" type="line"/>
      <point x="301" y="233" type="line" smooth="yes"/>
      <point x="296" y="212"/>
      <point x="292" y="192"/>
      <point x="291" y="174" type="curve" smooth="yes"/>
      <point x="287" y="120"/>
      <point x="307" y="82"/>
      <point x="398" y="82" type="curve"/>
      <point x="398" y="82"/>
      <point x="398" y="82"/>
      <point x="398" y="82" type="curve"/>
      <point x="530" y="82"/>
      <point x="553" y="166"/>
      <point x="569" y="235" type="curve" smooth="yes"/>
      <point x="675" y="695" type="line"/>
      <point x="827" y="695" type="line"/>
      <point x="724" y="245" type="line" smooth="yes"/>
      <point x="690" y="100"/>
      <point x="608" y="-21"/>
      <point x="375" y="-21" type="curve" smooth="yes"/>
      <point x="124" y="-21"/>
      <point x="109" y="108"/>
    </contour>
  </outline>
</glyph>
<glyph name="Ucircumflex" format="2">
  <advance width="764"/>
  <unicode hex="00DB"/>
  <outline>
    <contour>
      <point x="355" y="708" type="line"/>
      <point x="530" y="908" type="line"/>
      <point x="641" y="908" type="line"/>
      <point x="729" y="708" type="line"/>
      <point x="636" y="708" type="line"/>
      <point x="566" y="811" type="line"/>
      <point x="506" y="759" type="line" smooth="yes"/>
      <point x="486" y="741"/>
      <point x="465" y="724"/>
      <point x="447" y="708" type="curve"/>
    </contour>
    <contour>
      <point x="141" y="249" type="curve" smooth="yes"/>
      <point x="244" y="695" type="line"/>
      <point x="407" y="695" type="line"/>
      <point x="301" y="233" type="line" smooth="yes"/>
      <point x="296" y="212"/>
      <point x="292" y="192"/>
      <point x="291" y="174" type="curve" smooth="yes"/>
      <point x="287" y="120"/>
      <point x="307" y="82"/>
      <point x="398" y="82" type="curve"/>
      <point x="398" y="82"/>
      <point x="398" y="82"/>
      <point x="398" y="82" type="curve"/>
      <point x="530" y="82"/>
      <point x="553" y="166"/>
      <point x="569" y="235" type="curve" smooth="yes"/>
      <point x="675" y="695" type="line"/>
      <point x="827" y="695" type="line"/>
      <point x="724" y="245" type="line" smooth="yes"/>
      <point x="690" y="100"/>
      <point x="608" y="-21"/>
      <point x="375" y="-21" type="curve" smooth="yes"/>
      <point x="124" y="-21"/>
      <point x="109" y="108"/>
    </contour>
  </outline>
</glyph>
<glyph name="Udieresis" format="2">
  <advance width="764"/>
  <unicode hex="00DC"/>
  <outline>
    <contour>
      <point x="592" y="766" type="line"/>
      <point x="621" y="894" type="line"/>
      <point x="750" y="894" type="line"/>
      <point x="721" y="766" type="line"/>
    </contour>
    <contour>
      <point x="385" y="766" type="line"/>
      <point x="414" y="894" type="line"/>
      <point x="542" y="894" type="line"/>
      <point x="513" y="766" type="line"/>
    </contour>
    <contour>
      <point x="141" y="249" type="curve" smooth="yes"/>
      <point x="244" y="695" type="line"/>
      <point x="407" y="695" type="line"/>
      <point x="301" y="233" type="line" smooth="yes"/>
      <point x="296" y="212"/>
      <point x="292" y="192"/>
      <point x="291" y="174" type="curve" smooth="yes"/>
      <point x="287" y="120"/>
      <point x="307" y="82"/>
      <point x="398" y="82" type="curve"/>
      <point x="398" y="82"/>
      <point x="398" y="82"/>
      <point x="398" y="82" type="curve"/>
      <point x="530" y="82"/>
      <point x="553" y="166"/>
      <point x="569" y="235" type="curve" smooth="yes"/>
      <point x="675" y="695" type="line"/>
      <point x="827" y="695" type="line"/>
      <point x="724" y="245" type="line" smooth="yes"/>
      <point x="690" y="100"/>
      <point x="608" y="-21"/>
      <point x="375" y="-21" type="curve" smooth="yes"/>
      <point x="124" y="-21"/>
      <point x="109" y="108"/>
    </contour>
  </outline>
</glyph>
